<svg version="1" xmlns="http://www.w3.org/2000/svg" width="800" height="800" viewBox="0 0 600.000000 600.000000"><path d="M275.2 1.1c-35.9 2.6-76.3 13.9-110 30.8-43.8 22-83.4 56.3-111.4 96.6-53.7 77.2-68 175.4-38.7 264.4C30 438.1 54.2 477.2 88 511c60.9 61 143.9 92.5 229.4 87.2 74.5-4.7 141-34.6 193.6-87.2 52.4-52.3 82.5-119.3 87.2-193.6 6.8-109-46.8-213-139.9-271.7-54.1-34-117.1-49.4-183.1-44.6zM332 51.6c89 11.4 165.6 71.1 199.5 155.5 5 12.5 12.5 37.5 12.5 41.8 0 .8-16 1.1-51.5 1.1H441l-1.2-2.8c-8.6-20.8-18.7-36.8-31.6-50.4-24-25.2-54.1-40.9-88-45.8-11-1.6-41.1-.7-51.2 1.5-58.6 12.9-103.6 57.2-116.3 114.7l-1.5 6.8h38.6l38.7-.1 3.7-7.7c17-35.5 61.2-51.5 97.4-35.2 21.9 9.8 38 29.8 42.9 53.1 8.3 39.5-16.4 78.5-56 88.4-9.9 2.5-25.6 2.3-35.9-.4-21.6-5.7-39-19.9-48.7-39.9l-4.1-8.2H190c-20.8 0-38.1.3-38.3.8-1 1.5 5.2 23.3 9.3 32.9 8.1 18.9 18.1 33.6 33 48.3 23.2 22.9 51.6 37.1 83.9 42 10.8 1.6 35 1.3 45.6-.5 33.2-5.8 61.4-20.8 84.7-45.3 12.9-13.6 23-29.6 31.6-50.5l1.2-2.7h51.5c35.5 0 51.5.3 51.5 1.1 0 .5-.5 3.1-1.1 5.7-16.2 68.1-58.8 125.6-119 160.5-28.2 16.3-62.4 27.6-96.4 31.8-14.6 1.8-45.4 1.5-60.9-.5-54.2-7.3-105.6-32.7-144-71.1-38.7-38.7-62.9-87-71.2-142-2.6-16.8-2.6-53.2 0-70 8.3-55 32.5-103.3 71.2-142 41.9-41.9 98.5-67.9 158.1-72.5 13.5-1 36.2-.3 51.3 1.6z"/></svg>