<?xml version="1.0" encoding="iso-8859-1"?>
<!-- Generator: Adobe Illustrator 23.0.1, SVG Export Plug-In . SVG Version: 6.00 Build 0)  -->
<svg version="1.1" id="Layer_1" xmlns="http://www.w3.org/2000/svg" xmlns:xlink="http://www.w3.org/1999/xlink" x="0px" y="0px"
	 width="900px" height="410.675px" viewBox="0 0 900 410.675" enable-background="new 0 0 900 410.675" xml:space="preserve">
<g>
	<path fill="#C88F49" d="M841.149,74.057h-13.36l-3.534,14.626h16.894v77.893c0,22.684,12.859,36.044,36.05,36.044
		c4.532,0,9.074-0.751,13.109-1.517v-13.602c-4.035,0.501-7.82,0.501-11.851,0.501c-16.133,0-22.684-5.8-22.684-21.176V88.683
		h34.285V74.057h-34.285V34.99l-14.624,8.068V74.057z"/>
	<path fill="#C88F49" d="M804.848,176.159c-10.833,8.31-23.692,13.101-37.559,12.851c-28.228,0-49.403-23.951-49.403-51.167
		c0-30.252,22.444-52.185,52.684-52.185c15.886,0,27.477,5.55,35.036,12.1l9.084-11.841c-12.608-8.575-27.984-14.876-43.369-14.876
		c-35.533,0-68.053,26.218-68.053,65.027c0,39.835,28.735,67.56,65.286,67.56c16.634,0,35.543-6.558,45.368-16.126L804.848,176.159z
		"/>
	<polygon fill="#C88F49" points="667.728,18.106 656.134,31.215 667.728,44.316 679.325,31.215 	"/>
	<polygon fill="#C88F49" points="676.301,200.602 676.301,71.04 661.684,74.057 661.684,203.628 	"/>
	<path fill="#C88F49" d="M611.516,21.131v74.861h-0.501c-12.348-14.109-29.499-24.952-50.168-24.952
		c-36.541,0-65.536,28.743-65.536,65.793c0,39.827,29.242,66.795,66.043,66.795c20.668,0,40.079-11.592,49.66-24.201h0.501v24.201
		l14.634-3.025V18.106L611.516,21.131z M560.607,189.01c-30.51,0-50.668-22.691-50.668-52.177c0-25.209,20.158-51.175,50.158-51.175
		c27.733,0,51.419,19.158,51.419,51.926C611.516,165.059,588.832,189.01,560.607,189.01z"/>
	<path fill="#C88F49" d="M386.423,159.517l96.29-58.985C475.147,85.916,456,71.04,432.799,71.04
		c-37.801,0-66.043,26.467-66.043,64.785c0,38.31,26.472,67.802,65.539,67.802c15.633,0,35.8-6.808,46.894-17.9v-17.643
		c-13.62,11.342-29.497,20.925-47.901,20.925C407.852,189.01,391.469,171.11,386.423,159.517z M382.389,146.41
		c-0.751-3.284-1.009-7.058-1.009-10.343c0-28.476,21.676-50.41,51.419-50.41c11.601,0,21.179,4.793,26.976,11.092L382.389,146.41z"
		/>
	<path fill="#C88F49" d="M263.156,200.602v-81.919c0-24.45,23.7-34.534,37.564-34.534c20.163,0,32.009,9.826,32.009,28.226v138.261
		l15.754-2.016V115.659c0-35.042-23.821-44.619-48.267-44.619c-15.376,0-29.743,9.577-36.556,20.919h-0.504V71.04l-14.616,3.017
		V202.62L263.156,200.602z"/>
	<path fill="#C88F49" d="M134.353,159.517l96.29-58.985c-7.563-14.616-26.717-29.492-49.906-29.492
		c-37.814,0-66.043,26.467-66.043,64.785c0,38.31,26.459,67.802,65.54,67.802c15.626,0,35.785-6.808,46.88-17.9v-17.643
		c-13.608,11.342-29.489,20.925-47.89,20.925C155.779,189.01,139.396,171.11,134.353,159.517z M130.315,146.41
		c-0.749-3.284-1.008-7.058-1.008-10.343c0-28.476,21.685-50.41,51.43-50.41c11.588,0,21.171,4.793,26.968,11.092L130.315,146.41z"
		/>
	<path fill="#C88F49" d="M70.077,111.125c14.616-7.309,22.684-19.667,22.684-38.067c0-31.51-19.409-45.377-48.898-45.377H0v172.921
		h43.359c36.796,0,54.446-16.892,54.446-46.884C97.806,132.8,88.985,120.442,70.077,111.125z M15.626,43.306h30.255
		c17.383,0,31.25,10.593,31.25,30.002c0,19.659-12.6,31.758-37.804,31.758h-23.7V43.306z M42.093,184.977H15.626v-64.285h31.513
		c21.675,0,33.521,13.875,33.521,33.027C80.66,170.352,73.102,184.977,42.093,184.977z"/>
	<path fill="#784736" d="M852.606,229.955l-14.618,3.024v129.571l14.618-3.027v-63.524c0-31.762,19.41-51.419,35.293-51.419
		c2.016,0,4.285,0,5.8,0.257L900,229.955c-23.442,0-37.819,6.558-46.884,28.241h-0.51V229.955z"/>
	<path fill="#784736" d="M724.06,318.439l96.287-58.985c-7.566-14.618-26.725-29.499-49.917-29.499
		c-37.809,0-66.033,26.475-66.033,64.785c0,38.317,26.465,67.809,65.533,67.809c15.635,0,35.8-6.808,46.883-17.901v-17.642
		c-13.607,11.344-29.489,20.925-47.892,20.925C745.479,347.932,729.096,330.033,724.06,318.439z M720.028,305.33
		c-0.767-3.281-1.018-7.058-1.018-10.339c0-28.478,21.686-50.411,51.419-50.411c11.601,0,21.176,4.783,26.982,11.093L720.028,305.33
		z"/>
	<path fill="#784736" d="M532.991,359.522V281.13c0-22.934,10.833-38.06,33.517-38.06c15.633,0,26.716,11.093,26.716,27.217v91.254
		l14.624-2.019V281.13c0-22.934,10.843-38.06,33.527-38.06c15.633,0,26.716,11.093,26.716,27.217v91.254l14.618-2.019v-92.259
		c0-26.218-19.15-37.309-42.351-37.309c-13.857,0-27.467,8.067-36.034,20.925c-9.331-14.111-16.89-20.925-37.052-20.925
		c-11.848,0-27.984,9.074-33.784,21.683h-0.497v-21.683l-14.628,3.024v128.563L532.991,359.522z"/>
	<path fill="#784736" d="M432.412,229.955c-37.309,0-64.785,32.266-64.785,66.3c0,34.025,27.477,66.294,64.785,66.294
		s64.776-32.269,64.776-66.294C497.188,262.221,469.721,229.955,432.412,229.955z M432.412,347.932
		c-28.488,0-50.164-24.71-50.164-51.676c0-26.976,21.677-51.676,50.164-51.676c28.481,0,50.161,24.7,50.161,51.676
		C482.573,323.222,460.894,347.932,432.412,347.932z"/>
	<polygon fill="#784736" points="233.527,408.659 233.527,328.749 332.846,328.749 332.846,410.675 348.472,408.659 
		348.472,231.704 332.846,235.746 332.846,313.133 233.527,313.133 233.527,231.704 217.907,235.746 217.907,410.675 	"/>
	<path fill="#784736" d="M260.729,53.532c0,0,1.506-36.919,35.398-49.441c33.898-12.539,67.266,7.746,67.266,7.746
		s-11.165,22.98-27.35,29.164c-9.541,3.65-18.323,5.918-26.111,1.367c-7.779-4.557-25.503-18.376-35.899-7.065
		c-7.532,8.2-10.037,17.775-10.037,17.775L260.729,53.532z"/>
</g>
<g>
</g>
<g>
</g>
<g>
</g>
<g>
</g>
<g>
</g>
<g>
</g>
</svg>
