<?xml version="1.0" encoding="utf-8"?>
<!-- Generator: Adobe Illustrator 22.0.1, SVG Export Plug-In . SVG Version: 6.00 Build 0)  -->
<svg version="1.1" id="Layer_1" xmlns="http://www.w3.org/2000/svg" xmlns:xlink="http://www.w3.org/1999/xlink" x="0px" y="0px"
	 width="100px" height="100px" viewBox="0 0 100 100" style="enable-background:new 0 0 100 100;" xml:space="preserve">
<path d="M39.8,100c-0.5,0-1.3-0.1-2-0.4c-2.2-0.8-3.7-3-3.7-5.4V75.5c0-0.5,0.2-0.9,0.5-1.3L63.2,39L26.9,70.5
	c-0.6,0.5-1.4,0.6-2.1,0.3L3.6,62.1c-2-0.8-3.4-2.7-3.6-4.9c-0.1-2.3,1-4.3,2.9-5.4l88.5-51c1.8-1.1,4.4-1,6.2,0.2
	c1.9,1.3,2.8,3.5,2.4,5.7l0,0L86.3,88.4c-0.3,1.7-1.3,3.1-2.8,4c-0.9,0.5-1.9,0.8-2.8,0.8c-0.7,0-1.4-0.1-2.1-0.4L56,83.6L44.2,97.9
	C43.2,99.2,41.6,100,39.8,100z M38.8,76.5v17.7c0,0.4,0.3,0.8,0.7,1l0.1,0c0,0,0.1,0,0.2,0c0.2,0,0.5,0,0.8-0.3l14-17.1l25.7,10.5
	c0.2,0.1,0.3,0.1,0.4,0.1c0.2,0,0.4,0,0.5-0.1c0.1-0.1,0.5-0.3,0.5-0.7L95.3,6c0.1-0.4-0.1-0.8-0.5-1.1c-0.1-0.1-0.6-0.2-1,0
	L5.3,55.9c-0.3,0.2-0.5,0.6-0.5,1c0,0.3,0.3,0.7,0.6,0.8L25,65.8l54.4-47c0.8-0.7,2-0.6,2.7,0.1l0.8,0.7c0.7,0.7,0.8,1.9,0.2,2.7
	L38.8,76.5z"/>
</svg>
