<svg xmlns="http://www.w3.org/2000/svg" width="213.4" height="63.3">
  <path fill="#020203" d="M18.1 40.1l-5.6 16.7c-.2 1.2.1 2.2.8 2.9 1.1 1.1 2.7 1.7 4.9 1.7v.4H0v-.4c3.8-.3 6.2-1.6 7-4L26.3 0 50 57.7c.8 2.2 3 3.4 6.3 3.7l.1.4H37.7v-.4c2 0 3.4-.5 4.3-1.6.5-.4.6-1.2.4-2.2l-7.2-17.5H18.1zm1.2-3.7h14.3L25.9 17l-6.6 19.4zM174.9 5.2v-.3c12.7 0 20.8.2 24.3.6 2.9.3 5.5 1.4 8 3.3 2.5 1.8 4.2 4.1 5.2 6.8.6 1.8 1 3.6 1 5.6 0 4.1-1.2 7.5-3.7 10.3a14.8 14.8 0 0 1-15.9 4.5c-1.2-.4-1.8-.8-1.8-1.2 3 .1 5 0 6.2-.3 2-.5 3.8-1.6 5.5-3.3 1.7-1.7 2.8-3.6 3.1-5.6a14 14 0 0 0-6.5-15 13.1 13.1 0 0 0-7.4-2.1c-1.6 0-3.1.3-4.5.8v47.1c0 2.8 1.9 4.5 5.8 5.1v.4h-19v-.4c2.7-.4 4.6-1.4 5.6-3.2.3-.7.5-2.8.5-6.5v-42c0-2.3-1.4-3.7-4.3-4.3a26 26 0 0 0-2.1-.3zm-93.1-.3c3.1 0 6.1 1 8.9 2.9a15.7 15.7 0 0 1 7.1 13.5c0 4.2-1.3 7.6-3.8 10.3a20.3 20.3 0 0 1-4.7 3.7 977 977 0 0 0 17.3 20.9c2.5 3 5.9 4.5 10.2 4.4l.1.3a13.5 13.5 0 0 1-13.1-.6 44.2 44.2 0 0 1-10.1-9.9L85 39.2c-1.8-2-3.9-3.3-6.3-3.7v-.3c4.5.4 8-.9 10.6-4 1.7-2.1 2.6-4.8 2.6-8 0-1.7-.2-3.2-.7-4.7a14 14 0 0 0-4.4-6.2A12.8 12.8 0 0 0 80 9.2c-2.6-.4-4.8-.2-6.4.5V57c.1 1.1.8 2.2 1.9 3 .9.8 2 1.3 3.2 1.5l1.6.2v.4H60.5v-.4c3-.4 5-1.5 5.9-3.4l.3-1.6V10c0-2-1.1-3.4-3.4-4.2-.9-.3-2.1-.4-3.5-.6v-.3h22zm84.3.3c-4 .6-6.1 1.9-6.4 4v35.6c-.3 3.4-1.5 6.6-3.6 9.6s-4.8 5.3-7.9 6.9c-2.6 1.3-5.6 2-9 2a20 20 0 0 1-11-3 19.5 19.5 0 0 1-9.6-17.4V9.7c0-1.7-1-3-3-3.9l-3.3-.6v-.4h19.5v.3c-3.7.3-5.8 1.6-6.3 4v35.4a14 14 0 0 0 7.1 12.7 14 14 0 0 0 7.5 2c3.6 0 6.9-1.3 9.8-3.9 2.9-2.6 4.4-5.7 4.5-9.4l.1-6.6V10.1c0-1.9-1.1-3.2-3.2-4.1-.4-.2-1.5-.4-3.3-.8v-.4h18.1v.4z"/>
</svg>
