<svg xmlns="http://www.w3.org/2000/svg" width="186.7" height="51.3">
  <path d="M11.9 18.4h10.3c4.6 0 12.7 1.9 12.7 9.1 0 6.6-4 9.4-10.3 9.4h-8.4c-3.8 0-4.3-1.3-4.3-7.3V18.4zm0-16.9h9.9c6.5 0 10 3.1 10 7.3 0 4.9-3.9 8.1-12.4 8.1H12V1.5zm-7 30.1c0 3.7-1.3 5.5-3.8 6.2-.6.2-1.1.2-1.1.5 0 .1.3.2 1.6.2l2.8-.1h7.9l10.8.2c1.6 0 4.1-.1 6.4-.4 5.6-.6 13.3-3 13.3-10.1 0-8-10-10.5-16.5-10.6v-.1c5.3-.5 12.9-2.1 12.9-8.9 0-7-10-8.6-15.7-8.6H2.9c-.6.1-1.3.2-1.3.4 0 .3.4.4 1 .6C4.9 1.7 5 3.4 5 6.7v24.9zm175.4-10.7a35.4 35.4 0 0 1 6.4-8.9c0-.2-.2-.2-.7-.2s-2 .2-4.2.2c-2.4 0-3.7-.2-4.3-.2-.4 0-.7 0-.7.2 0 .3.2.4.5.5 1.5.4 2.5 1.4 2.5 3.3 0 2.1-1.6 5.7-3.4 9.3l-4.9 9.4-8.1-15.1c-.5-.9-1.7-3.5-1.7-4.8 0-1.9 1.1-2 2.1-2.4.2-.1.3-.1.3-.3 0-.2-.3-.2-.8-.2-1.8 0-2.4.2-5.1.2-2.9 0-3.6-.2-5.3-.2-.4 0-.8 0-.8.2s.1.2.3.3c1.9.9 2.7 2.5 3.6 4.1l8.2 16.4c1.2 2.4 2.9 5.9 2.9 8.1 0 3.1-1.9 6.7-5.4 6.7-1.5 0-3.4-.4-4-2l-.2-.2c-.2 0-.3.6-.5 1.3l-1.7 4.7c3.6.1 6.2-.5 8.4-2.1 2.8-2 5-6 6.6-9.2l10-19.1zm-121.5 2c0 3.7-1.4 8.5-5.9 8.5-2.7 0-4.8-2-4.8-4.9 0-5.1 4.3-6.3 8.4-6.3h2.3v2.7zm4-5.3c0-4.9-4.6-6.4-9-6.4-3.4 0-5.9.3-9.1 1.9l1 3.5.2.4.3-.7c1.4-3.4 3.5-4.4 7-4.4 3.9 0 5.6 2.6 5.6 6.3v1.3h-2.2c-4 0-13 .6-13 6.4 0 4.6 4.1 6.4 8.1 6.4 3.4 0 5.6-1.4 7.1-4.5h.2c.1 1.3.4 2.7.9 3.9h4.2c.3 0 .5 0 .5-.2l-.4-.2c-1.2-.5-1.4-1.7-1.4-3V17.6zm10.1-6c-1.6.6-3.2 1-5 1.3-.3.1-.8 0-.8.2l.6.3c1.4.3 1.5 1.7 1.5 4.4V27c0 3.2-.3 4-2.1 4.7-.3 0-.4.1-.4.2l.3.1 4.1-.1 4.3.1.3-.1c0-.1-.1-.2-.4-.2-2-.4-2.2-2.2-2.2-4.6V20c0-2.5 1.5-5.3 3.7-5.3.8 0 1.7.1 2.4.6l1.6-4c-3.6-.2-6.3 2.2-7.8 5.4h-.1v-5.1zm14.4 0c-1.4.5-3 .8-4.9 1.1l-.7.2.7.4c1.1.5 1.4 1.8 1.4 4.1V27c0 2.4-.2 4.2-2.1 4.6-.3 0-.4.1-.4.2 0 .2.1.2.3.2l4.1-.1 3.9.1c.2 0 .3 0 .3-.2l-.4-.2c-1.7-.3-1.9-2.1-1.9-4.6v-4.7c0-5.4 1.5-10.1 6.1-10.1 4.1 0 5.7 3.8 5.7 7.3V27c0 3.4-.7 4.5-2.1 4.6-.3 0-.3.2-.3.2l.4.1 4-.1 3.5.1.6-.1-.5-.3c-1.1-.4-1.6-.9-1.5-4.6v-7.4c0-6.1-4-8.3-8.2-8.3-5.1 0-7 2.7-7.9 6h-.1v-5.6zm37.9 1a22 22 0 0 0-7.2-1.5c-4.2 0-10.1 1.2-10.1 6.5 0 4.3 4.5 5.4 7.9 5.7 4.5.4 6.8.8 6.8 3.7 0 3.5-3.7 4.6-6.7 4.6-2.7 0-7.3-1.3-7.9-4.4 0-.2-.1-.3-.2-.3l-.3.7-.8 3.2c2.9 1.1 6 1.5 9.1 1.5 4.4 0 10.8-1.3 10.8-6.8 0-3.7-2.5-5.1-7.9-5.5-3.5-.2-6.9-.8-6.9-3.5 0-3.3 2.7-4.6 5.6-4.6 3.2 0 5.9 1.6 6.2 3.8 0 .2.2.3.3.3.2 0 .2-.2.3-.5l1-2.9zm9.2 9.2c0-8.1 4.2-9.6 6.8-9.6 2.5 0 6.7 1.5 6.7 9.6s-4.2 9.6-6.7 9.6c-2.6 0-6.8-1.5-6.8-9.6zm-.1-17.9a57 57 0 0 1-5.9 1.5l.6.3c1.1.3 1.3 1.8 1.3 2.9v19.2c0 1.8-.5 3-2.1 3.6-.2.1-.2.2-.2.3 0 .2.6.2 1.2.2h3.6a9.3 9.3 0 0 0 1.3-3.6 9 9 0 0 0 8.2 4.2c5.6 0 10-5.1 10-10.6 0-6.7-5.5-10.6-10-10.6-4.2 0-6.5 1.6-7.9 4.9h-.1V3.9z"/>
</svg>
