<svg xmlns="http://www.w3.org/2000/svg" width="154.8" height="48.9">
  <path d="M64.4 17.3h1.7c3.2 0 4.3 1.7 4.3 3.9 0 1.8-.6 3.7-1.8 4.8a6.2 6.2 0 0 1-4.6 1.7l-1.7-.1 2.1-10.3m-3.8 11.6l3.1.2c2.5 0 4.4-.6 5.8-1.8a8.4 8.4 0 0 0 2.6-6.1c0-1.6-.5-2.8-1.2-3.5-.9-1.1-2.6-1.7-4.8-1.7H63l-2.4 12.9zm19.1-7c0 1.4-1.9 1.8-4.4 1.7.4-1.5 1.5-2.9 3-2.9.8.1 1.4.5 1.4 1.2m.1 5.4c-.6.3-1.4.6-2.5.6-1 0-1.7-.4-2.1-1.2-.2-.5-.2-1.4-.2-1.8 3.4.1 6.2-.6 6.2-3 0-1.3-1-2.4-2.7-2.4-3 0-5 3.2-5 5.9 0 2 1.1 3.7 3.5 3.7 1.2 0 2.4-.3 3.1-.7l-.3-1.1zm4.4-2.5c.5-2.6 2-4 3.3-4 1.4 0 1.8 1.2 1.8 2.1 0 2.4-1.7 5-3.7 5a3 3 0 0 1-1.8-.5l.4-2.6m-1.5 8l.7-4c.4.2 1 .4 2 .4 3.1 0 5.4-3.1 5.4-6.3 0-1.7-.8-3.3-2.8-3.3a4 4 0 0 0-3.3 1.9l.2-1.8h-1.5l-.5 3.3-1.9 9.7h1.7zm16-9.1c-.4 2.5-2 4.2-3.3 4.2-1.2 0-1.6-1-1.6-2 0-2.6 2-5.1 4.4-5.1l1.1.1-.6 2.8m1 5.3c0-1 .1-2.7.4-4.3l.9-4.8a9 9 0 0 0-2.5-.3c-4 0-6.4 3.4-6.4 6.6 0 1.8 1 3.1 2.7 3.1 1.3 0 2.6-.7 3.6-2.6l-.2 2.4h1.5zm2.4 0l1.1-6 .5-3.3h1.4l-.2 2h.1c.6-1.3 1.6-2.2 2.8-2.2h.5l-.3 1.6h-.4c-1.4 0-2.6 1.7-3 3.8l-.8 4.1h-1.7m12.8 0l1.2-6.6.4-2.7h1.4l-.2 1.7h.1c.9-1.3 2-1.9 3.2-1.9 1.4 0 2.1.9 2.2 2.1.8-1.3 2-2 3.4-2.1 1.1 0 2.3.7 2.3 2.4l-.2 1.6-1 5.5h-1.5l1-5.3.1-1.2c0-1-.4-1.6-1.4-1.6-1.1 0-2.5 1.3-2.9 3.4l-1 4.7h-1.5l1-5.4.1-1.1c0-.8-.2-1.6-1.4-1.6s-2.6 1.5-3 3.5l-.9 4.6h-1.4m21.7-7.1c0 1.4-1.9 1.8-4.4 1.7.4-1.5 1.5-2.9 3-2.9.9.1 1.4.5 1.4 1.2m.2 5.4c-.6.3-1.4.6-2.5.6-1 0-1.7-.4-2.1-1.2-.2-.5-.3-1.4-.2-1.8 3.4.1 6.2-.6 6.2-3 0-1.3-1-2.4-2.7-2.4-3 0-5 3.2-5 5.9 0 2 1.1 3.7 3.5 3.7 1.2 0 2.4-.3 3.1-.7l-.3-1.1zM139 29l1.2-6.6.4-2.7h1.4l-.2 1.8a4 4 0 0 1 3.4-2c1.1 0 2.3.6 2.3 2.6l-.2 1.5-1 5.4h-1.6l1-5.4.1-1.2c0-.9-.4-1.6-1.5-1.6s-2.7 1.4-3.2 3.7l-.8 4.5H139m-26-12.5l-.7 3.2h2.2l-.2 1.2h-2.2l-.8 4.5-.2 1.5c0 .6.3.9.9.9l.7-.1-.1 1.2-1.2.2c-1.4 0-1.9-.8-1.9-1.8l.2-1.7.9-4.7h-1.3l.2-1.2h1.3l.6-2.7 1.6-.5m40.2 0l-.7 3.2h2.2l-.2 1.2h-2.2l-.8 4.5-.2 1.5c0 .6.3.9.9.9l.7-.1-.1 1.2-1.2.2c-1.4 0-2-.8-2-1.8l.2-1.7.9-4.7h-1.3l.2-1.2h1.3l.6-2.7 1.7-.5M61.6 47.7c-1.3 0-2.2-1.1-2.2-2.6 0-2.1 1.3-4.5 3.3-4.5 1.7 0 2.2 1.5 2.2 2.6 0 2.1-1.4 4.5-3.3 4.5m-.2 1.2c3.1 0 5.1-3 5.1-5.8 0-1.9-1.1-3.8-3.6-3.8-3 0-5.1 2.8-5.1 5.9 0 2 1.3 3.7 3.6 3.7zm6.5-.2l1.5-8h-1.2l.2-1.2h1.2l.1-.5c.2-1.3.7-2.5 1.5-3.2.6-.5 1.4-.8 2.2-.8a3 3 0 0 1 1.3.2l-.3 1.3-.9-.2c-1.3 0-1.9 1.2-2.1 2.8l-.1.4h2.1l-.4 1.2h-2l-1.5 8h-1.6m14.5-13.6l-1.1 5.8h5.9l1.1-5.8h1.6l-2.6 13.6h-1.6l1.2-6.4H81l-1.2 6.4h-1.6l2.6-13.6h1.6m14 6.6c0 1.4-1.9 1.8-4.4 1.7.4-1.5 1.5-2.9 3-2.9.8 0 1.4.4 1.4 1.2m.1 5.3c-.6.3-1.4.6-2.5.6-1 0-1.7-.4-2.1-1.2-.2-.5-.3-1.4-.2-1.8 3.4.1 6.2-.6 6.2-3 0-1.3-1-2.4-2.7-2.4-3 0-5 3.2-5 5.9 0 2 1.1 3.7 3.5 3.7 1.2 0 2.4-.3 3.1-.7l-.3-1.1zm8.8-3.6c-.4 2.5-2 4.2-3.3 4.2-1.2 0-1.6-1-1.6-2 0-2.6 2-5.1 4.4-5.1l1.1.1-.6 2.8m1 5.3c0-1 .1-2.7.4-4.3l.9-4.8a9 9 0 0 0-2.5-.3c-4 0-6.4 3.4-6.4 6.6 0 1.8 1 3.1 2.7 3.1 1.3 0 2.6-.7 3.6-2.6l-.2 2.4h1.5zm2.3 0l2.5-13.6h1.6l-2.6 13.6h-1.5m8.7-12.4l-.7 3.2h2.2l-.2 1.2h-2.2l-.8 4.5-.2 1.5c0 .6.3.9.9.9l.7-.1-.1 1.2-1.2.2c-1.4 0-1.9-.8-1.9-1.8l.2-1.7.9-4.7h-1.3l.2-1.2h1.3l.6-2.7 1.6-.5m1.7 12.4l2.6-13.6h1.6l-1.1 5.9a4 4 0 0 1 3.3-1.8c1.1 0 2.3.6 2.3 2.5l-.2 1.5-1 5.4h-1.6l1-5.4.1-1.3c0-.8-.4-1.5-1.4-1.5-1.2 0-2.8 1.4-3.2 3.5l-.9 4.6H119m-101.6-16h-5.5l2-12.6.2-2.4c0-.5-.2-1-.7-1.5h6.5c3.9 0 6.3 2.7 6.3 6.9 0 4.7-2.7 9.6-8.8 9.6m1.8-13.7h-1.5L16 29.7h1.5c3 0 4.9-2.6 4.9-6.8 0-2.3-.6-4.1-3.2-4.1zm21.4 9.8l-.2 2.4c0 .5.2 1 .7 1.5h-4.7l1.1-7.1h-5.2l-.5 3.2-.2 2.4c0 .5.2 1 .7 1.5h-4.7l2-12.6.2-2.4c0-.5-.2-1-.7-1.5h4.7l-1 6.5H38l.4-2.6.2-2.4c0-.5-.2-1-.7-1.5h4.7l-2 12.6"/>
  <path d="M44.8 40.8c9.3-7.9 13-19.8 8.2-29.3C47.7 1 33.8-2.8 20.8 2.1v.1h.1a23.8 23.8 0 0 1 23.4 9.1c7.2 9.2 7.2 21.7.5 29.5-.1-.1-.1-.1 0 0-.1 0 0 0 0 0M10.3 8.2C1 16.1-2.7 28 2.1 37.4c5.3 10.4 19.2 14.2 32.2 9.4v-.1h-.1a23.8 23.8 0 0 1-23.4-9.1c-7.2-9.2-7.2-21.7-.5-29.4.1 0 .1 0 0 0 .1 0 .1-.1 0 0"/>
</svg>
