<svg xmlns="http://www.w3.org/2000/svg" width="75.1" height="103.8">
  <path d="M51.3 79.7a832 832 0 0 0 1.4-5.7c-2.2.8-4 1.3-6.2 1.7-24.3 4.8-38-2.1-41.4-17.3a27 27 0 0 1 1-13.9c5.5-17 21.1-27.5 43.4-27.6h3.4l22.1.9V0H0v87.7h47.6c1.7-2.5 2.9-5.1 3.7-8z"/>
  <path d="M61.6 39.4l.4-.2c.6-.3 1-1 1-1.8 0-.9-.4-1.5-1-1.8l-.4-.2c-1.2-.3-2.3.6-2.3 2-.1 1.4 1 2.3 2.3 2zm5.7-3.2c0-.5-.4-.8-1-.8h-.7v1.8h.7c.6-.1 1-.5 1-1zM43.8 54l-.4-.2c-1.2-.3-2.3.6-2.3 2s1.1 2.3 2.3 2l.4-.2c.6-.3 1-1 1-1.8 0-.9-.4-1.5-1-1.8zm16.3-7.4c0-1.4-.9-2.2-2.2-2.2h-.8v4.5h.9c1.3 0 2.1-.9 2.1-2.3zm5-2.2h-.8v4.5h.9c1.2 0 2.1-.8 2.1-2.3 0-1.4-.9-2.2-2.2-2.2z"/>
  <path d="M71.6 26l-.2 1c-3.3-4.4-8.3-6.8-17.1-7.5-19-1.3-33.9 8-39.8 24.3-.6 1.5-1 3-1.3 4.6-3.9 18.2 10 29.8 28.9 25.4 3.6-.9 7.1-2.2 10.6-3.9l9.6-6-3.7 15c-.8 3.2-2.5 6.2-4.8 8.7H75V20.1a13.5 13.5 0 0 0-3.4 5.9zm-6.8 8.8h1.7c.7 0 1.3.4 1.5 1 .2.7-.1 1.4-.6 1.6l-.2.1.4.3.1.2.1.1.6 1.1.5.8H68l-.4-.6-.7-1.2c-.3-.4-.5-.5-.8-.5h-.5V40h-.8v-5.2zm-3.7-.1c1.2 0 2.2.8 2.5 1.9.5 1.9-.7 3.5-2.5 3.5-1.5 0-2.6-1.1-2.6-2.7s1.1-2.7 2.6-2.7zm.6 10.9c.7 2.4-.9 4.5-3.3 4.5h-2.9v-7h2.8c1.6 0 3 1 3.4 2.5zm-8.8-9c.4-1.5 2.1-2.3 4-1.7l.2.1v.7l-.3-.1c-1.6-.6-2.9 0-3.2 1.2-.4 1.6.7 2.8 2.3 2.6l.4-.1h.1V38h-.8v-.6h1.6v2.3l-.6.2-.5.1c-2.3.3-3.8-1.3-3.2-3.4zm1.6 9.4v1.2h-2.6v1.7h2.8v1.2h-4.5v-7h4.4v1.2h-2.7V46h2.6zM47 34.8h.7l3.1 3.9.1.2v.1-4.2h.8V40H51l-3.1-3.9-.1-.3V40H47v-5.2zm2.3 8.3v7h-1.5l-3.5-4.2a.8.8 0 0 1-.2-.5v4.7h-1.7v-7H44l3.4 4.2.2.4v.1-4.7h1.7zm-6.6-8.3l1.2 1.7.1.3v-.1l.1-.2 1.3-1.7h.9l-1.9 2.5V40h-.8v-2.7l-1.9-2.5h1zm-5.6 1.9c.4-1.6 2.2-2.4 4-1.6l.2.1v.7l-.2-.1c-1.5-.7-2.9-.1-3.3 1.1-.4 1.5.5 2.7 2 2.6.5 0 .9-.1 1.3-.3l.2-.1v.7c-.5.3-1.1.4-1.7.4-1.8-.1-3.1-1.6-2.5-3.5zM24.8 49.9l-1 .2-.7.1c-3.4.3-5.2-1.8-4.5-4.6.6-2 2.8-3.2 5.6-2.2l.3.1v1.4l-.4-.2-1-.3c-1.8-.3-3 .8-3 2.3 0 1.4 1 2.4 2.6 2.3h.5v-1.1h-.9v-1.2h2.5v3.2zm14.6 8.2c-.5.3-1.1.4-1.7.4-1.9 0-3.1-1.5-2.6-3.4.4-1.6 2.2-2.4 4-1.6l.2.1v.7l-.2-.1c-1.5-.7-2.9-.1-3.3 1.1-.4 1.5.5 2.7 2 2.6.5 0 .9-.1 1.3-.3l.2-.1v.6zm.3-8H38v-3.3l-2.2-3.2-2.5 6.6h-1l-1.5-4.4-.1-.5v-.2.3l-.1.3-1.6 4.4h-1l-2.7-7h1.8l1.4 3.9.1.5v-.2l.1-.3 1.3-3.8h1.4l1.3 3.8.1.5v.2l.1-.4.1-.3 1.4-3.9h3.3l1.2 1.9.2.4v.2l.1-.4.1-.3 1.2-1.9h1.9l-2.6 3.7v3.4zm3.2 8.4c-1.5 0-2.6-1.1-2.6-2.7s1.1-2.7 2.6-2.7c1.2 0 2.2.8 2.5 1.9.5 1.9-.7 3.5-2.5 3.5zm8.2-2.2c0 1.3-.8 2.1-2.2 2.1-1.4 0-2.2-.8-2.2-2.1v-3.2h.8v3.1c0 .9.6 1.5 1.5 1.5s1.5-.6 1.5-1.5v-3.1h.8v3.2zm6 2.1h-.7l-3.1-3.9-.1-.3v4.2h-.8v-5.2h.7l3.1 3.9.1.2v.1-4.2h.8v5.2zm5.5-.3c-.5.3-1.1.4-1.7.4-1.9 0-3.1-1.5-2.6-3.4.4-1.6 2.2-2.4 4-1.6l.2.1v.7l-.2-.1c-1.5-.7-2.9-.1-3.3 1.1-.4 1.5.5 2.7 2 2.6.5 0 .9-.1 1.3-.3l.2-.1v.6zm1.9.3h-.8v-5.2h.8v5.2zm4.4 0h-3.2v-5.2h.8v4.6h2.4v.6zm-3.4-8.3h-2.9v-7h2.8c1.6 0 2.9 1 3.4 2.5.8 2.4-.8 4.5-3.3 4.5zM48.1 92.2a23.4 23.4 0 0 1-8.9 3.4l1.1-.8c2-1.5 3.8-3 5.2-4.6H0v13.6h75.1V90.2H51c-.9.7-1.8 1.4-2.9 2z"/>
</svg>
