<svg xmlns="http://www.w3.org/2000/svg" width="132" height="63.3">
  <path d="M0 6.3v50.6c0 3.4 2.9 6.3 6.3 6.3s6.3-2.9 6.3-6.3V6.3C12.6 2.9 9.7 0 6.3 0A6.4 6.4 0 0 0 0 6.3M96 0c-4.6 0-8.2 2.2-11 8.6L70 40.7 66.4 48c0 .2-.2.4-.4.4a.4.4 0 0 1-.4-.4L62 40.7l-15-32C44.3 2.1 40.5 0 36.2 0c-6 0-10.8 4.9-10.8 10.8V57c0 3.5 2.9 6.3 6.3 6.3S38 60.5 38 57V18.2c0-.4.2-.5.5-.5l.4.1 10.6 22.7 8.1 17a9 9 0 0 0 8.3 5.6 9 9 0 0 0 8.3-5.6l8.1-17L93 17.8l.3-.1c.4 0 .6.1.6.5v38.7c0 3.5 2.8 6.3 6.3 6.3 3.4 0 6.3-2.8 6.3-6.3V11C106.8 5 102 .1 96 .1m23.2 6.2v50.6c0 3.4 3 6.3 6.4 6.3 3.4 0 6.3-2.9 6.3-6.3V6.3c0-3.4-3-6.3-6.3-6.3a6.4 6.4 0 0 0-6.4 6.3"/>
</svg>
