<?xml version="1.0" encoding="utf-8"?>
<!-- Generator: Adobe Illustrator 22.0.1, SVG Export Plug-In . SVG Version: 6.00 Build 0)  -->
<svg version="1.1" id="Layer_1" xmlns="http://www.w3.org/2000/svg" xmlns:xlink="http://www.w3.org/1999/xlink" x="0px" y="0px"
	 width="127px" height="64.9px" viewBox="0 0 127 64.9" style="enable-background:new 0 0 127 64.9;" xml:space="preserve">
<style type="text/css">
	.st0{fill:#FFFFFF;}
</style>
<g>
	<path class="st0" d="M80.5,56.8c-0.8,3.2-3.2,4.5-7.1,4.5c-2.7,0-5.1-0.5-6.3-1.8c-1.3-1.3-1.5-3.1-1.5-5v-9.4h3v9.3
		c0,2.1,0.2,3.3,1,4.3c0.9,1.1,2.5,1.4,3.9,1.4c2.9,0,4.8-0.9,5.3-3.4c0.1-0.6,0.2-1.3,0.2-2.4v-9.1h1.9v8.5
		C80.8,55.1,80.7,56,80.5,56.8"/>
	<path class="st0" d="M80.5,56.8c-0.8,3.2-3.2,4.5-7.1,4.5c-2.7,0-5.1-0.5-6.3-1.8c-1.3-1.3-1.5-3.1-1.5-5v-9.4h3v9.3
		c0,2.1,0.2,3.3,1,4.3c0.9,1.1,2.5,1.4,3.9,1.4c2.9,0,4.8-0.9,5.3-3.4c0.1-0.6,0.2-1.3,0.2-2.4v-9.1h1.9v8.5
		C80.8,55.1,80.7,56,80.5,56.8"/>
	<path class="st0" d="M95.9,48.1l-3.5,7.3h6.9L95.9,48.1 M101.7,61l-2-4.5h-7.9L89.7,61h-1.9l7.9-15.9h1.9l7.8,15.9H101.7z"/>
	<path class="st0" d="M95.9,48.1l-3.5,7.3h6.9L95.9,48.1 M101.7,61l-2-4.5h-7.9L89.7,61h-1.9l7.9-15.9h1.9l7.8,15.9H101.7z"/>
	<path class="st0" d="M23.5,48.1L20,55.4h6.9L23.5,48.1 M29.4,61l-2-4.5h-7.9L17.4,61h-1.9l7.9-15.9h1.9L33,61H29.4z"/>
	<path class="st0" d="M23.5,48.1L20,55.4h6.9L23.5,48.1 M29.4,61l-2-4.5h-7.9L17.4,61h-1.9l7.9-15.9h1.9L33,61H29.4z"/>
	<path class="st0" d="M49.6,61.3c-5.2,0-10.2-1.8-10.2-7.9c0-2,0.9-4,2.2-5.5c2.1-2.3,5.2-3.2,8.2-3.2c1.8,0,3.9,0.4,5.5,1.2v1.9
		C53.8,46.8,51.9,46,50,46c-4.3,0-7.3,2.7-7.3,7.2c0,4,2.6,6.8,6.7,6.8c1,0,2.5-0.2,3.4-0.6v-5.8h3v6.5C54,60.9,51.5,61.3,49.6,61.3
		"/>
	<path class="st0" d="M49.6,61.3c-5.2,0-10.2-1.8-10.2-7.9c0-2,0.9-4,2.2-5.5c2.1-2.3,5.2-3.2,8.2-3.2c1.8,0,3.9,0.4,5.5,1.2v1.9
		C53.8,46.8,51.9,46,50,46c-4.3,0-7.3,2.7-7.3,7.2c0,4,2.6,6.8,6.7,6.8c1,0,2.5-0.2,3.4-0.6v-5.8h3v6.5C54,60.9,51.5,61.3,49.6,61.3
		"/>
	<path class="st0" d="M118.4,46.2h-2.2v7.6h2c1.6,0,2.6-0.3,3.4-0.9c0.8-0.6,1.3-1.6,1.3-3C122.7,47.2,120.8,46.2,118.4,46.2
		 M123.5,61l-4.2-6.1h-3.2V61h-3V45.1h5.7c2.3,0,4.7,0.3,6,1.8c0.7,0.8,1,1.8,1,3.1c0,2.5-1.9,3.9-3.5,4.5L127,61L123.5,61L123.5,61
		z"/>
	<path class="st0" d="M118.4,46.2h-2.2v7.6h2c1.6,0,2.6-0.3,3.4-0.9c0.8-0.6,1.3-1.6,1.3-3C122.7,47.2,120.8,46.2,118.4,46.2
		 M123.5,61l-4.2-6.1h-3.2V61h-3V45.1h5.7c2.3,0,4.7,0.3,6,1.8c0.7,0.8,1,1.8,1,3.1c0,2.5-1.9,3.9-3.5,4.5L127,61L123.5,61L123.5,61
		z"/>
	<path class="st0" d="M2.6,64.2c-0.8,0.4-1.7,0.6-2.6,0.6c2.1-1.5,3-3,3.3-5.6c0.2-1.4,0.2-2.8,0.2-4.2v-10h3v12
		C6.5,60,5.4,62.9,2.6,64.2"/>
	<path class="st0" d="M2.6,64.2c-0.8,0.4-1.7,0.6-2.6,0.6c2.1-1.5,3-3,3.3-5.6c0.2-1.4,0.2-2.8,0.2-4.2v-10h3v12
		C6.5,60,5.4,62.9,2.6,64.2"/>
	<path class="st0" d="M21.7,2.6c1.1,0,2-0.4,2-0.4c0-0.1-1.2-0.2-1.2-0.2c-1.1,0-1.6,0.5-1.6,0.5C21,2.6,21.2,2.6,21.7,2.6"/>
	<path class="st0" d="M14.3,4.5c0,0,0.1-0.2,0.1-0.3c0-0.1,0.2-0.6,1-0.6c0,0,0.4,0,0.8,0.1c0,0-0.3,0.7-1.3,0.8
		C14.9,4.5,14.4,4.5,14.3,4.5 M116.9,34.3c-0.3,0.6-1.4,1.5-2.7,1.9c-1.4,0.5-4.3,0.5-5.7,0c0,0-0.3-0.3-1.4-0.6
		c-2.4-0.7-3.2-1.2-4.4-2.3c-0.9-0.8-1.8-1.8-2.7-2.8c-0.4-0.4-1.4-1.4-3.2-1.7c-1.8-0.3-6.3-0.7-8-1.2c-1.1-0.4-2.4-1.1-4.1-3.6
		c-0.8-1.2-1.4-1.5-2.5-2.3c0,0,0.9,0.7,1.3,1.5c0.7,1.2,1,2.1,1.3,2.7c0.4,0.7,0.8,1.2,1.5,1.8c0.8,0.7,1.4,0.8,2.3,1
		c0.9,0.2,3.9,0.3,6.5,0.4c2.6,0.1,3.6,0.9,4.4,1.6c0.7,0.6,1.9,2.4,2.7,3.1c1.1,1,1.1,1,2.4,1.8c0.6,0.4,1.2,0.7,1.7,0.9
		c1.2,0.7,0.7,1.9,0.7,1.9c-0.3,1-1.5,1.3-3,1.1c-2.1-0.2-4-2-5.5-3.2c-0.9-0.7-1.2-1.1-2.8-2.2c-2.5-1.7-8.4-1.6-8.4-1.6l-4.3,0
		c-8.4,0.1-11.4-6.6-12.3-8c-0.3-0.5-0.6-0.9-0.8-1.2c-0.4-0.5-2.5-3.3-4.7-4.3c0,0,2.2,1.9,1.9,2.9c-0.5,0-1,0-1.6,0
		c-8.4,0.2-10.2-0.2-11.5-0.5c-1.3-0.3-3.6-0.9-5.7-1.9c0,0,0.2-2.1-0.6-3.8c0,0,7,2.5,12.5,1.8c0,0-8.9-0.4-14.5-4.9
		c0,0,1.4,4.7,0.3,6.7c0,0-1.5,3.6-9,1.2c0,0-3.5-1.3-6.1-1.3c0,0-2,0.1-2.3,1.1c0,0-0.1,0.5,0.4,0.7c0,0,0.6,0.2,0.3,0.6
		c-0.5,0.7-1.1,1.3-1.7,1.6c-2.1-0.1-1.9-1.8-1.9-1.8c0-0.6,0.2-1,0.4-1.5c1.3-3,6-3.4,6-3.4c4.9-0.5,10.1,0.7,10.1,0.7
		c-3.7-0.9-5-1.5-6-2.4c-1.4-1.2-2.8-5.2-2.8-5.2c-0.6,2,0.1,3.9,0.6,5c-0.7-1.1-1.7-2.1-2.6-2.8c-2.3-1.8-5.6-2.4-5.6-2.4
		c-1-0.2-1.3-1.2-1.3-1.2c-1.2-2.3-2.6-2.4-2.6-2.4c0.7,0.9,0.6,2.2,0.6,2.2c0,2.4-3,3.1-3,3.1c-2.3,2.3-2.7,2.2-3.1,2.2
		c-0.4,0-0.8-0.4-0.8-0.4c-0.1-0.2,0.1-0.4,0.1-0.4c0.4-0.2,0.7-0.6,0.7-0.6c2.2-1.8,2.5-2.7,2.3-3.9c-0.4-2.5-2.4-2.3-2.4-2.3
		c-0.9,0-1.4,0.7-1.4,0.7c-0.4,0.4-1.2,1.8-1.2,1.8c-0.7,1.2-1.3,1-1.3,1c-0.8,0-1.3-0.6-1.3-0.6c0,0-0.1-0.1-0.1-0.1
		C10.4,7.7,10.9,7,10.9,7c0.9-1.7,2.6-1.8,2.8-1.8c0.2,0,1-0.1,1-0.1c1.8-0.1,3-1.9,3-1.9C16.9,2.8,15.6,3,15.6,3
		c-1.3,0.1-1.7,1.5-1.7,1.5c-1.2,0.2-1.1-0.7-0.9-1c0.2-0.2,0.9-1.4,5.3-2c0,0,2.4-0.5,6.5,0c0.2,0,0.3,0.2,0.1,0.4
		c-0.5,0.6-2.2,2-4.8,1.3c0,0,0,1.1,2.8,1.6c0,0,2.6,0.6,6.8,4c0,0-2.1-3.8-5.6-5c0,0-0.3-0.2,0-0.4c0,0,1.7-1.5,4.7-1.4
		c0,0,9.8,0.5,15.3,6.3c0,0-0.2-1-1-2.4c0,0-0.2-0.2-0.1-0.3c0,0,0.1-0.2,1,0c0,0,3.5,0.6,11.6,3.6c0,0,6.1,2.1,9.4,3.5
		c5,2.1,17.5,7.2,25.5,11.5C92.1,25.1,98,28,98,28c4.4,2.7,8.4,4.7,8.4,4.7c4,1.8,6.9,1,6.9,1c0.9-0.3,2.7-1.3,3.4-0.6
		C117.1,33.4,117.1,33.9,116.9,34.3L116.9,34.3z M117.9,32.7c-0.5-1.2-2.2-0.9-2.2-0.9c-0.8,0-1.7,0.8-3.1,1.1
		c-2.9,0.6-5.1-0.4-5.1-0.4c-4.3-1.9-7.2-4-9-5.1c-1.9-1.1-8.8-4.7-15.8-8.2c0,0-8-4.1-19.8-9c0,0-22.7-10.3-39.1-10.3
		c0,0-8.5-0.1-11.3,3.2c0,0-0.5,0.4-0.3,0.9c0,0,0,0.1-0.1,0.2c0,0-1.3,0.8-2.3,2c0,0-0.6,0.6-0.1,1.4c0,0,0.5,1,0.9,1.4
		c0.3,0.4,1,1.1,2.1,1c0.5,0,0.5-0.2,0.5-0.2c0.5,0.5,1.3,0.5,1.3,0.5c-0.1-0.3-0.4-0.9-0.4-1.3c0-0.4,0.1-0.8,0.1-0.8
		c0.2-0.4,0.5-1,0.9-1.2c0.3-0.2,1.1-0.5,1.6-0.1c0.4,0.3,0.9,1.3,0.4,2.6c0,0-0.6,1-1.2,1.2l-0.2,0c-0.3,0-1-0.4-1-0.4s0,0.1,0,0.4
		c0,0.2,0.1,0.4,0.2,0.6l-0.1,0.1c0,0-0.5,0.4-0.3,0.9c0,0,0.4,1.6,1.7,1.6c1.1,0,2-1,2-1c2.3-2.5,5.6-2.8,5.6-2.8
		c3.6-0.2,8.8,3.5,10.2,4.5c-5.4-0.1-7.5,2-7.5,2c-3,2.4-1.8,5.2-1.8,5.2c0.2,0.6,0.8,1.1,1.2,1.2c0.6,0.2,1,0.3,1.5,0.2
		c0.3,0,0.7-0.2,0.8-0.3c0.4-0.2,1.1-0.7,1.5-1.2c0.2-0.3,0.5-0.9,0.3-1.5c0,0-0.1-0.5,0.3-0.6c0,0,1.4-0.4,4.3,0.9
		c0,0,3.1,1.8,7.2,2.2c0,0,4.6,0.5,5.7-2c0,0,2.6,1.1,6.5,1.5c0,0,3.8,0.4,9.9-0.1c1.2-0.1,2.6,0,2.6,0c2,0.2,3.2,1.3,3.7,2.1
		c2,3.3,4.4,9.6,14.2,9.4l4.4-0.1c2.7,0,4.9,0,7,1.2c0.9,0.5,3.4,3,5,3.8c4.5,3.1,7.2,1.6,7.2,1.6c1.5-0.9,1.4-2.5,1-3.4
		c-0.5-0.1,5.6,0.9,8.2-2.5C117.9,33.9,118,33.2,117.9,32.7L117.9,32.7z"/>
</g>
</svg>
