<svg xmlns="http://www.w3.org/2000/svg" id="Layer_1" width="154.5" height="78.9">
  <style>
    .st0{stroke:#02422d;stroke-width:1.143840e-02}.st1{fill:#241f20}
  </style>
  <path d="M97.9 69.1c-.9 3.8-3.8 5.5-8.7 5.5-3.3 0-6.2-.7-7.7-2.2-1.6-1.6-1.9-3.8-1.9-6.1V54.8h3.7v11.3c0 2.5.2 4.1 1.2 5.2 1.1 1.3 3.1 1.7 4.7 1.7 3.5 0 5.8-1.1 6.4-4.2.1-.7.3-1.6.3-2.9V54.8h2.3v10.3c.1 1.9-.1 3-.3 4"/>
  <path d="M97.9 69.1c-.9 3.8-3.8 5.5-8.7 5.5-3.3 0-6.2-.7-7.7-2.2-1.6-1.6-1.9-3.8-1.9-6.1V54.8h3.7v11.3c0 2.5.2 4.1 1.2 5.2 1.1 1.3 3.1 1.7 4.7 1.7 3.5 0 5.8-1.1 6.4-4.2.1-.7.3-1.6.3-2.9V54.8h2.3v10.3c.1 1.9-.1 3-.3 4" class="st0"/>
  <path d="M116.6 58.5l-4.3 8.9h8.3l-4-8.9m7.1 15.6l-2.4-5.4h-9.6l-2.6 5.4h-2.3l9.6-19.3h2.3l9.4 19.3h-4.4z"/>
  <path d="M116.6 58.5l-4.3 8.9h8.3l-4-8.9m7.1 15.6l-2.4-5.4h-9.6l-2.6 5.4h-2.3l9.6-19.3h2.3l9.4 19.3h-4.4z" class="st0"/>
  <path d="M28.6 58.5l-4.3 8.9h8.3l-4-8.9m7.1 15.6l-2.4-5.4h-9.6l-2.6 5.4h-2.3l9.6-19.3h2.3l9.4 19.3h-4.4z"/>
  <path d="M28.6 58.5l-4.3 8.9h8.3l-4-8.9m7.1 15.6l-2.4-5.4h-9.6l-2.6 5.4h-2.3l9.6-19.3h2.3l9.4 19.3h-4.4z" class="st0"/>
  <path d="M60.3 74.6c-6.4 0-12.4-2.2-12.4-9.6 0-2.4 1.1-4.9 2.7-6.7 2.5-2.8 6.4-3.8 10-3.8 2.2 0 4.7.5 6.7 1.5v2.3a11.6 11.6 0 0 0-6.5-2.3c-5.3 0-8.9 3.3-8.9 8.7 0 4.9 3.2 8.3 8.1 8.3 1.3 0 3-.2 4.2-.7v-7.1h3.7v7.9c-2.2 1-5.3 1.5-7.6 1.5"/>
  <path d="M60.3 74.6c-6.4 0-12.4-2.2-12.4-9.6 0-2.4 1.1-4.9 2.7-6.7 2.5-2.8 6.4-3.8 10-3.8 2.2 0 4.7.5 6.7 1.5v2.3a11.6 11.6 0 0 0-6.5-2.3c-5.3 0-8.9 3.3-8.9 8.7 0 4.9 3.2 8.3 8.1 8.3 1.3 0 3-.2 4.2-.7v-7.1h3.7v7.9c-2.2 1-5.3 1.5-7.6 1.5" class="st0"/>
  <path d="M143.9 56.2h-2.7v9.2h2.4c2 0 3.2-.4 4.1-1.1 1-.8 1.6-2 1.6-3.6 0-3.3-2.4-4.5-5.4-4.5m6.3 17.9l-5.1-7.4h-3.9v7.4h-3.7V54.8h7c2.8 0 5.7.4 7.3 2.2.8.9 1.3 2.2 1.3 3.8 0 3-2.3 4.8-4.3 5.5l5.7 7.8h-4.3z"/>
  <path d="M143.9 56.2h-2.7v9.2h2.4c2 0 3.2-.4 4.1-1.1 1-.8 1.6-2 1.6-3.6 0-3.3-2.4-4.5-5.4-4.5m6.3 17.9l-5.1-7.4h-3.9v7.4h-3.7V54.8h7c2.8 0 5.7.4 7.3 2.2.8.9 1.3 2.2 1.3 3.8 0 3-2.3 4.8-4.3 5.5l5.7 7.8h-4.3z" class="st0"/>
  <path d="M3.2 78.1c-1 .5-2 .8-3.1.8a8.9 8.9 0 0 0 4-6.8c.2-1.7.2-3.4.2-5.1V54.8H8v14.6c-.1 3.6-1.5 7.1-4.8 8.7"/>
  <path d="M3.2 78.1c-1 .5-2 .8-3.1.8a8.9 8.9 0 0 0 4-6.8c.2-1.7.2-3.4.2-5.1V54.8H8v14.6c-.1 3.6-1.5 7.1-4.8 8.7" class="st0"/>
  <path d="M26.4 3.2c1.3 0 2.5-.5 2.5-.5l-1.5-.2c-1.4 0-1.9.5-1.9.6l.9.1" class="st1"/>
  <path d="M17.4 5.5l.1-.3c0-.1.2-.7 1.2-.8l1 .1s-.3.8-1.6.9l-.7.1m124.7 36.2c-.3.8-1.7 1.8-3.3 2.3-1.7.6-5.2.6-7 0 0 0-.4-.4-1.6-.8-2.9-.9-3.9-1.5-5.4-2.9l-3.3-3.4a7 7 0 0 0-3.9-2.1c-2.2-.4-7.7-.8-9.7-1.5-1.4-.5-3-1.4-5-4.4-1-1.5-1.7-1.9-3.1-2.8 0 0 1.1.8 1.6 1.9l1.6 3.3c.4.8 1 1.5 1.8 2.2a5 5 0 0 0 2.8 1.2c1.1.2 4.8.4 7.9.5a8 8 0 0 1 5.4 1.9c.9.8 2.3 2.9 3.3 3.8 1.3 1.2 1.4 1.2 2.9 2.2.8.5 1.5.8 2.1 1 1.4.8.8 2.3.8 2.3-.4 1.2-1.9 1.6-3.6 1.3-2.6-.2-4.8-2.4-6.7-3.9-1-.9-1.4-1.3-3.4-2.7-3-2.1-10.2-1.9-10.2-1.9h-5.2c-10.2.1-13.9-8-14.9-9.8l-1-1.5c-.5-.6-3-4-5.8-5.2 0 0 2.6 2.3 2.4 3.5l-2 .1c-10.3.3-12.4-.3-14-.6-1.6-.3-4.3-1.1-7-2.4 0 0 .3-2.5-.8-4.6 0 0 8.5 3 15.2 2.1 0 0-10.9-.5-17.7-5.9 0 0 1.7 5.7.4 8.1 0 0-1.8 4.4-10.9 1.5 0 0-4.2-1.6-7.5-1.6 0 0-2.5.1-2.8 1.4 0 0-.2.6.5.9 0 0 .7.2.4.7-.6.9-1.3 1.6-2.1 1.9-2.6-.1-2.4-2.2-2.4-2.2 0-.7.3-1.3.5-1.8 1.6-3.6 7.2-4.1 7.2-4.1 6-.6 12.3.8 12.3.8-4.5-1.1-6-1.9-7.3-2.9a19 19 0 0 1-3.3-6.3c-.7 2.4.2 4.8.7 6-.9-1.4-2.1-2.5-3.1-3.4-2.8-2.2-6.8-2.9-6.8-2.9-1.2-.2-1.6-1.4-1.6-1.4-1.5-2.7-3.2-2.9-3.2-2.9.8 1.1.7 2.7.7 2.7 0 2.9-3.7 3.8-3.7 3.8-2.8 2.7-3.2 2.7-3.8 2.7-.5 0-.9-.5-.9-.5-.2-.3.1-.5.1-.5l.9-.7c2.7-2.2 3.1-3.3 2.9-4.8-.4-3-2.9-2.8-2.9-2.8-1.1 0-1.7.9-1.7.9l-1.4 2.2c-.8 1.4-1.6 1.2-1.6 1.2-.9.1-1.6-.8-1.6-.8l-.1-.1c-.7-.7-.1-1.6-.1-1.6 1.1-2 3.1-2.2 3.4-2.2l1.2-.1c2.2-.2 3.7-2.3 3.7-2.3-.9-.5-2.6-.2-2.6-.2-1.6.1-2.1 1.8-2.1 1.8-1.4.2-1.3-.9-1-1.2.2-.3 1.1-1.6 6.5-2.5 0 0 2.9-.6 8 0 .2 0 .4.2.1.5-.6.8-2.6 2.4-5.9 1.6 0 0-.1 1.3 3.4 1.9 0 0 3.2.7 8.3 4.8 0 0-2.5-4.6-6.8-6 0 0-.3-.2 0-.5 0 0 2-1.8 5.7-1.6 0 0 11.9.6 18.7 7.6 0 0-.2-1.2-1.3-2.9 0 0-.2-.2-.1-.3 0 0 .1-.3 1.3-.1 0 0 4.3.7 14.2 4.3 0 0 7.4 2.6 11.5 4.3 6.1 2.5 21.3 8.7 31 14 1.7 1 8.9 4.5 8.9 4.5a142 142 0 0 0 10.3 5.7c4.8 2.2 8.4 1.2 8.4 1.2 1.1-.4 3.3-1.6 4.1-.8.4.7.4 1.3.1 1.8zm1.2-1.9c-.6-1.5-2.7-1.1-2.7-1.1-.9.1-2.1 1-3.7 1.4-3.5.7-6.2-.5-6.2-.5-5.2-2.3-8.7-4.9-11-6.2-2.3-1.3-10.7-5.7-19.2-10 0 0-9.7-5-24-10.9C76.5 12.5 48.8 0 29 0c0 0-10.3-.1-13.8 3.8 0 0-.6.5-.3 1.1l-.1.3s-1.5 1-2.8 2.5c0 0-.7.7-.1 1.7l1.1 1.7c.4.5 1.3 1.4 2.6 1.2l.6-.2c.6.6 1.6.6 1.6.6-.1-.4-.5-1.1-.5-1.5l.1-.9a4 4 0 0 1 1-1.5c.4-.3 1.3-.6 2-.1.5.4 1.1 1.6.5 3.2 0 0-.7 1.3-1.4 1.4h-.2c-.4 0-1.3-.5-1.3-.5l.1.5.2.7-.3.3s-.5.4-.3 1.1c0 0 .5 2 2 2 1.3 0 2.4-1.2 2.4-1.2 2.8-3 6.8-3.5 6.8-3.5 4.4-.3 10.7 4.2 12.4 5.5-6.5-.1-9.2 2.4-9.2 2.4C28.5 23.5 30 27 30 27c.3.8 1 1.3 1.5 1.5.7.3 1.3.3 1.8.3.4 0 .8-.2 1-.3.5-.3 1.4-.9 1.8-1.5a2 2 0 0 0 .4-1.8s-.1-.6.4-.7c0 0 1.7-.4 5.2 1.1 0 0 3.8 2.2 8.7 2.7 0 0 5.6.6 7-2.5 0 0 3.2 1.3 7.9 1.9 0 0 4.6.5 12-.1a30 30 0 0 1 3.2 0c2.4.3 3.9 1.5 4.5 2.5 2.4 4 5.4 11.7 17.3 11.4l5.4-.1c3.3 0 5.9 0 8.6 1.4 1.1.6 4.2 3.6 6 4.6 5.5 3.7 8.7 2 8.7 2 1.9-1.1 1.7-3 1.3-4.1-.6-.2 6.8 1.1 10-3.1.7-1 .9-1.9.6-2.4z" class="st1"/>
</svg>
