<svg xmlns="http://www.w3.org/2000/svg" id="Layer_1" width="146.3" height="87.5">
  <style>
    .st0{fill:#fff}
  </style>
  <path d="M36.7 83.8c-.4-1-.4-1.2.4-2.1-.6-.6-1-1.2-1-2.1 0-1.2.8-2.3 2-2.4.6-.1 1.2.2 1.8.1l1.7-.4h.6l-.3 1.1h-.8l.2.5c.8 1.7-.1 3.5-2 3.7h-1c-.3 0-.4.1-.5.3 0 .2 0 .4.3.5l1.4.3 1.7.4c1.6.6 1.4 2.3.5 2.9l-1.2.6c-1 .3-2.1.4-3.1.1-.5-.1-1-.4-1.3-.7-.7-.6-.7-1.6 0-2.3l.6-.5zm2.2 2.6l1-.2c.6-.1 1-.5.9-.8 0-.5-.5-.7-.9-.7a57 57 0 0 1-1.7-.3c-.5-.1-.8.1-1 .5-.2.4-.1.9.4 1.1l1.3.4zm0-5.4c.7 0 1.3-.5 1.3-1.3s-.6-1.4-1.3-1.4c-.7 0-1.2.5-1.2 1.3s.5 1.4 1.2 1.4zm-14.1 2.7c-1.4.6-2.9.8-4.3.1-1.4-.7-1.8-1.9-1.7-3.3.1-1.5.9-2.6 2.3-3.1.7-.2 1.4-.2 2.2-.3v-3h1.4c.2.5.3 8.5.1 9.6zm-1.5-5.1c-1-.4-2-.1-2.5.6-.6.8-.6 2-.1 2.9.5.8 1.5 1.1 2.6.7v-4.2zm-6.9 5c-.6.2-1.1.5-1.7.6-1.7.2-2.9-1.2-2.4-2.8a2 2 0 0 1 1.1-1.3 4 4 0 0 1 1.5-.3l1.3-.1c0-1-.4-1.5-1.3-1.4a6 6 0 0 0-1.7.4l-.5-.9a4 4 0 0 1 3.9-.5c.8.3 1.1.9 1.2 1.8V84c-.5.1-1.1.3-1.4-.4zm-.2-2.7c-.7.1-1.2 0-1.8.2-.8.2-1 1-.5 1.6.5.4 1 .4 1.6.2.6-.2.6-.3.6-1l.1-1zm-5 .2H7c0 1.7 1.3 2.2 3.7 1.5l.3.8a3.4 3.4 0 0 1-5.4-1.3 4 4 0 0 1 .2-3.4c.6-1.1 1.6-1.7 2.8-1.5 1.2.1 2 .8 2.3 1.9.4.6.5 1.2.3 2zm-1.6-1.2c-.1-1-.5-1.5-1.3-1.5-.7 0-1.2.6-1.3 1.5h2.6zm25.3 4.2h-1.4l-.1-.6v-3.1l-.1-1c-.2-.7-.6-1-1.3-.8l-.7.2c-.6.2-.8.6-.8 1.3V84H29v-6.6h1.2l.2.6.6-.3.9-.4c1.6-.5 2.9.4 2.9 2.1v4.3c.2 0 .1.2.1.4zm106.4-.5l.5-1 .6.2 1.5.2c.5 0 .9-.3.9-.6.1-.4-.2-.7-.6-.9l-1.4-.6c-.5-.3-.9-.6-1-1.2-.3-1.2.3-2.2 1.6-2.4.7-.1 1.4 0 2.1.1.7.1.7.2.7.8v.4l-.1.1-1.4-.3-.9.1c-.5.1-.6.6-.2.9l.7.5 1.3.6c.7.4.9 1.1.9 1.9-.1.7-.5 1.2-1.2 1.5-1.3.5-2.9.4-4-.3zM1.5 82.7h3.4v1.2c-.5.2-3.6.2-4.7.1-.2-.6-.2-8.2-.1-9.3h1.4v8zM138 74h1.5v8.2c0 .6 0 .6.7.7h.2l.1.1.2.9c-.5.4-1 .5-1.5.4-.6-.1-1-.5-1.1-1.1v-8.5l-.1-.7zM26.3 84v-6.7h1.4V84h-1.4zm.7-9.7c.5 0 1 .4 1 1 0 .5-.4.9-.9.9s-1-.4-1-.9c-.1-.6.3-1 .9-1z"/>
  <path d="M38.9 86.4l-1.3-.4c-.5-.2-.6-.7-.4-1.1.2-.4.5-.6 1-.5l1.7.3c.4.1.9.2.9.7 0 .4-.3.7-.9.8l-1 .2zm0-5.4c-.7 0-1.3-.6-1.3-1.4 0-.7.5-1.3 1.2-1.3s1.4.6 1.3 1.4c.1.8-.5 1.3-1.2 1.3zm-15.6-2.4v4.1c-1.1.3-2.1.1-2.6-.7-.6-.8-.5-2.1.1-2.9.6-.6 1.6-.9 2.5-.5zm-7.1 2.3v.9c0 .7-.1.8-.6 1-.6.2-1.1.3-1.6-.2s-.3-1.4.5-1.6l1.7-.1zm-6.6-1H7c.1-1 .6-1.5 1.3-1.5.8-.1 1.3.5 1.3 1.5z" class="st0"/>
  <path d="M0 66.4V0h146.3v66.4c-.5.1-145.3.2-146.3 0zm95.7-42.2l-.6-.5c-1.2-.9-2.6-1.6-4-2-3-.9-6-1.1-9.1-.8-2.2.2-4.3.8-6.2 2.1a8.4 8.4 0 0 0-3.8 4.9c-.4 1.3-.4 2.6-.3 3.9a8 8 0 0 0 4.3 6.7c1 .6 2.1 1 3.2 1.2l5.2 1.1c.9.2 1.9.5 2.7.9.9.4 1.3 1.2 1.3 2.2 0 1.3-.7 2.1-1.8 2.6a8 8 0 0 1-3 .6c-3 0-5.8-.9-8.2-2.7l-.6-.4-4.6 5.6.4.4a18 18 0 0 0 5.8 3.1c3.1.9 6.3 1.2 9.5.8 1.8-.2 3.6-.6 5.2-1.5a8.8 8.8 0 0 0 4.8-5.8c.4-1.5.5-3 .3-4.5-.2-2.9-1.6-5-4.2-6.3-1.4-.7-2.9-1.1-4.4-1.5L82.1 33c-.7-.2-1.4-.5-2-1-1.1-1-1.1-2.6.1-3.6a4 4 0 0 1 2-.9c2.9-.5 5.6 0 8.2 1.5l.7.4 4.6-5.2zm29.5.9l-.3-.4a12 12 0 0 0-4.5-2.9 17.3 17.3 0 0 0-9.8-.7 13 13 0 0 0-10.1 8.4c-.8 1.9-1.1 4-1.2 6-.2 2.9 0 5.9.9 8.7a13 13 0 0 0 6.6 8.1c1.9 1 4 1.5 6.2 1.6a14.4 14.4 0 0 0 12.6-5.1l-5.1-5-1.3 1.2a6.9 6.9 0 0 1-4.9 1.7c-2.9-.1-5-1.6-6.1-4.3l-.4-1.1a17 17 0 0 1-.4-5.5c.1-1.4.4-2.7 1-3.9a5.8 5.8 0 0 1 3.4-3.3c2.9-1 5.7-.7 8.1 1.4l.5.4a115 115 0 0 1 4.8-5.3zM20.9 20.8v8.9l14.9 5.9v.1l-14.9 5.8v9L47 38.6v-6L20.9 20.8zM53 12.4v31.1c0 1.2.1 2.5.4 3.7a7.6 7.6 0 0 0 4.3 5.5c.9.4 1.9.7 2.8.7l5.3.2h.5c.1-1 .1-6.3-.1-6.9h-2.7c-1.4-.1-2.2-.8-2.5-2.2v-32l-8-.1zm32.5 71.4c-.5-.8-.3-1.5.4-2.1-.6-.6-1-1.2-1-2.1 0-1.2.8-2.2 2-2.4.7-.1 1.3.1 2 .1.6 0 1.1-.6 1.8-.4l.4.1-.3 1-.9.1.3.6c.8 1.6-.1 3.3-1.8 3.5h-1.2c-.3 0-.5 0-.5.3s.1.5.4.5l1.3.3 1.7.4c1.6.6 1.3 2.3.5 2.9l-1.2.6c-1 .3-2.1.3-3.1 0-.4-.1-.9-.3-1.2-.6-.8-.7-.8-1.7-.1-2.4l.5-.4zm2.2 2.6l1.4-.4c.2-.1.4-.4.5-.7 0-.2-.3-.4-.5-.6l-.7-.2-1.4-.2c-.5-.1-.9.1-1 .5-.2.4-.1.9.4 1.1l1.3.5zm-.1-8.1c-.7 0-1.2.6-1.2 1.3 0 .8.6 1.3 1.3 1.3.8 0 1.3-.6 1.2-1.4 0-.6-.6-1.2-1.3-1.2zm25.6-1.2V74h1.5v8.9c0 .8 0 .8-.8 1-.8.2-1.7.3-2.5.2-1.7-.3-2.7-1.4-2.8-3.1-.1-1.8.8-3.2 2.5-3.7.6-.2 1.3-.1 2.1-.2zm-.1 1.4c-1.1-.2-2.1-.1-2.7.9-.5.8-.4 2 .2 2.7.6.7 1.5.9 2.5.6v-4.2zm17.6 5.5l-.3.1c-1.4.1-1.4.1-2.3-1l-1.5-1.9h-.2v2.9H125c-.2-.6-.2-9.2 0-10h1.4v5.3h.2c.5-.5 1-.9 1.4-1.5.4-.5.8-.7 1.5-.6h.8l.1.2-2.7 2.7 3 3.8zM60 79.7c-.1-1.1-.5-1.5-1.5-1.4l-1.6.4-.4-.8c1-.9 2.9-1.1 4-.6.5.2.8.6.9 1.1l.1.6v4.9c-.5 0-1.1.3-1.4-.4l-1.5.6c-1.6.3-2.8-.8-2.6-2.4.1-.7.4-1.3 1.1-1.6l1.5-.4H60zm-.1 1.2l-1.8.2c-.4.1-.6.3-.7.7-.1.4 0 .7.4.9.5.4 1.1.3 1.6.1.5-.2.6-.6.5-1v-.9zm39.3 2.7l-1.6.6c-1.7.3-3-1.3-2.4-2.9.3-.9 1.1-1.3 2-1.4l1.8-.2c.1-1-.4-1.4-1.3-1.4a6 6 0 0 0-1.7.4l-.5-.9a4 4 0 0 1 3.9-.5c.8.3 1.2 1 1.2 1.8v4.8c-.9.3-.9.3-1.4-.3zm-.2-2.7l-1.7.2c-.4.1-.7.3-.7.7-.1.4 0 .7.4.9.5.4 1.1.3 1.6.1.5-.2.5-.6.5-1l-.1-.9zm-43.8.2H51c.1 1.7 1.2 2.2 3.6 1.5l.2.3.2.5c-1.8 1.6-4.7.8-5.4-1.4-.3-1.1-.3-2.1.1-3.1.5-1.2 1.6-1.8 2.9-1.8 1.2.1 2.1.9 2.4 2.1l.2.8v1.1zm-1.7-1.2c0-.9-.5-1.5-1.3-1.5-.7 0-1.2.5-1.3 1.5h2.6zM79 77.3l.3.6.4-.2c.6-.4 1.3-.6 2-.5.9 0 1.6.6 1.9 1.5l.1.8v4.3l-.1.3h-1.4l-.1-.6v-3.4c0-1.4-.7-1.8-2-1.2-.6.3-.9.6-.9 1.3v3.9h-1.5v-6.7l1.3-.1zm22.8 0h1.1l.3.6a4 4 0 0 1 2.3-.8c1 0 1.7.6 1.9 1.6l.1.9v4l-.1.4H106l-.1-.6v-3.9c-.1-.8-.6-1.1-1.4-.9l-.6.2c-.5.2-.8.6-.8 1.2v3.9h-1.4l.1-6.6zM69.4 84h-1.5v-6.7h1.2l.3.6c.7-.4 1.5-.8 2.3-.8 1 0 1.7.6 1.9 1.6l.1 1V84h-1.4v-3.9c0-1.5-.8-2-2.1-1.2-.5.3-.7.6-.7 1.2l-.1 3.9zm54.2-6.5v1.2l-1.4-.3-.9.1c-.5.2-.7.7-.2 1l.8.4 1.2.6c.7.4 1 1.1.9 1.9-.1.8-.5 1.3-1.2 1.6-1.1.5-2.7.3-3.8-.4l.4-1 1.6.4 1-.1c.5-.2.6-.8.2-1.2l-.7-.4-1-.5c-.8-.5-1.2-1.1-1.1-2.1.1-.8.7-1.3 1.5-1.5.8-.2 1.8-.1 2.7.3zm-74.9 5.4l.2.9c-.4.4-.9.4-1.4.4-.7-.1-1.1-.4-1.2-1.1v-8.5l.1-.7h1.5V82c0 .6 0 .6.7.7-.1.1 0 .1.1.2zm85.8-8.9h1.5v7.9c0 .9 0 .9.9 1l.2 1c-.4.3-.9.4-1.3.4-.8 0-1.2-.5-1.3-1.3v-9zM64.3 84h-1.4c-.2-.6-.2-5.7 0-6.6 1-.2 1.1-.2 1.4.5.8-.6 1.6-1.1 2.7-.5l-.4 1.1-1.6.3c-.4.1-.6.4-.6.9v3.5l-.1.8zm10.8-6.7h1.4V84h-1.4c-.1-.5-.2-5.6 0-6.7zm58 6.7h-1.3c-.2-.6-.2-5-.1-6.7h1.4V84zm-56.4-8.8c0 .5-.4 1-1 .9a1 1 0 0 1-1-1c0-.5.4-.9 1-.9.6.1 1 .5 1 1zm54.8 0c0-.5.4-.9 1-.9.5 0 1 .5.9 1 0 .5-.5.9-1 .9s-.9-.5-.9-1z"/>
  <path d="M87.7 86.4l-1.4-.5c-.5-.2-.6-.7-.4-1.1.2-.4.5-.6 1-.5l1.4.2.7.2c.2.1.5.4.5.6 0 .2-.2.6-.5.7-.3.2-.8.3-1.3.4zm-.1-8.1c.7 0 1.3.6 1.4 1.3 0 .8-.5 1.4-1.2 1.4s-1.3-.6-1.3-1.3c-.2-.8.4-1.3 1.1-1.4zm25.5.2v4.3c-1 .3-1.9.1-2.5-.6-.6-.7-.7-1.9-.2-2.7.7-1.1 1.6-1.2 2.7-1zm-53.2 2.4v.8c0 .5 0 .8-.5 1-.5.2-1.1.3-1.6-.1-.3-.2-.4-.6-.4-.9.1-.4.3-.6.7-.7l1.8-.1zm39.1 0v.8c0 .4 0 .8-.5 1-.5.3-1 .4-1.5 0-.3-.2-.4-.6-.4-.9.1-.4.4-.7.7-.7l1.7-.2zm-45.5-1h-2.6c.1-1 .6-1.5 1.3-1.5.8-.1 1.3.5 1.3 1.5z" class="st0"/>
</svg>
