<svg xmlns="http://www.w3.org/2000/svg" width="143.8" height="58.2">
  <path d="M0 0v58.2h143.8V0H0zm32.3 52.5L22.5 20h-.1l-6.5 32.4H4.1l10-46.9h15.6L39.3 38h.1L46 5.6h11.8l-9.9 46.9H32.3zm47.8 0l4.2-20.1H69.4l-4.2 20.1H52.7l9.7-46.9H75l-3.7 17.9h14.8l3.7-17.9h12.6l-9.7 46.9H80.1zm55.3-36.3a24.1 24.1 0 0 0-10.3-2.1c-5 0-9 .7-9 4.5 0 6.6 18.2 4.2 18.2 18.4 0 13-12 16.3-22.9 16.3-4.8 0-10.4-1.1-14.5-2.4l3-9.5c2.5 1.6 7.5 2.7 11.5 2.7 3.9 0 10-.7 10-5.6 0-7.5-18.2-4.7-18.2-17.9 0-12.1 10.6-15.7 20.9-15.7 5.8 0 11.2.6 14.4 2.1l-3.1 9.2z"/>
</svg>
