<?xml version="1.0" encoding="utf-8"?>
<!-- Generator: Adobe Illustrator 22.0.1, SVG Export Plug-In . SVG Version: 6.00 Build 0)  -->
<svg version="1.1" id="Layer_1" xmlns="http://www.w3.org/2000/svg" xmlns:xlink="http://www.w3.org/1999/xlink" x="0px" y="0px"
	 width="125px" height="50.6px" viewBox="0 0 125 50.6" style="enable-background:new 0 0 125 50.6;" xml:space="preserve">
<style type="text/css">
	.st0{fill:#FFFFFF;}
</style>
<path class="st0" d="M0,0v50.6h125V0H0z M28.1,45.6l-8.5-28.2h-0.1l-5.7,28.2H3.5l8.7-40.7h13.6l8.3,28.2h0.1L40,4.9h10.3l-8.6,40.7
	H28.1z M69.6,45.6l3.6-17.4H60.3l-3.6,17.4H45.8l8.5-40.7h10.9L62,20.5h12.9l3.2-15.6H89l-8.5,40.7H69.6z M117.7,14.1
	c-2.1-1-5-1.9-9-1.9c-4.3,0-7.8,0.6-7.8,3.9c0,5.8,15.8,3.6,15.8,16c0,11.3-10.4,14.2-19.9,14.2c-4.2,0-9-1-12.6-2.1l2.6-8.3
	c2.2,1.4,6.5,2.3,10,2.3c3.4,0,8.7-0.6,8.7-4.8c0-6.5-15.8-4.1-15.8-15.6c0-10.5,9.2-13.7,18.1-13.7c5,0,9.7,0.5,12.5,1.8
	L117.7,14.1z"/>
</svg>
