<svg xmlns="http://www.w3.org/2000/svg" width="278.5" height="73.2">
  <path d="M25.5 73.2c-5.7-.4-10-1.4-13.6-3.2A20.2 20.2 0 0 1 .2 51.2L0 48.6h6.8l.1 2.3c.5 10.7 8.4 16.6 22.3 16.6a29 29 0 0 0 4.7-.3c7.5-1.4 12.9-5.5 14.3-10.9.4-1.5.4-4.5 0-5.9-.8-3.2-3.5-5.9-7.5-7.8a75 75 0 0 0-14.6-4.2c-5.4-1.3-10.7-2.7-11.7-3.1-8-2.8-11.9-7.9-11.9-15.5 0-8.9 5.4-16 14.2-18.7C20 .2 21.5 0 26.5 0c4.1 0 4.9.1 6.8.5 8.3 1.7 14.2 5.7 17.2 11.7 1.2 2.4 2.1 5.9 2.1 8.3v1.2h-6.4l-.1-1.1c-.3-3.1-1.6-6.3-3.4-8.4-4.1-5-11.8-7.5-20-6.3-8.6 1-13.2 5.4-13.7 12.5a15 15 0 0 0 .1 3.1c.7 3.5 3.2 6.3 7.1 7.8 1.7.6 3 1 14.6 3.9a66.9 66.9 0 0 1 13.7 4.2 20 20 0 0 1 5.7 3.7c2.3 2.2 3.6 4.6 4.4 7.8a19 19 0 0 1-13.9 22.6 48 48 0 0 1-15.2 1.7zm106.2 0c-7-.7-11.8-3.2-15.5-8.1-4.1-5.4-6-14.5-5-23.1.8-6.8 3.1-12.2 6.9-16.2 4.2-4.4 9.8-6.5 16.6-6.2 3 .1 4.7.4 7.1 1.3 4.7 1.7 9 5.8 11.3 10.9a38.4 38.4 0 0 1 3.1 15.3v.9H117l.1 1.8c.4 6 3 11.8 6.8 15 1.5 1.2 3.8 2.4 5.7 3 2.2.6 6.6.6 8.8 0 3.9-1.1 6.7-3.1 8.9-6.5a21 21 0 0 0 2.3-5.1l.2-.9h6l-.1.6c-.3 1.4-1.5 4.7-2.3 6.4-3 6-7.7 9.4-14.5 10.6-1.7.2-5.8.4-7.2.3zm18.4-30.5c.2-.4-.5-4.6-1.1-6.4-2.5-7.5-8-11.8-15.2-11.8-7.2 0-13 4.6-15.6 12.6-.7 2.1-1.3 5-1.1 5.4.1.3 1.9.3 16.5.3 11 .1 16.4 0 16.5-.1zm71.1 30.4c-3.8-.4-7.9-1.9-10.7-3.9a22.9 22.9 0 0 1-4.9-5.3c-5.9-9-6-24.8-.3-34.2 1.9-3.2 5-6.2 8-7.8 6.2-3.2 15-3.3 21-.2 1.9 1 3 1.8 4.7 3.5a29 29 0 0 1 7.5 19.7l.1 2.9-19.6.1-19.6.1v1.5c0 .8.1 2.1.3 2.8 2 11.3 9.7 17.4 19.7 15.7 5.2-.9 8.8-3.6 11.2-8.5l1.2-2.9.4-1.3h6l-.4 1.4a23.4 23.4 0 0 1-5.9 10.8 19.6 19.6 0 0 1-13.1 5.7c-2.4.1-3.1.1-5.6-.1zm19-31.8c-.1-3.1-1.4-6.8-3.3-9.7a15.4 15.4 0 0 0-9.6-6.8c-.9-.2-2-.3-3.9-.2-2.2.1-2.8.2-4.3.7-2.3.8-3.7 1.6-5.5 3.4-3.2 3-5.4 7.6-6.3 12.7l-.1 1.3 16.5.1 16.4-.1.1-1.4zm-49.8 30.8c-2.8-.5-5-1.9-6-3.8-1.2-2.4-1.1-1.4-1.2-22.8l-.1-19.6h-8.8v-5h8.8l.1-9.7.1-9.7h6.2V21l5.1-.1 5.1-.1v5h-10.2v18.5c0 20.2 0 19.8 1.1 21.1l1.3 1c.8.4 1.1.4 4.3.4h3.5v5l-1.6.1c-2.4.4-6.5.4-7.7.2zm-89.3-.3l-3-.1V37.8l-.5-.4-6.3-5.7-6.6-6-.7-.6-4.8 4.2-7.8 6.8-3 2.6v33h-6.2V1.5h6.2v15l.1 15 8-6.9 7.9-6.9 3.3 3 9.9 9 6.6 6v36.2l-3.1-.1zm65.1 0l-3-.1V1.5h6.2v70.4l-3.2-.1zm90.3-.1l-2.9-.1V21h5.6v5.9c0 3.3.1 5.9.2 5.9l.7-1.3c1.2-2.7 3.6-5.8 6.1-7.7 2.7-2 6.3-3.3 10.2-3.5l2.1-.1.1 3.1.1 3.1h-1.4a17.2 17.2 0 0 0-17.1 14.4c-.3 1.3-.3 3.6-.3 16.2l-.1 14.8-3.3-.1z"/>
</svg>
