<?xml version="1.0" encoding="utf-8"?>
<!-- Generator: Adobe Illustrator 22.0.1, SVG Export Plug-In . SVG Version: 6.00 Build 0)  -->
<svg version="1.1" id="Layer_1" xmlns="http://www.w3.org/2000/svg" xmlns:xlink="http://www.w3.org/1999/xlink" x="0px" y="0px"
	 width="121px" height="31.8px" viewBox="0 0 121 31.8" style="enable-background:new 0 0 121 31.8;" xml:space="preserve">
<style type="text/css">
	.st0{fill:#FFFFFF;}
</style>
<path id="path2223" class="st0" d="M11.1,31.8c-2.5-0.2-4.3-0.6-5.9-1.4c-1.2-0.6-1.8-1-2.6-1.8C1,27,0.2,25,0.1,22.3L0,21.1h1.5
	h1.5l0,1c0.2,4.7,3.6,7.2,9.7,7.2c0.8,0,1.6,0,2-0.1c3.3-0.6,5.6-2.4,6.2-4.7c0.2-0.6,0.2-2,0-2.6c-0.4-1.4-1.5-2.6-3.3-3.4
	c-1.1-0.5-1.8-0.7-6.3-1.8c-2.4-0.6-4.6-1.2-5.1-1.3c-3.5-1.2-5.2-3.4-5.2-6.8c0-3.9,2.4-6.9,6.2-8.1C8.7,0.1,9.3,0,11.5,0
	c1.8,0,2.1,0,3,0.2c3.6,0.7,6.1,2.5,7.5,5.1c0.5,1,0.9,2.6,0.9,3.6v0.5h-1.4H20L20,8.9c-0.2-1.3-0.7-2.7-1.5-3.7
	C16.7,3,13.4,2,9.8,2.5C6.1,3,4.1,4.9,3.9,8c0,0.5,0,1,0,1.3c0.3,1.5,1.4,2.7,3.1,3.4c0.7,0.3,1.3,0.4,6.4,1.7
	c3.7,0.9,4.7,1.2,6,1.8c1.2,0.6,1.8,1,2.5,1.6c1,1,1.6,2,1.9,3.4c0.2,0.8,0.2,2.7,0,3.6c-0.6,3-2.8,5.2-6,6.2
	C15.8,31.6,13.1,31.9,11.1,31.8z M57.2,31.8c-3-0.3-5.1-1.4-6.7-3.5c-1.8-2.3-2.6-6.3-2.2-10c0.4-3,1.3-5.3,3-7
	c1.8-1.9,4.3-2.8,7.2-2.7c1.3,0.1,2,0.2,3.1,0.6c2,0.7,3.9,2.5,4.9,4.7c0.4,0.8,0.9,2.4,1,3.3c0.1,0.7,0.3,2.6,0.3,3.3v0.4h-8.5
	h-8.5l0,0.8c0.2,2.6,1.3,5.1,2.9,6.5c0.6,0.5,1.6,1.1,2.5,1.3c1,0.3,2.9,0.3,3.8,0c1.7-0.5,2.9-1.4,3.9-2.8c0.4-0.6,0.8-1.5,1-2.2
	l0.1-0.4h1.3h1.3l-0.1,0.3c-0.1,0.6-0.7,2.1-1,2.8c-1.3,2.6-3.4,4.1-6.3,4.6C59.6,31.8,57.8,31.8,57.2,31.8z M65.2,18.5
	c0.1-0.2-0.2-2-0.5-2.8c-1.1-3.3-3.5-5.1-6.6-5.1c-3.1,0-5.6,2-6.8,5.5c-0.3,0.9-0.6,2.2-0.5,2.4c0,0.1,0.8,0.1,7.2,0.1
	C62.8,18.6,65.2,18.6,65.2,18.5z M96.1,31.7c-1.7-0.2-3.4-0.8-4.6-1.7c-0.8-0.6-1.5-1.4-2.1-2.3c-2.5-3.9-2.6-10.8-0.1-14.8
	c0.8-1.4,2.2-2.7,3.5-3.4c2.7-1.4,6.5-1.4,9.1-0.1c0.8,0.4,1.3,0.8,2,1.5c2,1.9,3.1,4.9,3.2,8.6l0.1,1.3l-8.5,0l-8.5,0l0,0.6
	c0,0.4,0.1,0.9,0.1,1.2c0.9,4.9,4.2,7.5,8.6,6.8c2.3-0.4,3.8-1.6,4.9-3.7c0.2-0.4,0.4-0.9,0.5-1.2l0.2-0.6h1.3h1.3l-0.2,0.6
	c-0.6,2-1.4,3.5-2.6,4.7c-1.5,1.5-3.2,2.2-5.7,2.5C97.5,31.8,97.2,31.8,96.1,31.7z M104.3,17.9c0-1.3-0.6-3-1.4-4.2
	c-1-1.6-2.4-2.5-4.2-2.9c-0.4-0.1-0.9-0.1-1.7-0.1c-1,0-1.2,0.1-1.9,0.3c-1,0.4-1.6,0.7-2.4,1.5c-1.4,1.3-2.4,3.3-2.7,5.5
	c0,0.3-0.1,0.5,0,0.6s3.3,0.1,7.2,0.1l7.1,0L104.3,17.9z M82.7,31.3c-1.2-0.2-2.2-0.8-2.6-1.6c-0.5-1-0.5-0.6-0.5-9.9l0-8.5h-1.9
	h-1.9l0-1.1l0-1.1h1.9h1.9l0-4.2l0-4.2h1.3h1.3v4.2v4.2l2.2,0l2.2,0l0,1.1l0,1.1h-2.2h-2.2v8c0,8.8,0,8.6,0.5,9.2
	c0.1,0.1,0.4,0.4,0.6,0.5c0.3,0.2,0.5,0.2,1.9,0.2h1.5l0,1.1l0,1.1L86,31.4C85,31.4,83.2,31.4,82.7,31.3z M43.9,31.2l-1.3,0v-7.4
	v-7.4l-0.2-0.2c-0.1-0.1-1.4-1.2-2.8-2.5c-1.4-1.3-2.7-2.4-2.9-2.6l-0.3-0.3l-2.1,1.8c-1.1,1-2.7,2.3-3.4,2.9l-1.3,1.1l0,7.2l0,7.2
	h-1.3H27V15.9V0.6h1.3h1.3v6.5c0,3.6,0,6.5,0,6.5c0,0,1.6-1.3,3.5-3l3.4-3L38.1,9c0.8,0.7,2.7,2.5,4.3,3.9l2.9,2.6l0,7.9
	c0,4.3,0,7.9,0,7.8C45.2,31.2,44.6,31.2,43.9,31.2z M72.2,31.2l-1.3,0V15.9V0.6h1.3h1.3v15.3c0,8.4,0,15.3,0,15.3
	S72.9,31.2,72.2,31.2z M111.4,31.2l-1.3,0v-11v-11h1.2h1.2v2.6c0,1.4,0,2.6,0.1,2.6c0,0,0.2-0.3,0.3-0.6c0.5-1.2,1.6-2.5,2.6-3.3
	c1.2-0.9,2.8-1.4,4.4-1.5l0.9-0.1l0,1.3l0,1.3l-0.6,0c-0.3,0-0.9,0.1-1.3,0.1c-3.2,0.6-5.5,2.8-6.1,6.1c-0.1,0.6-0.1,1.5-0.1,7.1
	c0,3.5,0,6.4-0.1,6.4C112.7,31.2,112.1,31.2,111.4,31.2z"/>
</svg>
