<svg xmlns="http://www.w3.org/2000/svg" width="178.6" height="97.6">
  <path d="M26 97.6h5.7l12.1-63.8L57 97.6h5l17-81c1.8-8.5 2.8-11.4 6.1-12.3l2.7-.7V1.1H68.1v2.5l2.9.6c4.2.8 5.2 3.4 3.2 13.7l-10.1 50-10.3-53C52.6 9.5 51.9 5 56.5 4.2l3.1-.6V1.1H32.7v2.5l1.8.4c2.8.7 3.2 2.4 4.3 7.7l2.6 12.7-8.2 43.1-10.6-52.6c-1.2-5.7-1.7-10 2.8-10.9l2.1-.4V1.1H0v2.5l2.7.7c2.5.7 3.9 2 5.6 9.6L26 97.6zm104.7-25.8c0-28.6-31.4-36.2-31.4-57 0-4.5 1.7-11.2 8.7-11.2 10.1 0 13.8 13 15.5 28.8h2.7V.6h-1.7c-.7 3.1-2 4.5-3.8 4.5-3.2 0-4.9-5-12.6-5-11.9 0-20 9.9-20 22.9 0 23.6 31.4 33.5 31.4 55.3 0 9.9-4.6 15.5-10.9 15.5-9.4 0-15.5-11-17.2-28.8h-2.7v31.8h1.7c1.4-4.6 3.2-5 4.7-5 2.7 0 5.4 5.6 13.5 5.6 12.6-.1 22.1-10.8 22.1-25.6m41.1-62.3c0-3.9 1-5.2 3.8-5.9l3.1-.8V.3h-28.9v2.5l3.5.8c2.8.7 4.3 1.7 4.3 5.7v67.1c0 9.4-.8 16.9-7.8 16.9-4.5 0-7.8-3.5-7.7-6 .4-4.3 7.7-4 8.2-11 .4-5-2.8-7.1-5.7-7.5-4.3-.6-9.6 3.1-9.8 10.3-.1 9.4 6 17.9 16.5 17.9 11.6 0 20.5-7.8 20.5-22.8V9.5z" class="st0"/>
</svg>
