<?xml version="1.0" encoding="utf-8"?>
<!-- Generator: Adobe Illustrator 22.0.1, SVG Export Plug-In . SVG Version: 6.00 Build 0)  -->
<svg version="1.1" id="Layer_1" xmlns="http://www.w3.org/2000/svg" xmlns:xlink="http://www.w3.org/1999/xlink" x="0px" y="0px"
	 width="110px" height="32.6px" viewBox="0 0 110 32.6" style="enable-background:new 0 0 110 32.6;" xml:space="preserve">
<style type="text/css">
	.st0{fill:#FFFFFF;}
</style>
<path id="path6082" class="st0" d="M9.3,20.6l-2.9,8.6c-0.1,0.6,0.1,1.1,0.4,1.5c0.6,0.6,1.4,0.9,2.5,0.9v0.2H0v-0.2
	c2-0.1,3.2-0.8,3.6-2.1L13.5,0l12.2,29.7c0.4,1.1,1.5,1.8,3.3,1.9l0,0.2h-9.7v-0.2c1,0,1.8-0.3,2.2-0.8c0.3-0.2,0.3-0.6,0.2-1.1
	c-0.7-1.9-2-4.9-3.7-9H9.3z M9.9,18.8h7.4l-4-10L9.9,18.8z M90.2,2.7V2.5c6.5,0,10.7,0.1,12.5,0.3c1.5,0.2,2.8,0.7,4.1,1.7
	c1.3,0.9,2.2,2.1,2.7,3.5c0.3,0.9,0.5,1.9,0.5,2.9c0,2.1-0.6,3.9-1.9,5.3c-1.6,1.8-3.6,2.7-5.8,2.7c-0.8,0-1.6-0.1-2.4-0.4
	C99.3,18.3,99,18,99,17.8c1.5,0.1,2.6,0,3.2-0.1c1-0.3,2-0.8,2.8-1.7c0.9-0.9,1.4-1.8,1.6-2.9c0.1-0.5,0.2-1,0.2-1.4
	c0-2.7-1.2-4.8-3.5-6.3c-1.1-0.7-2.3-1.1-3.8-1.1c-0.8,0-1.6,0.1-2.3,0.4V29c0,1.5,1,2.3,3,2.6v0.2h-9.8v-0.2
	c1.4-0.2,2.4-0.7,2.9-1.6c0.2-0.3,0.3-1.5,0.3-3.4V5c0-1.2-0.7-1.9-2.2-2.2C91,2.8,90.6,2.7,90.2,2.7z M42.2,2.5
	c1.6,0,3.1,0.5,4.6,1.5c1.4,1,2.5,2.2,3.1,3.7c0.4,1,0.6,2.1,0.6,3.2c0,2.2-0.7,3.9-2,5.3c-0.6,0.7-1.4,1.3-2.4,1.9
	c2.1,2.7,5.1,6.2,8.9,10.7c1.3,1.5,3.1,2.3,5.3,2.2c0,0,0.1,0.1,0.1,0.2c-0.8,0.5-1.8,0.7-3,0.7c-1.4,0-2.7-0.4-3.8-1.1
	c-1.7-1.1-3.4-2.8-5.2-5.1c-2.9-3.8-4.4-5.7-4.5-5.8c-0.9-1-2-1.7-3.3-1.9V18c2.3,0.2,4.1-0.5,5.4-2c0.9-1.1,1.3-2.5,1.3-4.1
	c0-0.9-0.1-1.7-0.4-2.4c-0.4-1.2-1.2-2.3-2.3-3.2c-1.1-0.9-2.3-1.5-3.5-1.6c-1.4-0.2-2.5-0.1-3.3,0.2v24.4c0.1,0.6,0.4,1.1,1,1.6
	c0.5,0.4,1,0.7,1.6,0.8l0.8,0.1v0.2H31.2v-0.2c1.6-0.2,2.6-0.8,3-1.7l0.1-0.8V5.1c0-1-0.6-1.7-1.8-2.2c-0.5-0.1-1.1-0.2-1.8-0.3V2.5
	H42.2z M85.6,2.7c-2,0.3-3.1,1-3.3,2.1v18.3c-0.1,1.8-0.8,3.4-1.8,5c-1.1,1.5-2.5,2.7-4.1,3.5c-1.4,0.7-2.9,1-4.6,1
	c-2.2,0-4.1-0.5-5.7-1.6c-3.3-2.1-5-5.1-5-9V5c0-0.9-0.5-1.5-1.5-2c-0.1,0-0.7-0.1-1.7-0.3V2.5H68v0.2c-1.9,0.1-3,0.8-3.2,2.1V23
	c0,2.9,1.2,5.1,3.7,6.5c1.1,0.7,2.4,1,3.9,1c1.9,0,3.5-0.7,5.1-2c1.5-1.4,2.3-3,2.3-4.8l0-3.4V5.2c0-1-0.6-1.7-1.7-2.1
	c-0.2-0.1-0.8-0.2-1.7-0.4V2.5h9.3V2.7z"/>
</svg>
