<?xml version="1.0" encoding="utf-8"?>
<!-- Generator: Adobe Illustrator 22.0.1, SVG Export Plug-In . SVG Version: 6.00 Build 0)  -->
<svg version="1.1" id="Layer_1" xmlns="http://www.w3.org/2000/svg" xmlns:xlink="http://www.w3.org/1999/xlink" x="0px" y="0px"
	 width="186.7px" height="51.3px" viewBox="0 0 186.7 51.3" style="enable-background:new 0 0 186.7 51.3;" xml:space="preserve">
<style type="text/css">
	.st0{fill-rule:evenodd;clip-rule:evenodd;}
</style>
<g>
	<path class="st0" d="M11.9,18.4h10.3c4.6,0,12.7,1.9,12.7,9.1c0,6.6-4,9.4-10.3,9.4h-8.4c-3.8,0-4.3-1.3-4.3-7.3V18.4z M11.9,1.5
		h9.9c6.5,0,10,3.1,10,7.3c0,4.9-3.9,8.1-12.4,8.1h-7.4V1.5z M4.9,31.6c0,3.7-1.3,5.5-3.8,6.2C0.5,38,0,38,0,38.3
		c0,0.1,0.3,0.2,1.6,0.2c1,0,1.6-0.1,2.8-0.1h7.9c5.3,0,9.5,0.2,10.8,0.2c1.6,0,4.1-0.1,6.4-0.4c5.6-0.6,13.3-3,13.3-10.1
		c0-8-10-10.5-16.5-10.6v-0.1c5.3-0.5,12.9-2.1,12.9-8.9c0-7-10-8.6-15.7-8.6H2.9C2.3,0,1.6,0.1,1.6,0.3c0,0.3,0.4,0.4,1,0.6
		c2.3,0.8,2.4,2.5,2.4,5.8V31.6z"/>
	<path class="st0" d="M180.3,20.9c1.1-2.1,4.3-7.2,6.1-8.5c0.2-0.1,0.3-0.2,0.3-0.4c0-0.2-0.2-0.2-0.7-0.2s-2,0.2-4.2,0.2
		c-2.4,0-3.7-0.2-4.3-0.2c-0.4,0-0.7,0-0.7,0.2c0,0.3,0.2,0.4,0.5,0.5c1.5,0.4,2.5,1.4,2.5,3.3c0,2.1-1.6,5.7-3.4,9.3l-4.9,9.4
		l-8.1-15.1c-0.5-0.9-1.7-3.5-1.7-4.8c0-1.9,1.1-2,2.1-2.4c0.2-0.1,0.3-0.1,0.3-0.3c0-0.2-0.3-0.2-0.8-0.2c-1.8,0-2.4,0.2-5.1,0.2
		c-2.9,0-3.6-0.2-5.3-0.2c-0.4,0-0.8,0-0.8,0.2c0,0.2,0.1,0.2,0.3,0.3c1.9,0.9,2.7,2.5,3.6,4.1l8.2,16.4c1.2,2.4,2.9,5.9,2.9,8.1
		c0,3.1-1.9,6.7-5.4,6.7c-1.5,0-3.4-0.4-4-2c0-0.1-0.1-0.2-0.2-0.2c-0.2,0-0.3,0.6-0.5,1.3l-1.7,4.7c3.6,0.1,6.2-0.5,8.4-2.1
		c2.8-2,5-6,6.6-9.2L180.3,20.9z"/>
	<g>
		<path class="st0" d="M58.8,22.9c0,3.7-1.4,8.5-5.9,8.5c-2.7,0-4.8-2-4.8-4.9c0-5.1,4.3-6.3,8.4-6.3h2.3V22.9z M62.8,17.6
			c0-4.9-4.6-6.4-9-6.4c-3.4,0-5.9,0.3-9.1,1.9l1,3.5c0.1,0.2,0.1,0.4,0.2,0.4c0.1,0,0.2-0.3,0.3-0.7c1.4-3.4,3.5-4.4,7-4.4
			c3.9,0,5.6,2.6,5.6,6.3v1.3h-2.2c-4,0-13,0.6-13,6.4c0,4.6,4.1,6.4,8.1,6.4c3.4,0,5.6-1.4,7.1-4.5H59c0.1,1.3,0.4,2.7,0.9,3.9h4.2
			c0.3,0,0.5,0,0.5-0.2c0-0.1-0.2-0.1-0.4-0.2c-1.2-0.5-1.4-1.7-1.4-3V17.6z"/>
		<path class="st0" d="M72.9,11.6c-1.6,0.6-3.2,1-5,1.3c-0.3,0.1-0.8,0-0.8,0.2c0,0.1,0.2,0.2,0.6,0.3c1.4,0.3,1.5,1.7,1.5,4.4V27
			c0,3.2-0.3,4-2.1,4.7c-0.3,0-0.4,0.1-0.4,0.2c0,0.1,0.2,0.1,0.3,0.1c0.2,0,2-0.1,4.1-0.1c2.1,0,4,0.1,4.3,0.1c0.2,0,0.3,0,0.3-0.1
			c0-0.1-0.1-0.2-0.4-0.2c-2-0.4-2.2-2.2-2.2-4.6v-7.1c0-2.5,1.5-5.3,3.7-5.3c0.8,0,1.7,0.1,2.4,0.6l1.6-4c-3.6-0.2-6.3,2.2-7.8,5.4
			h-0.1V11.6z"/>
		<path class="st0" d="M87.3,11.6c-1.4,0.5-3,0.8-4.9,1.1c-0.5,0.1-0.7,0.1-0.7,0.2c0,0.1,0.3,0.2,0.7,0.4c1.1,0.5,1.4,1.8,1.4,4.1
			V27c0,2.4-0.2,4.2-2.1,4.6c-0.3,0-0.4,0.1-0.4,0.2c0,0.2,0.1,0.2,0.3,0.2c0.3,0,2-0.1,4.1-0.1c2.1,0,3.7,0.1,3.9,0.1
			c0.2,0,0.3,0,0.3-0.2c0-0.1-0.2-0.2-0.4-0.2c-1.7-0.3-1.9-2.1-1.9-4.6v-4.7c0-5.4,1.5-10.1,6.1-10.1c4.1,0,5.7,3.8,5.7,7.3V27
			c0,3.4-0.7,4.5-2.1,4.6c-0.3,0-0.3,0.2-0.3,0.2c0,0.1,0.2,0.1,0.4,0.1c0.5,0,1.9-0.1,4-0.1c2.1,0,3.1,0.1,3.5,0.1
			c0.4,0,0.6,0,0.6-0.1c0-0.1-0.2-0.2-0.5-0.3c-1.1-0.4-1.6-0.9-1.5-4.6v-7.4c0-6.1-4-8.3-8.2-8.3c-5.1,0-7,2.7-7.9,6h-0.1V11.6z"/>
		<path class="st0" d="M125.2,12.6c-2.1-0.8-4.9-1.5-7.2-1.5c-4.2,0-10.1,1.2-10.1,6.5c0,4.3,4.5,5.4,7.9,5.7
			c4.5,0.4,6.8,0.8,6.8,3.7c0,3.5-3.7,4.6-6.7,4.6c-2.7,0-7.3-1.3-7.9-4.4c0-0.2-0.1-0.3-0.2-0.3c-0.1,0-0.2,0.3-0.3,0.7l-0.8,3.2
			c2.9,1.1,6,1.5,9.1,1.5c4.4,0,10.8-1.3,10.8-6.8c0-3.7-2.5-5.1-7.9-5.5c-3.5-0.2-6.9-0.8-6.9-3.5c0-3.3,2.7-4.6,5.6-4.6
			c3.2,0,5.9,1.6,6.2,3.8c0,0.2,0.2,0.3,0.3,0.3c0.2,0,0.2-0.2,0.3-0.5L125.2,12.6z"/>
		<path class="st0" d="M134.4,21.8c0-8.1,4.2-9.6,6.8-9.6c2.5,0,6.7,1.5,6.7,9.6c0,8.1-4.2,9.6-6.7,9.6
			C138.6,31.4,134.4,29.9,134.4,21.8z M134.3,3.9c-1.9,0.5-3.5,0.9-5.3,1.2c-0.3,0-0.6,0.1-0.6,0.3c0,0.1,0.3,0.2,0.6,0.3
			c1.1,0.3,1.3,1.8,1.3,2.9v19.2c0,1.8-0.5,3-2.1,3.6c-0.2,0.1-0.2,0.2-0.2,0.3c0,0.2,0.6,0.2,1.2,0.2h3.6c0.8-1.3,1.1-2.4,1.3-3.6
			c1.7,2.5,4,4.2,8.2,4.2c5.6,0,10-5.1,10-10.6c0-6.7-5.5-10.6-10-10.6c-4.2,0-6.5,1.6-7.9,4.9h-0.1V3.9z"/>
	</g>
</g>
</svg>
