<?xml version="1.0" encoding="utf-8"?>
<!-- Generator: Adobe Illustrator 22.0.1, SVG Export Plug-In . SVG Version: 6.00 Build 0)  -->
<svg version="1.1" id="Layer_1" xmlns="http://www.w3.org/2000/svg" xmlns:xlink="http://www.w3.org/1999/xlink" x="0px" y="0px"
	 width="132px" height="36.3px" viewBox="0 0 132 36.3" style="enable-background:new 0 0 132 36.3;" xml:space="preserve">
<style type="text/css">
	.st0{fill-rule:evenodd;clip-rule:evenodd;fill:#FFFFFF;}
</style>
<g>
	<path class="st0" d="M8.4,13h7.3c3.3,0,9,1.4,9,6.5c0,4.7-2.8,6.6-7.3,6.6h-5.9c-2.7,0-3-0.9-3-5.1V13z M8.4,1.1h7
		c4.6,0,7,2.2,7,5.2c0,3.5-2.8,5.7-8.7,5.7H8.4V1.1z M3.5,22.3c0,2.6-0.9,3.9-2.7,4.4C0.3,26.8,0,26.8,0,27.1c0,0.1,0.2,0.2,1.1,0.2
		c0.7,0,1.1-0.1,2-0.1h5.6c3.7,0,6.7,0.2,7.6,0.2c1.1,0,2.9,0,4.5-0.3c3.9-0.4,9.4-2.1,9.4-7.1c0-5.7-7.1-7.4-11.7-7.5v-0.1
		c3.7-0.3,9.1-1.5,9.1-6.3c0-5-7.1-6.1-11.1-6.1H2C1.6,0,1.1,0,1.1,0.2c0,0.2,0.3,0.3,0.7,0.4c1.6,0.6,1.7,1.8,1.7,4.1V22.3z"/>
	<path class="st0" d="M127.5,14.7c0.8-1.5,3-5.1,4.3-6c0.1-0.1,0.2-0.2,0.2-0.3c0-0.2-0.2-0.2-0.5-0.2s-1.4,0.2-3,0.2
		c-1.7,0-2.6-0.2-3.1-0.2c-0.3,0-0.5,0-0.5,0.2c0,0.2,0.1,0.3,0.3,0.4c1,0.3,1.7,1,1.7,2.4c0,1.5-1.1,4-2.4,6.6l-3.4,6.6l-5.7-10.7
		c-0.4-0.7-1.2-2.5-1.2-3.4c0-1.4,0.8-1.4,1.5-1.7c0.2,0,0.2-0.1,0.2-0.2c0-0.2-0.2-0.2-0.5-0.2c-1.2,0-1.7,0.2-3.6,0.2
		c-2.1,0-2.5-0.2-3.8-0.2c-0.3,0-0.5,0-0.5,0.2c0,0.1,0.1,0.2,0.2,0.2c1.3,0.7,1.9,1.7,2.5,2.9l5.8,11.6c0.8,1.7,2.1,4.2,2.1,5.7
		c0,2.2-1.3,4.7-3.8,4.7c-1,0-2.4-0.3-2.8-1.4c0-0.1,0-0.2-0.1-0.2c-0.1,0-0.2,0.4-0.3,0.9l-1.2,3.3c2.6,0.1,4.4-0.3,6-1.5
		c2-1.4,3.6-4.3,4.7-6.5L127.5,14.7z"/>
	<g>
		<path class="st0" d="M41.6,16.2c0,2.6-1,6-4.2,6c-1.9,0-3.4-1.4-3.4-3.4c0-3.6,3-4.5,6-4.5h1.6V16.2z M44.4,12.5
			c0-3.4-3.3-4.6-6.4-4.6c-2.4,0-4.2,0.2-6.4,1.4l0.7,2.5c0.1,0.2,0.1,0.3,0.1,0.3c0.1,0,0.1-0.2,0.2-0.5c1-2.4,2.5-3.1,5-3.1
			c2.8,0,4,1.9,4,4.5v0.9H40c-2.9,0-9.2,0.4-9.2,4.6c0,3.2,2.9,4.6,5.8,4.6c2.4,0,4-1,5-3.2h0.1c0.1,1,0.3,1.9,0.7,2.8h2.9
			c0.2,0,0.4,0,0.4-0.1c0-0.1-0.1-0.1-0.3-0.2c-0.8-0.4-1-1.2-1-2.1V12.5z"/>
		<path class="st0" d="M51.6,8.2c-1.1,0.4-2.3,0.7-3.5,0.9c-0.2,0.1-0.5,0-0.6,0.1c0,0.1,0.1,0.1,0.4,0.2c1,0.2,1.1,1.2,1.1,3.1v6.5
			c0,2.3-0.2,2.8-1.5,3.3c-0.2,0-0.3,0.1-0.3,0.1c0,0.1,0.1,0.1,0.2,0.1c0.2,0,1.4-0.1,2.9-0.1c1.5,0,2.8,0.1,3,0.1
			c0.1,0,0.2,0,0.2-0.1c0-0.1-0.1-0.1-0.3-0.2c-1.4-0.3-1.6-1.6-1.6-3.3v-5c0-1.8,1-3.8,2.6-3.8c0.6,0,1.2,0.1,1.7,0.4l1.1-2.8
			c-2.6-0.1-4.5,1.6-5.5,3.8h-0.1V8.2z"/>
		<path class="st0" d="M61.7,8.2c-1,0.4-2.1,0.5-3.4,0.8c-0.3,0.1-0.5,0.1-0.5,0.1c0,0.1,0.2,0.1,0.5,0.3c0.8,0.3,1,1.3,1,2.9v6.8
			c0,1.7-0.1,3-1.5,3.2c-0.2,0-0.3,0.1-0.3,0.2c0,0.1,0.1,0.1,0.2,0.1c0.2,0,1.4-0.1,2.9-0.1c1.5,0,2.6,0.1,2.8,0.1
			c0.2,0,0.2,0,0.2-0.1c0-0.1-0.1-0.1-0.3-0.2c-1.2-0.2-1.3-1.5-1.3-3.2v-3.3c0-3.8,1.1-7.1,4.3-7.1c2.9,0,4,2.7,4,5.2v5.3
			c0,2.4-0.5,3.2-1.5,3.3c-0.2,0-0.2,0.1-0.2,0.2c0,0.1,0.1,0.1,0.3,0.1c0.4,0,1.3-0.1,2.8-0.1c1.5,0,2.2,0.1,2.5,0.1
			c0.3,0,0.4,0,0.4-0.1c0-0.1-0.2-0.1-0.4-0.2c-0.8-0.3-1.1-0.7-1.1-3.2v-5.3c0-4.3-2.8-5.9-5.8-5.9c-3.6,0-4.9,1.9-5.6,4.2h-0.1
			V8.2z"/>
		<path class="st0" d="M88.5,8.9c-1.5-0.6-3.5-1-5.1-1c-3,0-7.2,0.8-7.2,4.6c0,3,3.2,3.8,5.6,4c3.2,0.3,4.8,0.5,4.8,2.6
			c0,2.5-2.6,3.3-4.7,3.3c-1.9,0-5.2-1-5.6-3.1c0-0.1-0.1-0.2-0.2-0.2c-0.1,0-0.2,0.2-0.2,0.5l-0.6,2.3c2,0.8,4.3,1.1,6.4,1.1
			c3.1,0,7.6-0.9,7.6-4.8c0-2.6-1.7-3.6-5.6-3.9C81.3,14,79,13.6,79,11.7c0-2.3,1.9-3.3,4-3.3c2.2,0,4.1,1.1,4.4,2.7
			c0,0.2,0.1,0.2,0.2,0.2c0.1,0,0.2-0.1,0.2-0.3L88.5,8.9z"/>
		<path class="st0" d="M95,15.4c0-5.7,3-6.8,4.8-6.8c1.8,0,4.7,1.1,4.7,6.8c0,5.7-3,6.8-4.7,6.8C98,22.2,95,21.1,95,15.4z M95,2.7
			c-1.3,0.4-2.5,0.6-3.7,0.9c-0.2,0-0.4,0.1-0.4,0.2c0,0.1,0.2,0.2,0.4,0.2c0.8,0.2,0.9,1.3,0.9,2v13.6c0,1.3-0.4,2.2-1.5,2.6
			c-0.1,0.1-0.2,0.1-0.2,0.2c0,0.1,0.4,0.1,0.9,0.1h2.6c0.6-0.9,0.8-1.7,0.9-2.5c1.2,1.8,2.8,2.9,5.8,2.9c4,0,7.1-3.6,7.1-7.5
			c0-4.7-3.9-7.5-7.1-7.5c-3,0-4.6,1.1-5.6,3.5H95V2.7z"/>
	</g>
</g>
</svg>
