<?xml version="1.0" encoding="utf-8"?>
<!-- Generator: Adobe Illustrator 22.0.1, SVG Export Plug-In . SVG Version: 6.00 Build 0)  -->
<svg version="1.1" id="Layer_1" xmlns="http://www.w3.org/2000/svg" xmlns:xlink="http://www.w3.org/1999/xlink" x="0px" y="0px"
	 width="128px" height="40.5px" viewBox="0 0 128 40.5" style="enable-background:new 0 0 128 40.5;" xml:space="preserve">
<style type="text/css">
	.st0{fill:#FFFFFF;}
</style>
<g>
	<path class="st0" d="M53.2,14.3h1.4c2.6,0,3.6,1.4,3.6,3.2c0,1.5-0.5,3-1.5,4c-0.9,0.9-2.1,1.4-3.8,1.4c-0.4,0-0.9,0-1.4-0.1
		L53.2,14.3 M50.1,23.9c0.7,0.1,1.6,0.1,2.6,0.1c2.1,0,3.6-0.5,4.8-1.5c1.4-1.2,2.1-3.2,2.1-5.1c0-1.3-0.4-2.3-1-2.9
		c-0.8-0.9-2.1-1.4-3.9-1.4l-2.6,0L50.1,23.9z"/>
	<path class="st0" d="M65.9,18.1c0,1.2-1.6,1.5-3.7,1.4c0.3-1.2,1.2-2.4,2.5-2.4C65.4,17.2,65.9,17.5,65.9,18.1L65.9,18.1 M66,22.6
		c-0.5,0.3-1.2,0.5-2.1,0.5c-0.8,0-1.4-0.3-1.7-1c-0.2-0.4-0.2-1.1-0.2-1.5c2.8,0,5.1-0.5,5.1-2.5c0-1.1-0.8-2-2.2-2
		c-2.5,0-4.2,2.6-4.2,4.9c0,1.7,0.9,3.1,2.9,3.1c1,0,2-0.3,2.5-0.6L66,22.6z"/>
	<path class="st0" d="M69.6,20.5c0.4-2.2,1.7-3.3,2.7-3.3c1.1,0,1.5,1,1.5,1.8c0,2-1.4,4.1-3.1,4.1c-0.6,0-1.1-0.2-1.5-0.4
		L69.6,20.5 M68.4,27.1l0.6-3.3h0c0.3,0.2,0.8,0.3,1.6,0.3c2.5,0,4.5-2.5,4.5-5.2c0-1.4-0.7-2.8-2.3-2.8c-1.1,0-2.1,0.6-2.7,1.6h0
		l0.2-1.5H69c-0.1,0.8-0.3,1.8-0.4,2.7l-1.5,8.1H68.4z"/>
	<path class="st0" d="M81.7,19.6c-0.4,2-1.7,3.5-2.8,3.5c-1,0-1.3-0.8-1.3-1.7c0-2.1,1.6-4.2,3.6-4.2c0.4,0,0.7,0,0.9,0.1L81.7,19.6
		 M82.5,24c0-0.9,0.1-2.2,0.3-3.5l0.8-4c-0.5-0.2-1.3-0.3-2.1-0.3c-3.3,0-5.3,2.8-5.3,5.5c0,1.5,0.8,2.5,2.2,2.5
		c1.1,0,2.1-0.6,3-2.1h0c-0.1,0.8-0.2,1.5-0.2,2H82.5z"/>
	<path class="st0" d="M84.4,24l0.9-4.9c0.2-1,0.3-2,0.4-2.7h1.2c0,0.5-0.1,1.1-0.2,1.7h0c0.5-1,1.3-1.8,2.3-1.8c0.1,0,0.3,0,0.4,0
		l-0.3,1.3c-0.1,0-0.2,0-0.4,0c-1.1,0-2.1,1.4-2.5,3.1L85.7,24H84.4"/>
	<path class="st0" d="M95,24l1-5.4c0.2-0.9,0.3-1.6,0.3-2.2h1.2l-0.2,1.4h0c0.7-1.1,1.7-1.6,2.7-1.6c1.2,0,1.7,0.7,1.8,1.7
		c0.7-1.1,1.7-1.7,2.8-1.7c0.9,0,1.9,0.6,1.9,2c0,0.3,0,0.9-0.1,1.3l-0.9,4.5h-1.3l0.8-4.4c0.1-0.3,0.1-0.7,0.1-1
		c0-0.8-0.3-1.3-1.2-1.3c-0.9,0-2.1,1.1-2.4,2.8l-0.7,3.9h-1.3l0.9-4.5c0.1-0.3,0.1-0.6,0.1-0.9c0-0.6-0.2-1.3-1.1-1.3
		c-1,0-2.2,1.3-2.4,2.9L96.3,24H95"/>
	<path class="st0" d="M113,18.1c0,1.2-1.6,1.5-3.7,1.4c0.3-1.2,1.2-2.4,2.5-2.4C112.5,17.2,113,17.5,113,18.1L113,18.1 M113.1,22.6
		c-0.5,0.3-1.2,0.5-2.1,0.5c-0.8,0-1.4-0.3-1.7-1c-0.2-0.4-0.2-1.1-0.2-1.5c2.8,0,5.1-0.5,5.1-2.5c0-1.1-0.8-2-2.2-2
		c-2.5,0-4.2,2.6-4.2,4.9c0,1.7,0.9,3.1,2.9,3.1c1,0,2-0.3,2.5-0.6L113.1,22.6z"/>
	<path class="st0" d="M114.9,24l1-5.4c0.2-0.9,0.3-1.6,0.4-2.2h1.2l-0.2,1.5h0c0.7-1.1,1.7-1.7,2.8-1.7c0.9,0,1.9,0.5,1.9,2.1
		c0,0.3-0.1,0.8-0.1,1.2l-0.9,4.5h-1.3l0.8-4.4c0-0.3,0.1-0.6,0.1-1c0-0.8-0.3-1.3-1.2-1.3c-0.9,0-2.3,1.1-2.6,3l-0.7,3.7H114.9"/>
	<path class="st0" d="M93.4,13.7l-0.5,2.7h1.8l-0.2,1h-1.8L92,21.1c-0.1,0.4-0.2,0.8-0.2,1.2c0,0.5,0.2,0.7,0.7,0.7
		c0.2,0,0.4,0,0.6-0.1l-0.1,1c-0.2,0.1-0.6,0.1-1,0.1c-1.2,0-1.6-0.7-1.6-1.5c0-0.4,0.1-0.9,0.2-1.4l0.7-3.9h-1.1l0.2-1h1.1l0.5-2.2
		L93.4,13.7"/>
	<path class="st0" d="M126.7,13.7l-0.5,2.7h1.8l-0.2,1H126l-0.7,3.7c-0.1,0.4-0.2,0.8-0.2,1.2c0,0.5,0.2,0.7,0.7,0.7
		c0.2,0,0.4,0,0.6-0.1l-0.1,1c-0.2,0.1-0.6,0.1-1,0.1c-1.2,0-1.6-0.7-1.6-1.5c0-0.4,0.1-0.9,0.2-1.4l0.7-3.9h-1.1l0.2-1h1.1l0.5-2.2
		L126.7,13.7"/>
	<path class="st0" d="M50.9,39.4c-1.1,0-1.8-0.9-1.8-2.2c0-1.8,1.1-3.8,2.7-3.8c1.4,0,1.8,1.2,1.8,2.1
		C53.6,37.4,52.5,39.4,50.9,39.4L50.9,39.4 M50.8,40.5c2.6,0,4.2-2.5,4.2-4.8c0-1.6-0.9-3.2-3-3.2c-2.5,0-4.2,2.3-4.2,4.9
		C47.8,39,48.9,40.5,50.8,40.5L50.8,40.5z"/>
	<path class="st0" d="M56.1,40.3l1.2-6.6h-1l0.2-1h1l0.1-0.4c0.2-1.1,0.6-2,1.2-2.7c0.5-0.4,1.2-0.7,1.8-0.7c0.5,0,0.9,0.1,1.1,0.2
		l-0.3,1C61.3,30,61,30,60.7,30c-1,0-1.5,1-1.8,2.3l-0.1,0.4h1.7l-0.2,1h-1.7l-1.2,6.6H56.1"/>
	<polyline class="st0" points="68.1,29.1 67.2,33.9 72.1,33.9 73,29.1 74.3,29.1 72.2,40.3 70.9,40.3 71.9,35 67,35 66,40.3 
		64.7,40.3 66.8,29.1 68.1,29.1 	"/>
	<path class="st0" d="M79.7,34.5c0,1.2-1.6,1.5-3.7,1.4c0.3-1.2,1.2-2.4,2.5-2.4C79.2,33.5,79.7,33.8,79.7,34.5L79.7,34.5
		 M79.8,38.9c-0.5,0.3-1.2,0.5-2.1,0.5c-0.8,0-1.4-0.3-1.7-1c-0.2-0.4-0.2-1.1-0.2-1.5c2.8,0,5.1-0.5,5.1-2.5c0-1.1-0.8-2-2.2-2
		c-2.5,0-4.2,2.6-4.2,4.9c0,1.7,0.9,3.1,2.9,3.1c1,0,2-0.3,2.5-0.6L79.8,38.9z"/>
	<path class="st0" d="M87.1,35.9c-0.4,2-1.7,3.5-2.8,3.5c-1,0-1.3-0.8-1.3-1.7c0-2.1,1.6-4.2,3.6-4.2c0.4,0,0.7,0,0.9,0.1L87.1,35.9
		 M87.9,40.3c0-0.9,0.1-2.2,0.3-3.5l0.8-4c-0.5-0.2-1.3-0.3-2.1-0.3c-3.3,0-5.3,2.8-5.3,5.5c0,1.5,0.8,2.5,2.2,2.5
		c1.1,0,2.1-0.6,3-2.1h0c-0.1,0.8-0.2,1.5-0.2,2H87.9z"/>
	<polyline class="st0" points="89.8,40.3 91.9,29.1 93.2,29.1 91.1,40.3 89.8,40.3 	"/>
	<path class="st0" d="M97,30l-0.5,2.7h1.8l-0.2,1h-1.8l-0.7,3.7c-0.1,0.4-0.2,0.8-0.2,1.2c0,0.5,0.2,0.7,0.7,0.7
		c0.2,0,0.4,0,0.6-0.1l-0.1,1c-0.2,0.1-0.6,0.1-1,0.1c-1.2,0-1.6-0.7-1.6-1.5c0-0.4,0.1-0.9,0.2-1.4l0.7-3.9h-1.1l0.2-1h1.1l0.5-2.2
		L97,30"/>
	<path class="st0" d="M98.4,40.3l2.1-11.2h1.3l-0.9,4.9h0c0.6-0.9,1.6-1.5,2.7-1.5c0.9,0,1.9,0.5,1.9,2.1c0,0.4,0,0.9-0.1,1.3
		l-0.9,4.5h-1.3l0.9-4.4c0-0.3,0.1-0.6,0.1-1.1c0-0.7-0.3-1.2-1.2-1.2c-1,0-2.3,1.2-2.6,2.9l-0.7,3.8H98.4"/>
	<path class="st0" d="M14.4,26.9H9.9l1.6-10.4c0.1-0.5,0.2-1.5,0.2-2c0-0.4-0.2-0.9-0.6-1.3h5.4c3.2,0,5.2,2.2,5.2,5.7
		C21.7,22.8,19.4,26.9,14.4,26.9 M15.9,15.6h-1.2l-1.4,8.9h1.2c2.5,0,4.1-2.2,4.1-5.6C18.6,17.1,18,15.6,15.9,15.6z"/>
	<g>
		<path class="st0" d="M33.6,23.7c-0.1,0.5-0.2,1.5-0.2,2c0,0.4,0.2,0.9,0.6,1.3h-3.9L31,21h-4.3l-0.4,2.7c-0.1,0.5-0.2,1.5-0.2,2
			c0,0.4,0.2,0.9,0.6,1.3h-3.9l1.6-10.4c0.1-0.5,0.2-1.5,0.2-2c0-0.4-0.2-0.9-0.6-1.3h3.9l-0.8,5.3h4.3l0.3-2.1
			c0.1-0.5,0.2-1.5,0.2-2c0-0.4-0.2-0.9-0.6-1.3h3.9L33.6,23.7"/>
		<path class="st0" d="M37.1,33.7c7.7-6.5,10.8-16.4,6.8-24.2C39.5,0.9,28-2.3,17.2,1.7c0,0,0,0,0,0c0,0,0,0,0.1,0
			c6.7-1.5,14.4,1.3,19.4,7.6C42.6,17,42.6,27.3,37.1,33.7C37,33.7,37,33.7,37.1,33.7C37,33.7,37,33.7,37.1,33.7"/>
		<path class="st0" d="M8.5,6.7C0.8,13.3-2.2,23.1,1.7,31c4.4,8.6,15.9,11.8,26.7,7.8c0,0,0,0,0,0c0,0,0,0-0.1,0
			C21.7,40.1,14,37.4,9,31.1C3,23.5,3,13.2,8.5,6.7C8.6,6.8,8.6,6.8,8.5,6.7C8.6,6.7,8.6,6.7,8.5,6.7"/>
	</g>
</g>
</svg>
