<?xml version="1.0" encoding="utf-8"?>
<!-- Generator: Adobe Illustrator 22.0.1, SVG Export Plug-In . SVG Version: 6.00 Build 0)  -->
<svg version="1.1" id="Layer_1" xmlns="http://www.w3.org/2000/svg" xmlns:xlink="http://www.w3.org/1999/xlink" x="0px" y="0px"
	 width="154.8px" height="48.9px" viewBox="0 0 154.8 48.9" style="enable-background:new 0 0 154.8 48.9;" xml:space="preserve">
<g>
	<path d="M64.4,17.3h1.7c3.2,0,4.3,1.7,4.3,3.9c0,1.8-0.6,3.7-1.8,4.8c-1.1,1.1-2.6,1.7-4.6,1.7c-0.5,0-1.1,0-1.7-0.1L64.4,17.3
		 M60.6,28.9c0.8,0.1,2,0.2,3.1,0.2c2.5,0,4.4-0.6,5.8-1.8c1.6-1.4,2.6-3.8,2.6-6.1c0-1.6-0.5-2.8-1.2-3.5C70,16.6,68.3,16,66.1,16
		L63,16L60.6,28.9z"/>
	<path d="M79.7,21.9c0,1.4-1.9,1.8-4.4,1.7c0.4-1.5,1.5-2.9,3-2.9C79.1,20.8,79.7,21.2,79.7,21.9L79.7,21.9 M79.8,27.3
		c-0.6,0.3-1.4,0.6-2.5,0.6c-1,0-1.7-0.4-2.1-1.2C75,26.2,75,25.3,75,24.9c3.4,0.1,6.2-0.6,6.2-3c0-1.3-1-2.4-2.7-2.4
		c-3,0-5,3.2-5,5.9c0,2,1.1,3.7,3.5,3.7c1.2,0,2.4-0.3,3.1-0.7L79.8,27.3z"/>
	<path d="M84.2,24.8c0.5-2.6,2-4,3.3-4c1.4,0,1.8,1.2,1.8,2.1c0,2.4-1.7,5-3.7,5c-0.8,0-1.4-0.2-1.8-0.5L84.2,24.8 M82.7,32.8l0.7-4
		h0c0.4,0.2,1,0.4,2,0.4c3.1,0,5.4-3.1,5.4-6.3c0-1.7-0.8-3.3-2.8-3.3c-1.3,0-2.5,0.7-3.3,1.9h0l0.2-1.8h-1.5
		c-0.1,0.9-0.3,2.2-0.5,3.3l-1.9,9.7H82.7z"/>
	<path d="M98.7,23.7c-0.4,2.5-2,4.2-3.3,4.2c-1.2,0-1.6-1-1.6-2c0-2.6,2-5.1,4.4-5.1c0.5,0,0.9,0.1,1.1,0.1L98.7,23.7 M99.7,29
		c0-1,0.1-2.7,0.4-4.3l0.9-4.8c-0.6-0.2-1.6-0.3-2.5-0.3c-4,0-6.4,3.4-6.4,6.6c0,1.8,1,3.1,2.7,3.1c1.3,0,2.6-0.7,3.6-2.6h0
		c-0.1,1-0.2,1.8-0.2,2.4H99.7z"/>
	<path d="M102.1,29l1.1-6c0.2-1.2,0.4-2.4,0.5-3.3h1.4c-0.1,0.7-0.1,1.3-0.2,2h0.1c0.6-1.3,1.6-2.2,2.8-2.2c0.2,0,0.3,0,0.5,0
		l-0.3,1.6c-0.1,0-0.3,0-0.4,0c-1.4,0-2.6,1.7-3,3.8l-0.8,4.1H102.1"/>
	<path d="M114.9,29l1.2-6.6c0.2-1,0.3-1.9,0.4-2.7h1.4l-0.2,1.7h0.1c0.9-1.3,2-1.9,3.2-1.9c1.4,0,2.1,0.9,2.2,2.1
		c0.8-1.3,2-2,3.4-2.1c1.1,0,2.3,0.7,2.3,2.4c0,0.4-0.1,1.1-0.2,1.6l-1,5.5h-1.5l1-5.3c0.1-0.3,0.1-0.8,0.1-1.2c0-1-0.4-1.6-1.4-1.6
		c-1.1,0-2.5,1.3-2.9,3.4L122,29h-1.5l1-5.4c0.1-0.4,0.1-0.8,0.1-1.1c0-0.8-0.2-1.6-1.4-1.6c-1.2,0-2.6,1.5-3,3.5l-0.9,4.6H114.9"/>
	<path d="M136.6,21.9c0,1.4-1.9,1.8-4.4,1.7c0.4-1.5,1.5-2.9,3-2.9C136.1,20.8,136.6,21.2,136.6,21.9L136.6,21.9 M136.8,27.3
		c-0.6,0.3-1.4,0.6-2.5,0.6c-1,0-1.7-0.4-2.1-1.2c-0.2-0.5-0.3-1.4-0.2-1.8c3.4,0.1,6.2-0.6,6.2-3c0-1.3-1-2.4-2.7-2.4
		c-3,0-5,3.2-5,5.9c0,2,1.1,3.7,3.5,3.7c1.2,0,2.4-0.3,3.1-0.7L136.8,27.3z"/>
	<path d="M139,29l1.2-6.6c0.2-1,0.3-1.9,0.4-2.7h1.4l-0.2,1.8h0c0.8-1.3,2.1-2,3.4-2c1.1,0,2.3,0.6,2.3,2.6c0,0.4-0.1,1-0.2,1.5
		l-1,5.4h-1.6l1-5.4c0.1-0.3,0.1-0.8,0.1-1.2c0-0.9-0.4-1.6-1.5-1.6c-1.1,0-2.7,1.4-3.2,3.7l-0.8,4.5H139"/>
	<path d="M113,16.5l-0.7,3.2h2.2l-0.2,1.2h-2.2l-0.8,4.5c-0.1,0.5-0.2,1-0.2,1.5c0,0.6,0.3,0.9,0.9,0.9c0.3,0,0.5,0,0.7-0.1
		l-0.1,1.2c-0.3,0.1-0.8,0.2-1.2,0.2c-1.4,0-1.9-0.8-1.9-1.8c0-0.5,0.1-1.1,0.2-1.7l0.9-4.7h-1.3l0.2-1.2h1.3l0.6-2.7L113,16.5"/>
	<path d="M153.2,16.5l-0.7,3.2h2.2l-0.2,1.2h-2.2l-0.8,4.5c-0.1,0.5-0.2,1-0.2,1.5c0,0.6,0.3,0.9,0.9,0.9c0.3,0,0.5,0,0.7-0.1
		l-0.1,1.2c-0.3,0.1-0.8,0.2-1.2,0.2c-1.4,0-2-0.8-2-1.8c0-0.5,0.1-1.1,0.2-1.7l0.9-4.7h-1.3l0.2-1.2h1.3l0.6-2.7L153.2,16.5"/>
	<path d="M61.6,47.7c-1.3,0-2.2-1.1-2.2-2.6c0-2.1,1.3-4.5,3.3-4.5c1.7,0,2.2,1.5,2.2,2.6C64.9,45.3,63.5,47.7,61.6,47.7L61.6,47.7
		 M61.4,48.9c3.1,0,5.1-3,5.1-5.8c0-1.9-1.1-3.8-3.6-3.8c-3,0-5.1,2.8-5.1,5.9C57.8,47.2,59.1,48.9,61.4,48.9L61.4,48.9z"/>
	<path d="M67.9,48.7l1.5-8h-1.2l0.2-1.2h1.2l0.1-0.5c0.2-1.3,0.7-2.5,1.5-3.2c0.6-0.5,1.4-0.8,2.2-0.8c0.7,0,1.1,0.1,1.3,0.2
		l-0.3,1.3c-0.2-0.1-0.6-0.2-0.9-0.2c-1.3,0-1.9,1.2-2.1,2.8l-0.1,0.4h2.1L73,40.7h-2l-1.5,8H67.9"/>
	<polyline points="82.4,35.1 81.3,40.9 87.2,40.9 88.3,35.1 89.9,35.1 87.3,48.7 85.7,48.7 86.9,42.3 81,42.3 79.8,48.7 78.2,48.7 
		80.8,35.1 82.4,35.1 	"/>
	<path d="M96.4,41.7c0,1.4-1.9,1.8-4.4,1.7c0.4-1.5,1.5-2.9,3-2.9C95.8,40.5,96.4,40.9,96.4,41.7L96.4,41.7 M96.5,47
		c-0.6,0.3-1.4,0.6-2.5,0.6c-1,0-1.7-0.4-2.1-1.2c-0.2-0.5-0.3-1.4-0.2-1.8c3.4,0.1,6.2-0.6,6.2-3c0-1.3-1-2.4-2.7-2.4
		c-3,0-5,3.2-5,5.9c0,2,1.1,3.7,3.5,3.7c1.2,0,2.4-0.3,3.1-0.7L96.5,47z"/>
	<path d="M105.3,43.4c-0.4,2.5-2,4.2-3.3,4.2c-1.2,0-1.6-1-1.6-2c0-2.6,2-5.1,4.4-5.1c0.5,0,0.9,0.1,1.1,0.1L105.3,43.4 M106.3,48.7
		c0-1,0.1-2.7,0.4-4.3l0.9-4.8c-0.6-0.2-1.6-0.3-2.5-0.3c-4,0-6.4,3.4-6.4,6.6c0,1.8,1,3.1,2.7,3.1c1.3,0,2.6-0.7,3.6-2.6h0
		c-0.1,1-0.2,1.8-0.2,2.4H106.3z"/>
	<polyline points="108.6,48.7 111.1,35.1 112.7,35.1 110.1,48.7 108.6,48.7 	"/>
	<path d="M117.3,36.3l-0.7,3.2h2.2l-0.2,1.2h-2.2l-0.8,4.5c-0.1,0.5-0.2,1-0.2,1.5c0,0.6,0.3,0.9,0.9,0.9c0.3,0,0.5,0,0.7-0.1
		l-0.1,1.2c-0.3,0.1-0.8,0.2-1.2,0.2c-1.4,0-1.9-0.8-1.9-1.8c0-0.5,0.1-1.1,0.2-1.7l0.9-4.7h-1.3l0.2-1.2h1.3l0.6-2.7L117.3,36.3"/>
	<path d="M119,48.7l2.6-13.6h1.6l-1.1,5.9h0c0.8-1.1,1.9-1.8,3.3-1.8c1.1,0,2.3,0.6,2.3,2.5c0,0.5-0.1,1.1-0.2,1.5l-1,5.4h-1.6
		l1-5.4c0.1-0.3,0.1-0.8,0.1-1.3c0-0.8-0.4-1.5-1.4-1.5c-1.2,0-2.8,1.4-3.2,3.5l-0.9,4.6H119"/>
	<path d="M17.4,32.5h-5.5l2-12.6c0.1-0.7,0.2-1.9,0.2-2.4c0-0.5-0.2-1-0.7-1.5h6.5c3.9,0,6.3,2.7,6.3,6.9
		C26.2,27.6,23.5,32.5,17.4,32.5 M19.2,18.8h-1.5L16,29.7h1.5c3,0,4.9-2.6,4.9-6.8C22.4,20.6,21.8,18.8,19.2,18.8z"/>
	<g>
		<path d="M40.6,28.6c-0.1,0.7-0.2,1.9-0.2,2.4c0,0.5,0.2,1,0.7,1.5h-4.7l1.1-7.1h-5.2l-0.5,3.2c-0.1,0.7-0.2,1.9-0.2,2.4
			c0,0.5,0.2,1,0.7,1.5h-4.7l2-12.6c0.1-0.7,0.2-1.9,0.2-2.4c0-0.5-0.2-1-0.7-1.5h4.7l-1,6.5h5.2l0.4-2.6c0.1-0.7,0.2-1.9,0.2-2.4
			c0-0.5-0.2-1-0.7-1.5h4.7L40.6,28.6"/>
		<path d="M44.8,40.8c9.3-7.9,13-19.8,8.2-29.3C47.7,1,33.8-2.8,20.8,2.1c0,0,0,0,0,0.1c0,0,0,0,0.1,0c8.1-1.8,17.4,1.5,23.4,9.1
			C51.5,20.5,51.5,33,44.8,40.8C44.7,40.7,44.7,40.7,44.8,40.8C44.7,40.8,44.8,40.8,44.8,40.8"/>
		<path d="M10.3,8.2C1,16.1-2.7,28,2.1,37.4c5.3,10.4,19.2,14.2,32.2,9.4c0,0,0,0,0-0.1c0,0,0,0-0.1,0c-8.1,1.8-17.4-1.5-23.4-9.1
			C3.6,28.4,3.6,15.9,10.3,8.2C10.4,8.2,10.4,8.2,10.3,8.2C10.4,8.2,10.4,8.1,10.3,8.2"/>
	</g>
</g>
</svg>
