<?xml version="1.0" encoding="utf-8"?>
<!-- Generator: Adobe Illustrator 22.0.1, SVG Export Plug-In . SVG Version: 6.00 Build 0)  -->
<svg version="1.1" id="Layer_1" xmlns="http://www.w3.org/2000/svg" xmlns:xlink="http://www.w3.org/1999/xlink" x="0px" y="0px"
	 width="56px" height="77.4px" viewBox="0 0 56 77.4" style="enable-background:new 0 0 56 77.4;" xml:space="preserve">
<style type="text/css">
	.st0{fill:#FFFFFF;}
</style>
<g>
	<path class="st0" d="M38.2,59.4c0.5-2.1,1.1-4.3,1.1-4.3c-1.6,0.6-3,0.9-4.6,1.3C16.6,59.9,6.3,54.8,3.8,43.4
		c-0.7-3.2-0.4-6.7,0.8-10.4c4.1-12.7,15.7-20.5,32.3-20.5c0.8,0,1.7,0,2.5,0c6.6,0.3,13.2,0.5,16.5,0.6V0H0v65.4h35.5
		C36.8,63.5,37.7,61.6,38.2,59.4z"/>
	<g>
		<path class="st0" d="M45.9,29.4c0.1,0,0.2-0.1,0.3-0.1c0.5-0.2,0.7-0.7,0.7-1.4c0-0.6-0.3-1.1-0.7-1.4c-0.1-0.1-0.2-0.1-0.3-0.1
			c-0.9-0.2-1.7,0.4-1.7,1.5C44.1,28.9,45,29.6,45.9,29.4z"/>
		<path class="st0" d="M50.1,27c0-0.4-0.3-0.6-0.7-0.6h-0.5v1.3h0.5C49.9,27.7,50.2,27.4,50.1,27z"/>
		<path class="st0" d="M32.7,40.2c-0.1-0.1-0.2-0.1-0.3-0.1c-0.9-0.2-1.7,0.4-1.7,1.5c0,1.1,0.8,1.7,1.7,1.5c0.1,0,0.2-0.1,0.3-0.1
			c0.5-0.2,0.7-0.7,0.7-1.4C33.4,40.9,33.1,40.5,32.7,40.2z"/>
		<path class="st0" d="M44.8,34.7c0-1-0.7-1.7-1.6-1.7h-0.6v3.4h0.7C44.2,36.4,44.8,35.8,44.8,34.7z"/>
		<path class="st0" d="M48.5,33.1H48v3.4h0.7c0.9,0,1.6-0.6,1.6-1.7C50.2,33.7,49.5,33.1,48.5,33.1z"/>
		<path class="st0" d="M53.4,19.4c-0.1,0.2-0.1,0.5-0.2,0.7c-2.5-3.3-6.2-5.1-12.7-5.6c-14.2-1-25.3,6-29.7,18.1
			c-0.4,1.1-0.8,2.2-1,3.4c-2.9,13.5,7.5,22.2,21.5,19c2.6-0.6,5.3-1.6,7.9-2.9l7.2-4.5c0,0-1.4,5.6-2.8,11.2
			c-0.6,2.4-1.8,4.6-3.6,6.5h15.9V15C54.8,16.1,54,17.5,53.4,19.4z M48.3,25.9h1.3c0.5,0,1,0.3,1.1,0.7c0.2,0.5-0.1,1-0.5,1.2
			c-0.1,0-0.1,0-0.2,0.1c0.1,0,0.2,0.1,0.3,0.2l0.1,0.1l0.1,0.1l0.5,0.8l0.4,0.6h-0.6l-0.3-0.5c-0.3-0.6-0.5-0.8-0.5-0.9
			c-0.2-0.3-0.4-0.4-0.6-0.4h-0.4v1.8h-0.6V25.9z M45.5,25.9c0.9,0,1.7,0.6,1.9,1.4c0.4,1.4-0.5,2.6-1.9,2.6c-1.1,0-2-0.8-2-2
			C43.6,26.7,44.4,25.9,45.5,25.9z M46,34c0.5,1.8-0.7,3.4-2.5,3.4h-2.1v-5.2h2.1C44.7,32.2,45.7,32.9,46,34z M39.5,27.3
			c0.3-1.1,1.5-1.7,3-1.2c0.1,0,0.1,0,0.2,0.1v0.5c-0.1,0-0.1-0.1-0.2-0.1c-1.2-0.5-2.2,0-2.4,0.9c-0.3,1.2,0.5,2.1,1.7,2
			c0.1,0,0.2,0,0.3-0.1c0,0,0.1,0,0.1,0v-0.9h-0.6v-0.4h1.2v1.7c-0.1,0-0.3,0.1-0.5,0.1c-0.1,0-0.3,0-0.4,0.1
			C40.1,30.1,39,28.8,39.5,27.3z M40.6,34.3v0.9h-1.9v1.3h2.1v0.9h-3.3v-5.2h3.3v0.9h-2v1.2H40.6z M35,25.9h0.5l2.3,2.9
			c0,0,0.1,0.1,0.1,0.2c0,0,0,0,0,0.1v-3.1h0.6v3.9H38l-2.3-2.9c-0.1-0.1-0.1-0.1-0.1-0.2v3.1H35V25.9z M36.7,32.2v5.2h-1.1L33,34.2
			c-0.1-0.1-0.1-0.2-0.1-0.4v3.5h-1.2v-5.2h1.1l2.6,3.1c0.1,0.1,0.1,0.2,0.1,0.3c0,0,0,0.1,0,0.1v-3.5H36.7z M31.9,25.9l0.9,1.3
			c0,0,0.1,0.1,0.1,0.2c0,0,0,0,0,0.1c0-0.1,0-0.1,0-0.2c0-0.1,0-0.1,0.1-0.1l0.9-1.3h0.7l-1.4,1.9v2h-0.6v-2l-1.4-1.9H31.9z
			 M27.6,27.3c0.3-1.2,1.7-1.8,3-1.2c0.1,0,0.1,0,0.2,0.1v0.5c-0.1,0-0.1-0.1-0.2-0.1c-1.2-0.5-2.2-0.1-2.4,0.8
			c-0.3,1.1,0.4,2,1.5,2c0.3,0,0.7-0.1,1-0.2c0.1,0,0.1-0.1,0.2-0.1v0.5c-0.4,0.2-0.8,0.3-1.3,0.3C28.1,29.9,27.2,28.7,27.6,27.3z
			 M18.5,37.2c-0.2,0.1-0.4,0.1-0.8,0.1c-0.2,0-0.4,0.1-0.5,0.1c-2.5,0.2-3.9-1.4-3.3-3.4c0.4-1.5,2.1-2.4,4.2-1.7
			c0.1,0,0.2,0.1,0.3,0.1v1c-0.1-0.1-0.2-0.1-0.3-0.2c-0.2-0.1-0.5-0.2-0.7-0.2c-1.3-0.2-2.2,0.6-2.2,1.7c0,1,0.8,1.8,1.9,1.7
			c0.1,0,0.1,0,0.2,0l0.1,0l0.1,0v-0.8h-0.6v-0.9h1.8V37.2z M29.3,43.3c-0.4,0.2-0.8,0.3-1.3,0.3c-1.4,0-2.3-1.2-1.9-2.6
			c0.3-1.2,1.7-1.8,3-1.2c0.1,0,0.1,0,0.2,0.1v0.5c-0.1,0-0.1-0.1-0.2-0.1c-1.2-0.5-2.2-0.1-2.4,0.8c-0.3,1.1,0.4,2,1.5,2
			c0.3,0,0.7-0.1,1-0.2c0.1,0,0.1-0.1,0.2-0.1V43.3z M29.6,37.4h-1.2v-2.5l-1.6-2.4l-1.9,4.9H24l-1.2-3.3c0-0.1-0.1-0.2-0.1-0.4
			c0,0,0-0.1,0-0.1c0,0.1,0,0.2,0,0.3c0,0.1,0,0.2-0.1,0.3l-1.2,3.3h-0.8l-2-5.2H20l1,2.9c0,0.1,0.1,0.2,0.1,0.4c0,0.1,0,0.1,0,0.2
			c0-0.1,0-0.2,0-0.3c0-0.1,0-0.2,0.1-0.2l1-2.9h1l1,2.9c0,0.1,0.1,0.2,0.1,0.4c0,0,0,0.1,0,0.1c0-0.1,0-0.2,0-0.3
			c0-0.1,0-0.2,0.1-0.2l1-2.9h1h0.3H28l0.9,1.4c0.1,0.1,0.1,0.2,0.1,0.3c0,0,0,0.1,0,0.1c0-0.1,0-0.2,0.1-0.3c0-0.1,0.1-0.2,0.1-0.2
			l0.9-1.4h1.4l-1.9,2.7V37.4z M32,43.6c-1.1,0-2-0.8-2-2c0-1.2,0.8-2,2-2c0.9,0,1.7,0.6,1.9,1.4C34.2,42.4,33.3,43.6,32,43.6z
			 M38.1,42c0,1-0.6,1.6-1.6,1.6c-1.1,0-1.7-0.6-1.7-1.6v-2.4h0.6V42c0,0.7,0.4,1.2,1.1,1.2c0.7,0,1.1-0.4,1.1-1.2v-2.3h0.6V42z
			 M42.6,43.5H42l-2.3-2.9c-0.1-0.1-0.1-0.1-0.1-0.2v3.1H39v-3.9h0.5l2.3,2.9c0,0,0.1,0.1,0.1,0.2c0,0,0,0,0,0.1v-3.1h0.6V43.5z
			 M46.7,43.3c-0.4,0.2-0.8,0.3-1.3,0.3c-1.4,0-2.3-1.2-1.9-2.6c0.3-1.2,1.7-1.8,3-1.2c0.1,0,0.1,0,0.2,0.1v0.5
			c-0.1,0-0.1-0.1-0.2-0.1c-1.2-0.5-2.2-0.1-2.4,0.8c-0.3,1.1,0.4,2,1.5,2c0.3,0,0.7-0.1,1-0.2c0.1,0,0.1-0.1,0.2-0.1V43.3z
			 M48.1,43.5h-0.6v-3.9h0.6V43.5z M51.4,43.5H49v-3.9h0.6v3.5h1.8V43.5z M48.8,37.4h-2.1v-5.2h2.1c1.2,0,2.2,0.7,2.5,1.8
			C51.9,35.8,50.7,37.4,48.8,37.4z"/>
	</g>
	<path class="st0" d="M35.9,68.7c-2.8,1.6-4.8,2.3-6.6,2.6c0.2-0.2,0.6-0.4,0.8-0.6c1.5-1.1,2.8-2.2,3.9-3.4H0v10.2h56V67.2H38
		C37.4,67.8,36.7,68.3,35.9,68.7z"/>
</g>
</svg>
