<?xml version="1.0" encoding="utf-8"?>
<!-- Generator: Adobe Illustrator 22.0.1, SVG Export Plug-In . SVG Version: 6.00 Build 0)  -->
<svg version="1.1" id="Layer_1" xmlns="http://www.w3.org/2000/svg" xmlns:xlink="http://www.w3.org/1999/xlink" x="0px" y="0px"
	 width="75.1px" height="103.8px" viewBox="0 0 75.1 103.8" style="enable-background:new 0 0 75.1 103.8;" xml:space="preserve">
<g>
	<path d="M51.3,79.7c0.7-2.8,1.4-5.7,1.4-5.7c-2.2,0.8-4,1.3-6.2,1.7c-24.3,4.8-38-2.1-41.4-17.3c-0.9-4.2-0.6-8.9,1-13.9
		c5.5-17,21.1-27.5,43.4-27.6c1.1,0,2.3,0,3.4,0c8.8,0.3,17.6,0.7,22.1,0.9V0H0v87.7h47.6C49.3,85.2,50.5,82.6,51.3,79.7z"/>
	<g>
		<path d="M61.6,39.4c0.2,0,0.3-0.1,0.4-0.2c0.6-0.3,1-1,1-1.8c0-0.9-0.4-1.5-1-1.8c-0.1-0.1-0.3-0.1-0.4-0.2
			c-1.2-0.3-2.3,0.6-2.3,2C59.2,38.8,60.3,39.7,61.6,39.4z"/>
		<path d="M67.3,36.2c0-0.5-0.4-0.8-1-0.8h-0.7v1.8h0.7C66.9,37.1,67.3,36.7,67.3,36.2z"/>
		<path d="M43.8,54c-0.1-0.1-0.3-0.1-0.4-0.2c-1.2-0.3-2.3,0.6-2.3,2s1.1,2.3,2.3,2c0.2,0,0.3-0.1,0.4-0.2c0.6-0.3,1-1,1-1.8
			C44.8,54.9,44.4,54.3,43.8,54z"/>
		<path d="M60.1,46.6c0-1.4-0.9-2.2-2.2-2.2h-0.8v4.5H58C59.3,48.9,60.1,48,60.1,46.6z"/>
		<path d="M65.1,44.4h-0.8v4.5h0.9c1.2,0,2.1-0.8,2.1-2.3C67.3,45.2,66.4,44.4,65.1,44.4z"/>
		<path d="M71.6,26c-0.1,0.3-0.2,0.7-0.2,1c-3.3-4.4-8.3-6.8-17.1-7.5c-19-1.3-33.9,8-39.8,24.3c-0.6,1.5-1,3-1.3,4.6
			C9.3,66.6,23.2,78.2,42.1,73.8c3.6-0.9,7.1-2.2,10.6-3.9l9.6-6c0,0-1.9,7.5-3.7,15c-0.8,3.2-2.5,6.2-4.8,8.7H75V20.1
			C73.5,21.6,72.4,23.4,71.6,26z M64.8,34.8h1.7c0.7,0,1.3,0.4,1.5,1c0.2,0.7-0.1,1.4-0.6,1.6c-0.1,0-0.1,0.1-0.2,0.1
			c0.1,0.1,0.3,0.1,0.4,0.3l0.1,0.2l0.1,0.1l0.6,1.1l0.5,0.8H68l-0.4-0.6c-0.4-0.8-0.6-1.1-0.7-1.2c-0.3-0.4-0.5-0.5-0.8-0.5h-0.5
			V40h-0.8V34.8z M61.1,34.7c1.2,0,2.2,0.8,2.5,1.9c0.5,1.9-0.7,3.5-2.5,3.5c-1.5,0-2.6-1.1-2.6-2.7C58.5,35.8,59.6,34.7,61.1,34.7z
			 M61.7,45.6c0.7,2.4-0.9,4.5-3.3,4.5h-2.9v-7h2.8C59.9,43.1,61.3,44.1,61.7,45.6z M52.9,36.6c0.4-1.5,2.1-2.3,4-1.7
			c0.1,0,0.2,0.1,0.2,0.1v0.7c-0.1,0-0.2-0.1-0.3-0.1c-1.6-0.6-2.9,0-3.2,1.2c-0.4,1.6,0.7,2.8,2.3,2.6c0.2,0,0.3,0,0.4-0.1
			c0,0,0.1,0,0.1,0v-1.3h-0.8v-0.6h1.6v2.3c-0.2,0.1-0.4,0.1-0.6,0.2c-0.2,0-0.3,0.1-0.5,0.1C53.8,40.3,52.3,38.7,52.9,36.6z
			 M54.5,46v1.2h-2.6v1.7h2.8v1.2h-4.5v-7h4.4v1.2h-2.7V46H54.5z M47,34.8h0.7l3.1,3.9c0.1,0.1,0.1,0.1,0.1,0.2c0,0,0,0.1,0,0.1
			v-4.2h0.8V40H51l-3.1-3.9c-0.1-0.1-0.1-0.2-0.1-0.3V40H47V34.8z M49.3,43.1v7h-1.5l-3.5-4.2c-0.1-0.1-0.2-0.3-0.2-0.5v4.7h-1.7v-7
			H44l3.4,4.2c0.1,0.1,0.1,0.2,0.2,0.4c0,0,0,0.1,0,0.1v-4.7H49.3z M42.7,34.8l1.2,1.7c0,0,0.1,0.1,0.1,0.3c0,0,0,0.1,0,0.1
			c0-0.1,0-0.2,0-0.2c0-0.1,0.1-0.2,0.1-0.2l1.3-1.7h0.9l-1.9,2.5V40h-0.8v-2.7l-1.9-2.5H42.7z M37.1,36.7c0.4-1.6,2.2-2.4,4-1.6
			c0.1,0,0.1,0.1,0.2,0.1v0.7c-0.1,0-0.1-0.1-0.2-0.1c-1.5-0.7-2.9-0.1-3.3,1.1c-0.4,1.5,0.5,2.7,2,2.6c0.5,0,0.9-0.1,1.3-0.3
			c0.1,0,0.2-0.1,0.2-0.1v0.7c-0.5,0.3-1.1,0.4-1.7,0.4C37.8,40.1,36.5,38.6,37.1,36.7z M24.8,49.9c-0.3,0.1-0.6,0.1-1,0.2
			c-0.2,0-0.5,0.1-0.7,0.1c-3.4,0.3-5.2-1.8-4.5-4.6c0.6-2,2.8-3.2,5.6-2.2c0.1,0,0.2,0.1,0.3,0.1v1.4c-0.1-0.1-0.3-0.1-0.4-0.2
			c-0.3-0.1-0.6-0.2-1-0.3c-1.8-0.3-3,0.8-3,2.3c0,1.4,1,2.4,2.6,2.3c0.1,0,0.2,0,0.3,0l0.1,0l0.1,0v-1.1h-0.9v-1.2h2.5V49.9z
			 M39.4,58.1c-0.5,0.3-1.1,0.4-1.7,0.4c-1.9,0-3.1-1.5-2.6-3.4c0.4-1.6,2.2-2.4,4-1.6c0.1,0,0.1,0.1,0.2,0.1v0.7
			c-0.1,0-0.1-0.1-0.2-0.1c-1.5-0.7-2.9-0.1-3.3,1.1c-0.4,1.5,0.5,2.7,2,2.6c0.5,0,0.9-0.1,1.3-0.3c0.1,0,0.2-0.1,0.2-0.1V58.1z
			 M39.7,50.1H38v-3.3l-2.2-3.2l-2.5,6.6h-1l-1.5-4.4c0-0.1-0.1-0.3-0.1-0.5c0,0,0-0.1,0-0.2c0,0.1,0,0.2,0,0.3c0,0.2,0,0.3-0.1,0.3
			l-1.6,4.4h-1l-2.7-7h1.8l1.4,3.9c0,0.1,0.1,0.3,0.1,0.5c0,0.1,0,0.1,0,0.2c0-0.1,0-0.3,0-0.4c0-0.1,0-0.2,0.1-0.3l1.3-3.8h1.4
			l1.3,3.8c0,0.1,0.1,0.3,0.1,0.5c0,0.1,0,0.1,0,0.2c0-0.1,0-0.3,0.1-0.4c0-0.1,0-0.2,0.1-0.3l1.4-3.9h1.3h0.4h1.6l1.2,1.9
			c0.1,0.1,0.1,0.3,0.2,0.4c0,0.1,0,0.1,0,0.2c0-0.1,0-0.3,0.1-0.4c0-0.1,0.1-0.2,0.1-0.3l1.2-1.9h1.9l-2.6,3.7V50.1z M42.9,58.5
			c-1.5,0-2.6-1.1-2.6-2.7c0-1.6,1.1-2.7,2.6-2.7c1.2,0,2.2,0.8,2.5,1.9C45.9,56.9,44.7,58.5,42.9,58.5z M51.1,56.3
			c0,1.3-0.8,2.1-2.2,2.1c-1.4,0-2.2-0.8-2.2-2.1v-3.2h0.8v3.1c0,0.9,0.6,1.5,1.5,1.5c0.9,0,1.5-0.6,1.5-1.5v-3.1h0.8V56.3z
			 M57.1,58.4h-0.7l-3.1-3.9c-0.1-0.1-0.1-0.2-0.1-0.3v4.2h-0.8v-5.2h0.7l3.1,3.9c0.1,0.1,0.1,0.1,0.1,0.2c0,0,0,0.1,0,0.1v-4.2h0.8
			V58.4z M62.6,58.1c-0.5,0.3-1.1,0.4-1.7,0.4c-1.9,0-3.1-1.5-2.6-3.4c0.4-1.6,2.2-2.4,4-1.6c0.1,0,0.1,0.1,0.2,0.1v0.7
			c-0.1,0-0.1-0.1-0.2-0.1c-1.5-0.7-2.9-0.1-3.3,1.1c-0.4,1.5,0.5,2.7,2,2.6c0.5,0,0.9-0.1,1.3-0.3c0.1,0,0.2-0.1,0.2-0.1V58.1z
			 M64.5,58.4h-0.8v-5.2h0.8V58.4z M68.9,58.4h-3.2v-5.2h0.8v4.6h2.4V58.4z M65.5,50.1h-2.9v-7h2.8c1.6,0,2.9,1,3.4,2.5
			C69.6,48,68,50.1,65.5,50.1z"/>
	</g>
	<path d="M48.1,92.2c-3.8,2.2-6.5,3.1-8.9,3.4c0.3-0.2,0.7-0.5,1.1-0.8c2-1.5,3.8-3,5.2-4.6H0v13.6h75.1V90.2H51
		C50.1,90.9,49.2,91.6,48.1,92.2z"/>
</g>
</svg>
