<?xml version="1.0" encoding="utf-8"?>
<!-- Generator: Adobe Illustrator 22.0.1, SVG Export Plug-In . SVG Version: 6.00 Build 0)  -->
<svg version="1.1" id="Layer_1" xmlns="http://www.w3.org/2000/svg" xmlns:xlink="http://www.w3.org/1999/xlink" x="0px" y="0px"
	 width="132px" height="63.3px" viewBox="0 0 132 63.3" style="enable-background:new 0 0 132 63.3;" xml:space="preserve">
<g id="layer1" transform="translate(-326.5587,-292.11258)">
	<g id="g52" transform="matrix(1.8015878,0,0,-1.8015878,-1644.4351,1747.5687)">
		<g>
			<g id="g54">
				<g id="g60" transform="translate(1094.0315,803.4841)">
					<path id="path62" d="M0,0.9v-28.1c0-1.9,1.6-3.5,3.5-3.5c1.9,0,3.5,1.6,3.5,3.5V0.9l0,0c0,1.9-1.6,3.5-3.5,3.5
						C1.6,4.4,0,2.8,0,0.9L0,0.9"/>
				</g>
				<g id="g64" transform="translate(1160.5713,807.874)">
					<path id="path66" d="M-13.3,0c-2.5,0-4.5-1.2-6.1-4.8l-8.3-17.8l-2-4c0-0.1-0.1-0.2-0.2-0.2c0,0,0,0,0,0c0,0,0,0,0,0
						c-0.1,0-0.2,0.1-0.2,0.2l-2,4l-8.3,17.8C-42-1.2-44.1,0-46.5,0c-3.3,0-6-2.7-6-6v-25.6c0-1.9,1.6-3.5,3.5-3.5
						c1.9,0,3.5,1.6,3.5,3.5l0,21.5l0,0c0,0,0,0,0,0c0,0.2,0.1,0.3,0.3,0.3c0.1,0,0.2-0.1,0.2-0.1l5.9-12.6l4.5-9.4
						c0.8-1.8,2.5-3.1,4.6-3.1c0,0,0,0,0,0c0,0,0,0,0,0c2.1,0,3.9,1.3,4.6,3.1l4.5,9.4l5.9,12.6c0,0.1,0.1,0.1,0.2,0.1
						c0.2,0,0.3-0.1,0.3-0.3c0,0,0,0,0,0l0,0l0-21.5c0-1.9,1.6-3.5,3.5-3.5c1.9,0,3.5,1.6,3.5,3.5V-6C-7.3-2.7-10,0-13.3,0"/>
				</g>
				<g id="g68" transform="translate(1176.8214,803.4841)">
					<path id="path70" d="M-16.6,0.9v-28.1c0-1.9,1.6-3.5,3.5-3.5c1.9,0,3.5,1.6,3.5,3.5V0.9l0,0c0,1.9-1.6,3.5-3.5,3.5
						C-15,4.4-16.6,2.8-16.6,0.9L-16.6,0.9"/>
				</g>
			</g>
		</g>
	</g>
</g>
</svg>
