<?xml version="1.0" encoding="utf-8"?>
<!-- Generator: Adobe Illustrator 22.0.1, SVG Export Plug-In . SVG Version: 6.00 Build 0)  -->
<svg version="1.1" id="Layer_1" xmlns="http://www.w3.org/2000/svg" xmlns:xlink="http://www.w3.org/1999/xlink" x="0px" y="0px"
	 width="86px" height="41.3px" viewBox="0 0 86 41.3" style="enable-background:new 0 0 86 41.3;" xml:space="preserve">
<style type="text/css">
	.st0{fill:#FFFFFF;}
</style>
<g id="layer1" transform="translate(-326.5587,-292.11258)">
	<g id="g52" transform="matrix(1.8015878,0,0,-1.8015878,-1644.4351,1747.5687)">
		<g>
			<g id="g54">
				<g id="g60" transform="translate(1094.0315,803.4841)">
					<path id="path62" class="st0" d="M0,2.1v-18.3c0-1.3,1-2.3,2.3-2.3c1.3,0,2.3,1,2.3,2.3V2.1l0,0c0,1.3-1,2.3-2.3,2.3
						C1,4.4,0,3.4,0,2.1L0,2.1"/>
				</g>
				<g id="g64" transform="translate(1160.5713,807.874)">
					<path id="path66" class="st0" d="M-31.8,0c-1.6,0-2.9-0.8-3.9-3.1l-5.4-11.6l-1.3-2.6c0-0.1-0.1-0.1-0.2-0.1c0,0,0,0,0,0
						c0,0,0,0,0,0c-0.1,0-0.1,0-0.2,0.1l-1.3,2.6l-5.4,11.6c-1,2.3-2.3,3.1-3.9,3.1c-2.2,0-3.9-1.7-3.9-3.9v-16.7
						c0-1.3,1-2.3,2.3-2.3c1.3,0,2.3,1,2.3,2.3l0,14l0,0c0,0,0,0,0,0c0,0.1,0.1,0.2,0.2,0.2c0.1,0,0.1,0,0.2-0.1l3.9-8.2l3-6.1
						c0.5-1.2,1.7-2,3-2c0,0,0,0,0,0c0,0,0,0,0,0c1.4,0,2.5,0.8,3,2l3,6.1l3.9,8.2c0,0.1,0.1,0.1,0.2,0.1c0.1,0,0.2-0.1,0.2-0.2
						c0,0,0,0,0,0l0,0l0-14c0-1.3,1-2.3,2.3-2.3c1.3,0,2.3,1,2.3,2.3v16.7C-27.9-1.7-29.7,0-31.8,0"/>
				</g>
				<g id="g68" transform="translate(1176.8214,803.4841)">
					<path id="path70" class="st0" d="M-39.6,2.1v-18.3c0-1.3,1-2.3,2.3-2.3c1.3,0,2.3,1,2.3,2.3V2.1l0,0c0,1.3-1,2.3-2.3,2.3
						C-38.6,4.4-39.6,3.4-39.6,2.1L-39.6,2.1"/>
				</g>
			</g>
		</g>
	</g>
</g>
</svg>
