<?xml version="1.0" encoding="utf-8"?>
<!-- Generator: Adobe Illustrator 22.0.1, SVG Export Plug-In . SVG Version: 6.00 Build 0)  -->
<svg version="1.1" id="Layer_1" xmlns="http://www.w3.org/2000/svg" xmlns:xlink="http://www.w3.org/1999/xlink" x="0px" y="0px"
	 width="154.5px" height="78.9px" viewBox="0 0 154.5 78.9" style="enable-background:new 0 0 154.5 78.9;" xml:space="preserve">
<style type="text/css">
	.st0{stroke:#02422D;stroke-width:1.143840e-02;}
	.st1{fill:#241F20;}
</style>
<g>
	<path d="M97.9,69.1c-0.9,3.8-3.8,5.5-8.7,5.5c-3.3,0-6.2-0.7-7.7-2.2c-1.6-1.6-1.9-3.8-1.9-6.1V54.8h3.7v11.3
		c0,2.5,0.2,4.1,1.2,5.2c1.1,1.3,3.1,1.7,4.7,1.7c3.5,0,5.8-1.1,6.4-4.2c0.1-0.7,0.3-1.6,0.3-2.9V54.8h2.3v10.3
		C98.3,67,98.1,68.1,97.9,69.1"/>
	<path class="st0" d="M97.9,69.1c-0.9,3.8-3.8,5.5-8.7,5.5c-3.3,0-6.2-0.7-7.7-2.2c-1.6-1.6-1.9-3.8-1.9-6.1V54.8h3.7v11.3
		c0,2.5,0.2,4.1,1.2,5.2c1.1,1.3,3.1,1.7,4.7,1.7c3.5,0,5.8-1.1,6.4-4.2c0.1-0.7,0.3-1.6,0.3-2.9V54.8h2.3v10.3
		C98.3,67,98.1,68.1,97.9,69.1"/>
	<path d="M116.6,58.5l-4.3,8.9h8.3L116.6,58.5 M123.7,74.1l-2.4-5.4h-9.6l-2.6,5.4h-2.3l9.6-19.3h2.3l9.4,19.3H123.7z"/>
	<path class="st0" d="M116.6,58.5l-4.3,8.9h8.3L116.6,58.5 M123.7,74.1l-2.4-5.4h-9.6l-2.6,5.4h-2.3l9.6-19.3h2.3l9.4,19.3H123.7z"
		/>
	<path d="M28.6,58.5l-4.3,8.9h8.3L28.6,58.5 M35.7,74.1l-2.4-5.4h-9.6l-2.6,5.4h-2.3l9.6-19.3h2.3l9.4,19.3H35.7z"/>
	<path class="st0" d="M28.6,58.5l-4.3,8.9h8.3L28.6,58.5 M35.7,74.1l-2.4-5.4h-9.6l-2.6,5.4h-2.3l9.6-19.3h2.3l9.4,19.3H35.7z"/>
	<path d="M60.3,74.6c-6.4,0-12.4-2.2-12.4-9.6c0-2.4,1.1-4.9,2.7-6.7c2.5-2.8,6.4-3.8,10-3.8c2.2,0,4.7,0.5,6.7,1.5v2.3
		c-1.8-1.3-4.2-2.3-6.5-2.3c-5.3,0-8.9,3.3-8.9,8.7c0,4.9,3.2,8.3,8.1,8.3c1.3,0,3-0.2,4.2-0.7v-7.1h3.7v7.9
		C65.7,74.1,62.6,74.6,60.3,74.6"/>
	<path class="st0" d="M60.3,74.6c-6.4,0-12.4-2.2-12.4-9.6c0-2.4,1.1-4.9,2.7-6.7c2.5-2.8,6.4-3.8,10-3.8c2.2,0,4.7,0.5,6.7,1.5v2.3
		c-1.8-1.3-4.2-2.3-6.5-2.3c-5.3,0-8.9,3.3-8.9,8.7c0,4.9,3.2,8.3,8.1,8.3c1.3,0,3-0.2,4.2-0.7v-7.1h3.7v7.9
		C65.7,74.1,62.6,74.6,60.3,74.6"/>
	<path d="M143.9,56.2h-2.7v9.2h2.4c2,0,3.2-0.4,4.1-1.1c1-0.8,1.6-2,1.6-3.6C149.3,57.4,146.9,56.2,143.9,56.2 M150.2,74.1l-5.1-7.4
		h-3.9v7.4h-3.7V54.8h7c2.8,0,5.7,0.4,7.3,2.2c0.8,0.9,1.3,2.2,1.3,3.8c0,3-2.3,4.8-4.3,5.5l5.7,7.8L150.2,74.1L150.2,74.1z"/>
	<path class="st0" d="M143.9,56.2h-2.7v9.2h2.4c2,0,3.2-0.4,4.1-1.1c1-0.8,1.6-2,1.6-3.6C149.3,57.4,146.9,56.2,143.9,56.2
		 M150.2,74.1l-5.1-7.4h-3.9v7.4h-3.7V54.8h7c2.8,0,5.7,0.4,7.3,2.2c0.8,0.9,1.3,2.2,1.3,3.8c0,3-2.3,4.8-4.3,5.5l5.7,7.8
		L150.2,74.1L150.2,74.1z"/>
	<path d="M3.2,78.1c-1,0.5-2,0.8-3.1,0.8c2.5-1.8,3.6-3.7,4-6.8c0.2-1.7,0.2-3.4,0.2-5.1V54.8h3.7v14.6C7.9,73,6.5,76.5,3.2,78.1"/>
	<path class="st0" d="M3.2,78.1c-1,0.5-2,0.8-3.1,0.8c2.5-1.8,3.6-3.7,4-6.8c0.2-1.7,0.2-3.4,0.2-5.1V54.8h3.7v14.6
		C7.9,73,6.5,76.5,3.2,78.1"/>
	<path class="st1" d="M26.4,3.2c1.3,0,2.5-0.5,2.5-0.5c0-0.1-1.5-0.2-1.5-0.2C26,2.5,25.5,3,25.5,3.1C25.5,3.2,25.8,3.2,26.4,3.2"/>
	<path class="st1" d="M17.4,5.5c0,0,0.1-0.3,0.1-0.3c0-0.1,0.2-0.7,1.2-0.8c0,0,0.5,0,1,0.1c0,0-0.3,0.8-1.6,0.9
		C18.1,5.4,17.6,5.5,17.4,5.5 M142.1,41.7c-0.3,0.8-1.7,1.8-3.3,2.3c-1.7,0.6-5.2,0.6-7,0c0,0-0.4-0.4-1.6-0.8
		c-2.9-0.9-3.9-1.5-5.4-2.9c-1.1-1-2.2-2.2-3.3-3.4c-0.5-0.5-1.7-1.7-3.9-2.1c-2.2-0.4-7.7-0.8-9.7-1.5c-1.4-0.5-3-1.4-5-4.4
		c-1-1.5-1.7-1.9-3.1-2.8c0,0,1.1,0.8,1.6,1.9c0.8,1.5,1.2,2.6,1.6,3.3c0.4,0.8,1,1.5,1.8,2.2c1,0.8,1.6,1,2.8,1.2
		c1.1,0.2,4.8,0.4,7.9,0.5c3.1,0.1,4.4,1.1,5.4,1.9c0.9,0.8,2.3,2.9,3.3,3.8c1.3,1.2,1.4,1.2,2.9,2.2c0.8,0.5,1.5,0.8,2.1,1
		c1.4,0.8,0.8,2.3,0.8,2.3c-0.4,1.2-1.9,1.6-3.6,1.3c-2.6-0.2-4.8-2.4-6.7-3.9c-1-0.9-1.4-1.3-3.4-2.7c-3-2.1-10.2-1.9-10.2-1.9
		l-5.2,0c-10.2,0.1-13.9-8-14.9-9.8c-0.4-0.6-0.7-1.1-1-1.5c-0.5-0.6-3-4-5.8-5.2c0,0,2.6,2.3,2.4,3.5c-0.6,0-1.2,0-2,0.1
		c-10.3,0.3-12.4-0.3-14-0.6c-1.6-0.3-4.3-1.1-7-2.4c0,0,0.3-2.5-0.8-4.6c0,0,8.5,3,15.2,2.1c0,0-10.9-0.5-17.7-5.9
		c0,0,1.7,5.7,0.4,8.1c0,0-1.8,4.4-10.9,1.5c0,0-4.2-1.6-7.5-1.6c0,0-2.5,0.1-2.8,1.4c0,0-0.2,0.6,0.5,0.9c0,0,0.7,0.2,0.4,0.7
		c-0.6,0.9-1.3,1.6-2.1,1.9c-2.6-0.1-2.4-2.2-2.4-2.2c0-0.7,0.3-1.3,0.5-1.8c1.6-3.6,7.2-4.1,7.2-4.1c6-0.6,12.3,0.8,12.3,0.8
		c-4.5-1.1-6-1.9-7.3-2.9c-1.7-1.4-3.3-6.3-3.3-6.3c-0.7,2.4,0.2,4.8,0.7,6c-0.9-1.4-2.1-2.5-3.1-3.4c-2.8-2.2-6.8-2.9-6.8-2.9
		c-1.2-0.2-1.6-1.4-1.6-1.4c-1.5-2.7-3.2-2.9-3.2-2.9c0.8,1.1,0.7,2.7,0.7,2.7c0,2.9-3.7,3.8-3.7,3.8c-2.8,2.7-3.2,2.7-3.8,2.7
		c-0.5,0-0.9-0.5-0.9-0.5c-0.2-0.3,0.1-0.5,0.1-0.5c0.5-0.3,0.9-0.7,0.9-0.7c2.7-2.2,3.1-3.3,2.9-4.8c-0.4-3-2.9-2.8-2.9-2.8
		c-1.1,0-1.7,0.9-1.7,0.9c-0.4,0.5-1.4,2.2-1.4,2.2c-0.8,1.4-1.6,1.2-1.6,1.2c-0.9,0.1-1.6-0.8-1.6-0.8c0,0-0.1-0.1-0.1-0.1
		c-0.7-0.7-0.1-1.6-0.1-1.6c1.1-2,3.1-2.2,3.4-2.2c0.3,0,1.2-0.1,1.2-0.1c2.2-0.2,3.7-2.3,3.7-2.3c-0.9-0.5-2.6-0.2-2.6-0.2
		c-1.6,0.1-2.1,1.8-2.1,1.8c-1.4,0.2-1.3-0.9-1-1.2c0.2-0.3,1.1-1.6,6.5-2.5c0,0,2.9-0.6,8,0c0.2,0,0.4,0.2,0.1,0.5
		c-0.6,0.8-2.6,2.4-5.9,1.6c0,0-0.1,1.3,3.4,1.9c0,0,3.2,0.7,8.3,4.8c0,0-2.5-4.6-6.8-6c0,0-0.3-0.2,0-0.5c0,0,2-1.8,5.7-1.6
		c0,0,11.9,0.6,18.7,7.6c0,0-0.2-1.2-1.3-2.9c0,0-0.2-0.2-0.1-0.3c0,0,0.1-0.3,1.3-0.1c0,0,4.3,0.7,14.2,4.3c0,0,7.4,2.6,11.5,4.3
		c6.1,2.5,21.3,8.7,31,14c1.7,1,8.9,4.5,8.9,4.5c5.4,3.3,10.3,5.7,10.3,5.7c4.8,2.2,8.4,1.2,8.4,1.2c1.1-0.4,3.3-1.6,4.1-0.8
		C142.4,40.6,142.4,41.2,142.1,41.7L142.1,41.7z M143.3,39.8c-0.6-1.5-2.7-1.1-2.7-1.1c-0.9,0.1-2.1,1-3.7,1.4
		c-3.5,0.7-6.2-0.5-6.2-0.5c-5.2-2.3-8.7-4.9-11-6.2c-2.3-1.3-10.7-5.7-19.2-10c0,0-9.7-5-24-10.9C76.5,12.5,48.8,0,29,0
		c0,0-10.3-0.1-13.8,3.8c0,0-0.6,0.5-0.3,1.1c0,0,0,0.2-0.1,0.3c0,0-1.5,1-2.8,2.5c0,0-0.7,0.7-0.1,1.7c0,0,0.7,1.2,1.1,1.7
		c0.4,0.5,1.3,1.4,2.6,1.2c0.6-0.1,0.6-0.2,0.6-0.2c0.6,0.6,1.6,0.6,1.6,0.6c-0.1-0.4-0.5-1.1-0.5-1.5c0-0.5,0.1-0.9,0.1-0.9
		c0.2-0.5,0.6-1.2,1-1.5c0.4-0.3,1.3-0.6,2-0.1c0.5,0.4,1.1,1.6,0.5,3.2c0,0-0.7,1.3-1.4,1.4l-0.2,0c-0.4,0-1.3-0.5-1.3-0.5
		s0,0.1,0.1,0.5c0.1,0.2,0.1,0.5,0.2,0.7L18,14.3c0,0-0.5,0.4-0.3,1.1c0,0,0.5,2,2,2c1.3,0,2.4-1.2,2.4-1.2c2.8-3,6.8-3.5,6.8-3.5
		c4.4-0.3,10.7,4.2,12.4,5.5c-6.5-0.1-9.2,2.4-9.2,2.4C28.5,23.5,30,27,30,27c0.3,0.8,1,1.3,1.5,1.5c0.7,0.3,1.3,0.3,1.8,0.3
		c0.4,0,0.8-0.2,1-0.3c0.5-0.3,1.4-0.9,1.8-1.5c0.3-0.3,0.6-1.1,0.4-1.8c0,0-0.1-0.6,0.4-0.7c0,0,1.7-0.4,5.2,1.1
		c0,0,3.8,2.2,8.7,2.7c0,0,5.6,0.6,7-2.5c0,0,3.2,1.3,7.9,1.9c0,0,4.6,0.5,12-0.1c1.5-0.1,3.2,0,3.2,0c2.4,0.3,3.9,1.5,4.5,2.5
		c2.4,4,5.4,11.7,17.3,11.4l5.4-0.1c3.3,0,5.9,0,8.6,1.4c1.1,0.6,4.2,3.6,6,4.6c5.5,3.7,8.7,2,8.7,2c1.9-1.1,1.7-3,1.3-4.1
		c-0.6-0.2,6.8,1.1,10-3.1C143.4,41.2,143.6,40.3,143.3,39.8L143.3,39.8z"/>
</g>
</svg>
