<?xml version="1.0" encoding="utf-8"?>
<!-- Generator: Adobe Illustrator 22.0.1, SVG Export Plug-In . SVG Version: 6.00 Build 0)  -->
<svg version="1.1" id="Layer_1" xmlns="http://www.w3.org/2000/svg" xmlns:xlink="http://www.w3.org/1999/xlink" x="0px" y="0px"
	 width="146.3px" height="87.5px" viewBox="0 0 146.3 87.5" style="enable-background:new 0 0 146.3 87.5;" xml:space="preserve">
<style type="text/css">
	.st0{fill:#FFFFFF;}
</style>
<g>
	<path d="M36.7,83.8c-0.4-1-0.4-1.2,0.4-2.1c-0.6-0.6-1-1.2-1-2.1c0-1.2,0.8-2.3,2-2.4c0.6-0.1,1.2,0.2,1.8,0.1
		c0.6-0.1,1.2-0.3,1.7-0.4c0.1,0,0.3,0,0.6,0c-0.1,0.4-0.2,0.7-0.3,1.1c-0.3,0-0.5,0-0.8,0c0.1,0.2,0.2,0.4,0.2,0.5
		c0.8,1.7-0.1,3.5-2,3.7c-0.3,0-0.7,0-1,0c-0.3,0-0.4,0.1-0.5,0.3c0,0.2,0,0.4,0.3,0.5c0.5,0.1,0.9,0.2,1.4,0.3
		c0.6,0.1,1.2,0.2,1.7,0.4c1.6,0.6,1.4,2.3,0.5,2.9c-0.4,0.3-0.8,0.5-1.2,0.6c-1,0.3-2.1,0.4-3.1,0.1c-0.5-0.1-1-0.4-1.3-0.7
		c-0.7-0.6-0.7-1.6,0-2.3C36.4,84.1,36.6,84,36.7,83.8z M38.9,86.4c0.4-0.1,0.7-0.1,1-0.2c0.6-0.1,1-0.5,0.9-0.8
		c0-0.5-0.5-0.7-0.9-0.7c-0.6-0.1-1.2-0.2-1.7-0.3c-0.5-0.1-0.8,0.1-1,0.5c-0.2,0.4-0.1,0.9,0.4,1.1C38,86.1,38.5,86.2,38.9,86.4z
		 M38.9,81c0.7,0,1.3-0.5,1.3-1.3c0-0.8-0.6-1.4-1.3-1.4c-0.7,0-1.2,0.5-1.2,1.3C37.7,80.4,38.2,81,38.9,81z"/>
	<path d="M24.8,83.7c-1.4,0.6-2.9,0.8-4.3,0.1c-1.4-0.7-1.8-1.9-1.7-3.3c0.1-1.5,0.9-2.6,2.3-3.1c0.7-0.2,1.4-0.2,2.2-0.3
		c0-0.9,0-2,0-3c0.5,0,1,0,1.4,0C24.9,74.6,25,82.6,24.8,83.7z M23.3,78.6c-1-0.4-2-0.1-2.5,0.6c-0.6,0.8-0.6,2-0.1,2.9
		c0.5,0.8,1.5,1.1,2.6,0.7C23.3,81.4,23.3,80,23.3,78.6z"/>
	<path d="M16.4,83.6c-0.6,0.2-1.1,0.5-1.7,0.6c-1.7,0.2-2.9-1.2-2.4-2.8c0.2-0.6,0.6-1.1,1.1-1.3c0.5-0.2,1-0.3,1.5-0.3
		c0.4-0.1,0.8-0.1,1.3-0.1c0-1-0.4-1.5-1.3-1.4c-0.5,0-1.1,0.2-1.7,0.4c-0.1-0.2-0.3-0.5-0.5-0.9c1.3-0.9,2.6-1,3.9-0.5
		c0.8,0.3,1.1,0.9,1.2,1.8c0,0.9,0,1.9,0,2.8c0,0.7,0,1.3,0,2.1C17.3,84.1,16.7,84.3,16.4,83.6z M16.2,80.9c-0.7,0.1-1.2,0-1.8,0.2
		c-0.8,0.2-1,1-0.5,1.6c0.5,0.4,1,0.4,1.6,0.2c0.6-0.2,0.6-0.3,0.6-1C16.2,81.6,16.2,81.3,16.2,80.9z"/>
	<path d="M11.2,81.1c-1.4,0-2.8,0-4.2,0c0,1.7,1.3,2.2,3.7,1.5c0.1,0.3,0.2,0.6,0.3,0.8c-1.8,1.6-4.6,0.9-5.4-1.3
		c-0.4-1.2-0.4-2.3,0.2-3.4c0.6-1.1,1.6-1.7,2.8-1.5c1.2,0.1,2,0.8,2.3,1.9C11.3,79.7,11.4,80.3,11.2,81.1z M9.6,79.9
		c-0.1-1-0.5-1.5-1.3-1.5c-0.7,0-1.2,0.6-1.3,1.5C7.9,79.9,8.8,79.9,9.6,79.9z"/>
	<path d="M34.9,84.1c-0.5,0-0.9,0-1.4,0c0-0.2-0.1-0.4-0.1-0.6c0-1,0-2,0-3.1c0-0.3,0-0.7-0.1-1c-0.2-0.7-0.6-1-1.3-0.8
		c-0.2,0.1-0.5,0.1-0.7,0.2c-0.6,0.2-0.8,0.6-0.8,1.3c0.1,1.3,0,2.6,0,3.9c-0.5,0-1,0-1.5,0c0-2.2,0-4.4,0-6.6c0.4,0,0.8,0,1.2,0
		c0.1,0.2,0.1,0.3,0.2,0.6c0.2-0.1,0.4-0.2,0.6-0.3c0.3-0.1,0.6-0.3,0.9-0.4c1.6-0.5,2.9,0.4,2.9,2.1c0,1.4,0,2.8,0,4.3
		C35,83.7,34.9,83.9,34.9,84.1z"/>
	<path d="M141.3,83.6c0.2-0.4,0.3-0.7,0.5-1c0.2,0.1,0.4,0.2,0.6,0.2c0.5,0.1,1,0.2,1.5,0.2c0.5,0,0.9-0.3,0.9-0.6
		c0.1-0.4-0.2-0.7-0.6-0.9c-0.5-0.2-0.9-0.4-1.4-0.6c-0.5-0.3-0.9-0.6-1-1.2c-0.3-1.2,0.3-2.2,1.6-2.4c0.7-0.1,1.4,0,2.1,0.1
		c0.7,0.1,0.7,0.2,0.7,0.8c0,0.1,0,0.3,0,0.4c0,0-0.1,0.1-0.1,0.1c-0.5-0.1-0.9-0.2-1.4-0.3c-0.3,0-0.6,0-0.9,0.1
		c-0.5,0.1-0.6,0.6-0.2,0.9c0.2,0.2,0.5,0.3,0.7,0.5c0.4,0.2,0.9,0.4,1.3,0.6c0.7,0.4,0.9,1.1,0.9,1.9c-0.1,0.7-0.5,1.2-1.2,1.5
		C144,84.4,142.4,84.3,141.3,83.6z"/>
	<path d="M1.5,82.7c1.2,0,2.3,0,3.4,0c0,0.4,0,0.8,0,1.2c-0.5,0.2-3.6,0.2-4.7,0.1c-0.2-0.6-0.2-8.2-0.1-9.3c0.4,0,0.9,0,1.4,0
		C1.5,77.4,1.5,80,1.5,82.7z"/>
	<path d="M138,74c0.5,0,0.9,0,1.5,0c0,0.3,0,0.6,0,0.9c0,2.2,0,4.5,0,6.7c0,0.2,0,0.4,0,0.6c0,0.6,0,0.6,0.7,0.7c0.1,0,0.1,0,0.2,0
		c0,0,0,0,0.1,0.1c0,0.3,0.1,0.6,0.2,0.9c-0.5,0.4-1,0.5-1.5,0.4c-0.6-0.1-1-0.5-1.1-1.1c0-0.2,0-0.4,0-0.6c0-2.6,0-5.2,0-7.9
		C138,74.5,138,74.3,138,74z"/>
	<path d="M26.3,84c0-2.3,0-4.5,0-6.7c0.5,0,0.9,0,1.4,0c0,2.2,0,4.4,0,6.7C27.2,84,26.8,84,26.3,84z"/>
	<path d="M27,74.3c0.5,0,1,0.4,1,1c0,0.5-0.4,0.9-0.9,0.9c-0.5,0-1-0.4-1-0.9C26,74.7,26.4,74.3,27,74.3z"/>
	<path class="st0" d="M38.9,86.4c-0.4-0.1-0.9-0.2-1.3-0.4c-0.5-0.2-0.6-0.7-0.4-1.1c0.2-0.4,0.5-0.6,1-0.5c0.6,0.1,1.2,0.2,1.7,0.3
		c0.4,0.1,0.9,0.2,0.9,0.7c0,0.4-0.3,0.7-0.9,0.8C39.6,86.3,39.3,86.3,38.9,86.4z"/>
	<path class="st0" d="M38.9,81c-0.7,0-1.3-0.6-1.3-1.4c0-0.7,0.5-1.3,1.2-1.3c0.7,0,1.4,0.6,1.3,1.4C40.2,80.5,39.6,81,38.9,81z"/>
	<path class="st0" d="M23.3,78.6c0,1.4,0,2.8,0,4.1c-1.1,0.3-2.1,0.1-2.6-0.7c-0.6-0.8-0.5-2.1,0.1-2.9
		C21.4,78.5,22.4,78.2,23.3,78.6z"/>
	<path class="st0" d="M16.2,80.9c0,0.4,0,0.6,0,0.9c0,0.7-0.1,0.8-0.6,1C15,83,14.5,83.1,14,82.6c-0.5-0.5-0.3-1.4,0.5-1.6
		C15,81,15.6,81,16.2,80.9z"/>
	<path class="st0" d="M9.6,79.9c-0.9,0-1.7,0-2.6,0c0.1-1,0.6-1.5,1.3-1.5C9.1,78.3,9.6,78.9,9.6,79.9z"/>
	<g>
		<path d="M0,66.4C0,44.3,0,22.2,0,0c48.8,0,97.5,0,146.3,0c0,22.2,0,44.3,0,66.4C145.8,66.5,1,66.6,0,66.4z M95.7,24.2
			c-0.2-0.2-0.4-0.3-0.6-0.5c-1.2-0.9-2.6-1.6-4-2c-3-0.9-6-1.1-9.1-0.8c-2.2,0.2-4.3,0.8-6.2,2.1c-1.9,1.2-3.2,2.8-3.8,4.9
			c-0.4,1.3-0.4,2.6-0.3,3.9c0.3,3,1.6,5.2,4.3,6.7c1,0.6,2.1,1,3.2,1.2c1.7,0.4,3.5,0.7,5.2,1.1c0.9,0.2,1.9,0.5,2.7,0.9
			c0.9,0.4,1.3,1.2,1.3,2.2c0,1.3-0.7,2.1-1.8,2.6c-1,0.4-2,0.6-3,0.6c-3,0-5.8-0.9-8.2-2.7c-0.2-0.1-0.4-0.3-0.6-0.4
			c-1.5,1.9-3,3.7-4.6,5.6c0.2,0.2,0.3,0.3,0.4,0.4c1.7,1.4,3.7,2.4,5.8,3.1c3.1,0.9,6.3,1.2,9.5,0.8c1.8-0.2,3.6-0.6,5.2-1.5
			c2.4-1.2,4.1-3.1,4.8-5.8c0.4-1.5,0.5-3,0.3-4.5c-0.2-2.9-1.6-5-4.2-6.3c-1.4-0.7-2.9-1.1-4.4-1.5c-1.8-0.4-3.7-0.8-5.5-1.3
			c-0.7-0.2-1.4-0.5-2-1c-1.1-1-1.1-2.6,0.1-3.6c0.6-0.5,1.3-0.8,2-0.9c2.9-0.5,5.6,0,8.2,1.5c0.2,0.1,0.4,0.3,0.7,0.4
			C92.7,27.7,94.2,26,95.7,24.2z M125.2,25.1c-0.1-0.2-0.2-0.3-0.3-0.4c-1.3-1.3-2.8-2.3-4.5-2.9c-3.2-1.2-6.5-1.4-9.8-0.7
			c-4.8,1-8.3,3.7-10.1,8.4c-0.8,1.9-1.1,4-1.2,6c-0.2,2.9,0,5.9,0.9,8.7c1.1,3.6,3.2,6.3,6.6,8.1c1.9,1,4,1.5,6.2,1.6
			c3.8,0.3,7.4-0.6,10.4-3c0.8-0.6,1.5-1.3,2.2-2.1c-1.7-1.7-3.4-3.4-5.1-5c-0.5,0.4-0.9,0.8-1.3,1.2c-1.4,1.2-3.1,1.8-4.9,1.7
			c-2.9-0.1-5-1.6-6.1-4.3c-0.1-0.4-0.3-0.8-0.4-1.1c-0.5-1.8-0.5-3.7-0.4-5.5c0.1-1.4,0.4-2.7,1-3.9c0.7-1.5,1.8-2.8,3.4-3.3
			c2.9-1,5.7-0.7,8.1,1.4c0.2,0.1,0.3,0.3,0.5,0.4C121.9,28.6,123.5,26.9,125.2,25.1z M20.9,20.8c0,3,0,6,0,8.9c5,2,10,3.9,14.9,5.9
			c0,0,0,0.1,0,0.1c-5,1.9-10,3.9-14.9,5.8c0,3,0,6,0,9c8.8-4,17.4-7.9,26.1-11.9c0-2,0-4,0-6C38.4,28.7,29.7,24.8,20.9,20.8z
			 M53,12.4c0,0.3,0,0.5,0,0.7c0,10.1,0,20.3,0,30.4c0,1.2,0.1,2.5,0.4,3.7c0.6,2.5,1.9,4.4,4.3,5.5c0.9,0.4,1.9,0.7,2.8,0.7
			c1.8,0.1,3.6,0.1,5.3,0.2c0.2,0,0.4,0,0.5,0c0.1-1,0.1-6.3-0.1-6.9c-0.2,0-0.5,0-0.8,0c-0.6,0-1.3,0-1.9,0
			c-1.4-0.1-2.2-0.8-2.5-2.2C61,44,61,43.5,61,43c0-9.9,0-19.7,0-29.6c0-0.3,0-0.6,0-0.9C58.3,12.4,55.7,12.4,53,12.4z"/>
		<path d="M85.5,83.8c-0.5-0.8-0.3-1.5,0.4-2.1c-0.6-0.6-1-1.2-1-2.1c0-1.2,0.8-2.2,2-2.4c0.7-0.1,1.3,0.1,2,0.1
			c0.6,0,1.1-0.6,1.8-0.4c0.1,0,0.2,0,0.4,0.1c-0.1,0.4-0.2,0.7-0.3,1c-0.3,0-0.5,0.1-0.9,0.1c0.1,0.2,0.2,0.4,0.3,0.6
			c0.8,1.6-0.1,3.3-1.8,3.5c-0.4,0.1-0.8,0-1.2,0c-0.3,0-0.5,0-0.5,0.3c0,0.3,0.1,0.5,0.4,0.5c0.4,0.1,0.9,0.2,1.3,0.3
			c0.6,0.1,1.2,0.2,1.7,0.4c1.6,0.6,1.3,2.3,0.5,2.9c-0.4,0.3-0.8,0.5-1.2,0.6c-1,0.3-2.1,0.3-3.1,0c-0.4-0.1-0.9-0.3-1.2-0.6
			c-0.8-0.7-0.8-1.7-0.1-2.4C85.1,84.1,85.3,84,85.5,83.8z M87.7,86.4c0.5-0.1,1-0.2,1.4-0.4c0.2-0.1,0.4-0.4,0.5-0.7
			c0-0.2-0.3-0.4-0.5-0.6c-0.2-0.1-0.4-0.2-0.7-0.2c-0.5-0.1-1-0.1-1.4-0.2c-0.5-0.1-0.9,0.1-1,0.5c-0.2,0.4-0.1,0.9,0.4,1.1
			C86.7,86.1,87.2,86.2,87.7,86.4z M87.6,78.3c-0.7,0-1.2,0.6-1.2,1.3c0,0.8,0.6,1.3,1.3,1.3c0.8,0,1.3-0.6,1.2-1.4
			C88.9,78.9,88.3,78.3,87.6,78.3z"/>
		<path d="M113.2,77.1c0-1,0-2,0-3.1c0.5,0,1,0,1.5,0c0,0.3,0,0.5,0,0.7c0,2.7,0,5.5,0,8.2c0,0.8,0,0.8-0.8,1
			c-0.8,0.2-1.7,0.3-2.5,0.2c-1.7-0.3-2.7-1.4-2.8-3.1c-0.1-1.8,0.8-3.2,2.5-3.7C111.7,77.1,112.4,77.2,113.2,77.1z M113.1,78.5
			c-1.1-0.2-2.1-0.1-2.7,0.9c-0.5,0.8-0.4,2,0.2,2.7c0.6,0.7,1.5,0.9,2.5,0.6C113.1,81.4,113.1,80,113.1,78.5z"/>
		<path d="M130.7,84c-0.2,0.1-0.2,0.1-0.3,0.1c-1.4,0.1-1.4,0.1-2.3-1c-0.5-0.6-1-1.3-1.5-1.9c-0.1,0-0.1,0-0.2,0c0,0.9,0,1.9,0,2.9
			c-0.5,0-1,0-1.4,0c-0.2-0.6-0.2-9.2,0-10c0.4,0,0.9,0,1.4,0c0,1.8,0,3.6,0,5.3c0.1,0,0.1,0,0.2,0c0.5-0.5,1-0.9,1.4-1.5
			c0.4-0.5,0.8-0.7,1.5-0.6c0.3,0,0.5,0,0.8,0c0,0.1,0.1,0.1,0.1,0.2c-0.9,0.9-1.7,1.8-2.7,2.7C128.7,81.4,129.7,82.7,130.7,84z"/>
		<path d="M60,79.7c-0.1-1.1-0.5-1.5-1.5-1.4c-0.5,0.1-1,0.2-1.6,0.4c-0.1-0.2-0.3-0.5-0.4-0.8c1-0.9,2.9-1.1,4-0.6
			c0.5,0.2,0.8,0.6,0.9,1.1c0.1,0.2,0.1,0.4,0.1,0.6c0,1.6,0,3.2,0,4.9c-0.5,0-1.1,0.3-1.4-0.4c-0.5,0.2-1,0.5-1.5,0.6
			c-1.6,0.3-2.8-0.8-2.6-2.4c0.1-0.7,0.4-1.3,1.1-1.6c0.5-0.2,1-0.3,1.5-0.4C59,79.8,59.5,79.8,60,79.7z M59.9,80.9
			c-0.7,0.1-1.2,0.1-1.8,0.2c-0.4,0.1-0.6,0.3-0.7,0.7c-0.1,0.4,0,0.7,0.4,0.9c0.5,0.4,1.1,0.3,1.6,0.1c0.5-0.2,0.6-0.6,0.5-1
			C60,81.5,60,81.3,59.9,80.9z"/>
		<path d="M99.2,83.6c-0.6,0.2-1.1,0.5-1.6,0.6c-1.7,0.3-3-1.3-2.4-2.9c0.3-0.9,1.1-1.3,2-1.4c0.6-0.1,1.2-0.1,1.8-0.2
			c0.1-1-0.4-1.4-1.3-1.4c-0.5,0-1.1,0.2-1.7,0.4c-0.1-0.2-0.3-0.5-0.5-0.9c1.3-0.9,2.6-1,3.9-0.5c0.8,0.3,1.2,1,1.2,1.8
			c0,0.7,0,1.3,0,2c0,0.9,0,1.9,0,2.8C99.7,84.2,99.7,84.2,99.2,83.6z M99,80.9c-0.6,0.1-1.2,0.1-1.7,0.2c-0.4,0.1-0.7,0.3-0.7,0.7
			c-0.1,0.4,0,0.7,0.4,0.9c0.5,0.4,1.1,0.3,1.6,0.1c0.5-0.2,0.5-0.6,0.5-1C99.1,81.5,99.1,81.3,99,80.9z"/>
		<path d="M55.2,81.1c-1.5,0-2.8,0-4.2,0c0.1,1.7,1.2,2.2,3.6,1.5c0.1,0.1,0.1,0.2,0.2,0.3c0.1,0.2,0.1,0.3,0.2,0.5
			c-1.8,1.6-4.7,0.8-5.4-1.4c-0.3-1.1-0.3-2.1,0.1-3.1c0.5-1.2,1.6-1.8,2.9-1.8c1.2,0.1,2.1,0.9,2.4,2.1c0.1,0.3,0.1,0.5,0.2,0.8
			C55.2,80.3,55.2,80.6,55.2,81.1z M53.5,79.9c0-0.9-0.5-1.5-1.3-1.5c-0.7,0-1.2,0.5-1.3,1.5C51.8,79.9,52.6,79.9,53.5,79.9z"/>
		<path d="M79,77.3c0.1,0.2,0.2,0.4,0.3,0.6c0.2-0.1,0.3-0.2,0.4-0.2c0.6-0.4,1.3-0.6,2-0.5c0.9,0,1.6,0.6,1.9,1.5
			c0.1,0.3,0.1,0.5,0.1,0.8c0,1.4,0,2.9,0,4.3c0,0.1,0,0.2-0.1,0.3c-0.4,0-0.9,0-1.4,0c0-0.2-0.1-0.4-0.1-0.6c0-1.1,0-2.3,0-3.4
			c0-1.4-0.7-1.8-2-1.2c-0.6,0.3-0.9,0.6-0.9,1.3c0.1,1.3,0,2.6,0,3.9c-0.5,0-1,0-1.5,0c0-2.2,0-4.4,0-6.7
			C78.3,77.3,78.6,77.3,79,77.3z"/>
		<path d="M101.8,77.3c0.4,0,0.7,0,1.1,0c0.1,0.2,0.2,0.4,0.3,0.6c0.7-0.5,1.5-0.8,2.3-0.8c1,0,1.7,0.6,1.9,1.6
			c0.1,0.3,0.1,0.6,0.1,0.9c0,1.3,0,2.7,0,4c0,0.1,0,0.3-0.1,0.4c-0.5,0-0.9,0-1.4,0c0-0.2-0.1-0.4-0.1-0.6c0-1.1,0-2.2,0-3.3
			c0-0.2,0-0.4,0-0.6c-0.1-0.8-0.6-1.1-1.4-0.9c-0.2,0.1-0.4,0.1-0.6,0.2c-0.5,0.2-0.8,0.6-0.8,1.2c0.1,1,0,2.1,0,3.1
			c0,0.3,0,0.5,0,0.8c-0.5,0-1,0-1.4,0C101.7,83.5,101.7,78.7,101.8,77.3z"/>
		<path d="M69.4,84c-0.5,0-1,0-1.5,0c-0.1-2.2,0-4.4,0-6.7c0.4,0,0.8,0,1.2,0c0.1,0.1,0.2,0.3,0.3,0.6c0.7-0.4,1.5-0.8,2.3-0.8
			c1,0,1.7,0.6,1.9,1.6c0.1,0.3,0.1,0.7,0.1,1c0,1.2,0,2.3,0,3.5c0,0.3,0,0.5,0,0.8c-0.5,0-0.9,0-1.4,0c0-0.2,0-0.5,0-0.7
			c0-1.1,0-2.1,0-3.2c0-1.5-0.8-2-2.1-1.2c-0.5,0.3-0.7,0.6-0.7,1.2C69.4,81.3,69.4,82.6,69.4,84z"/>
		<path d="M123.6,77.5c0,0.4,0,0.8,0,1.2c-0.5-0.1-0.9-0.2-1.4-0.3c-0.3,0-0.6,0-0.9,0.1c-0.5,0.2-0.7,0.7-0.2,1
			c0.2,0.2,0.5,0.3,0.8,0.4c0.4,0.2,0.8,0.4,1.2,0.6c0.7,0.4,1,1.1,0.9,1.9c-0.1,0.8-0.5,1.3-1.2,1.6c-1.1,0.5-2.7,0.3-3.8-0.4
			c0.1-0.3,0.3-0.7,0.4-1c0.6,0.2,1,0.3,1.6,0.4c0.3,0,0.7,0,1-0.1c0.5-0.2,0.6-0.8,0.2-1.2c-0.2-0.2-0.5-0.3-0.7-0.4
			c-0.3-0.2-0.7-0.3-1-0.5c-0.8-0.5-1.2-1.1-1.1-2.1c0.1-0.8,0.7-1.3,1.5-1.5C121.7,77,122.7,77.1,123.6,77.5z"/>
		<path d="M48.7,82.9c0.1,0.3,0.1,0.6,0.2,0.9c-0.4,0.4-0.9,0.4-1.4,0.4c-0.7-0.1-1.1-0.4-1.2-1.1c0-0.2,0-0.4,0-0.6
			c0-2.6,0-5.2,0-7.9c0-0.2,0-0.4,0.1-0.7c0.5,0,0.9,0,1.5,0c0,0.3,0,0.6,0,0.8c0,2.2,0,4.5,0,6.7c0,0.2,0,0.4,0,0.6
			c0,0.6,0,0.6,0.7,0.7C48.5,82.8,48.6,82.8,48.7,82.9z"/>
		<path d="M134.5,74c0.6,0,1,0,1.5,0c0,0.3,0,0.6,0,0.9c0,2.2,0,4.3,0,6.5c0,0.2,0,0.3,0,0.5c0,0.9,0,0.9,0.9,1
			c0.1,0.3,0.1,0.6,0.2,1c-0.4,0.3-0.9,0.4-1.3,0.4c-0.8,0-1.2-0.5-1.3-1.3c0-0.3,0-0.5,0-0.8c0-2.4,0-4.8,0-7.2
			C134.5,74.6,134.5,74.4,134.5,74z"/>
		<path d="M64.3,84c-0.5,0-1,0-1.4,0c-0.2-0.6-0.2-5.7,0-6.6c1-0.2,1.1-0.2,1.4,0.5c0.8-0.6,1.6-1.1,2.7-0.5
			c-0.2,0.4-0.3,0.8-0.4,1.1c-0.6,0.1-1.1,0.2-1.6,0.3c-0.4,0.1-0.6,0.4-0.6,0.9c0,1.1,0,2.3,0,3.5C64.3,83.5,64.3,83.7,64.3,84z"/>
		<path d="M75.1,77.3c0.5,0,0.9,0,1.4,0c0,2.2,0,4.4,0,6.7c-0.5,0-0.9,0-1.4,0C75,83.5,74.9,78.4,75.1,77.3z"/>
		<path d="M133.1,84c-0.5,0-0.9,0-1.3,0c-0.2-0.6-0.2-5-0.1-6.7c0.5,0,0.9,0,1.4,0C133.1,79.6,133.1,81.8,133.1,84z"/>
		<path d="M76.7,75.2c0,0.5-0.4,1-1,0.9c-0.5,0-1-0.4-1-1c0-0.5,0.4-0.9,1-0.9C76.3,74.3,76.7,74.7,76.7,75.2z"/>
		<path d="M131.5,75.2c0-0.5,0.4-0.9,1-0.9c0.5,0,1,0.5,0.9,1c0,0.5-0.5,0.9-1,0.9C131.9,76.2,131.5,75.7,131.5,75.2z"/>
		<path class="st0" d="M87.7,86.4c-0.5-0.1-1-0.3-1.4-0.5c-0.5-0.2-0.6-0.7-0.4-1.1c0.2-0.4,0.5-0.6,1-0.5c0.5,0.1,1,0.1,1.4,0.2
			c0.2,0,0.5,0.1,0.7,0.2c0.2,0.1,0.5,0.4,0.5,0.6c0,0.2-0.2,0.6-0.5,0.7C88.7,86.2,88.2,86.3,87.7,86.4z"/>
		<path class="st0" d="M87.6,78.3c0.7,0,1.3,0.6,1.4,1.3c0,0.8-0.5,1.4-1.2,1.4c-0.7,0-1.3-0.6-1.3-1.3
			C86.3,78.9,86.9,78.4,87.6,78.3z"/>
		<path class="st0" d="M113.1,78.5c0,1.5,0,2.9,0,4.3c-1,0.3-1.9,0.1-2.5-0.6c-0.6-0.7-0.7-1.9-0.2-2.7
			C111.1,78.4,112,78.3,113.1,78.5z"/>
		<path class="st0" d="M59.9,80.9c0,0.4,0,0.6,0,0.8c0,0.5,0,0.8-0.5,1c-0.5,0.2-1.1,0.3-1.6-0.1c-0.3-0.2-0.4-0.6-0.4-0.9
			c0.1-0.4,0.3-0.6,0.7-0.7C58.7,81,59.3,81,59.9,80.9z"/>
		<path class="st0" d="M99,80.9c0,0.4,0,0.6,0,0.8c0,0.4,0,0.8-0.5,1C98,83,97.5,83.1,97,82.7c-0.3-0.2-0.4-0.6-0.4-0.9
			c0.1-0.4,0.4-0.7,0.7-0.7C97.9,81,98.4,81,99,80.9z"/>
		<path class="st0" d="M53.5,79.9c-0.9,0-1.7,0-2.6,0c0.1-1,0.6-1.5,1.3-1.5C53,78.3,53.5,78.9,53.5,79.9z"/>
	</g>
</g>
</svg>
