<?xml version="1.0" encoding="utf-8"?>
<!-- Generator: Adobe Illustrator 22.0.1, SVG Export Plug-In . SVG Version: 6.00 Build 0)  -->
<svg version="1.1" id="Layer_1" xmlns="http://www.w3.org/2000/svg" xmlns:xlink="http://www.w3.org/1999/xlink" x="0px" y="0px"
	 width="90px" height="53.8px" viewBox="0 0 90 53.8" style="enable-background:new 0 0 90 53.8;" xml:space="preserve">
<style type="text/css">
	.st0{fill:#FFFFFF;}
</style>
<g>
	<path class="st0" d="M22.6,51.6c-0.2-0.6-0.2-0.7,0.3-1.3c-0.4-0.3-0.6-0.7-0.6-1.3c0-0.8,0.5-1.4,1.3-1.5c0.4,0,0.7,0.1,1.1,0.1
		c0.4,0,0.7-0.2,1.1-0.3c0.1,0,0.2,0,0.4,0c-0.1,0.2-0.1,0.5-0.2,0.7c-0.2,0-0.3,0-0.5,0c0.1,0.1,0.1,0.2,0.1,0.3
		c0.5,1-0.1,2.1-1.2,2.2c-0.2,0-0.4,0-0.6,0c-0.2,0-0.3,0-0.3,0.2c0,0.2,0,0.3,0.2,0.3c0.3,0.1,0.6,0.1,0.9,0.2
		c0.4,0.1,0.7,0.1,1.1,0.2c1,0.3,0.8,1.4,0.3,1.8c-0.2,0.2-0.5,0.3-0.7,0.4c-0.6,0.2-1.3,0.2-1.9,0c-0.3-0.1-0.6-0.2-0.8-0.4
		c-0.4-0.4-0.4-1,0-1.4C22.4,51.7,22.5,51.7,22.6,51.6z M23.9,53.1c0.3,0,0.4-0.1,0.6-0.1c0.4-0.1,0.6-0.3,0.6-0.5
		c0-0.3-0.3-0.4-0.6-0.5c-0.3-0.1-0.7-0.1-1.1-0.2c-0.3-0.1-0.5,0-0.6,0.3c-0.1,0.3,0,0.5,0.3,0.7C23.4,53,23.7,53,23.9,53.1z
		 M23.9,49.8c0.4,0,0.8-0.3,0.8-0.8c0-0.5-0.4-0.9-0.8-0.9c-0.4,0-0.8,0.3-0.8,0.8C23.2,49.5,23.5,49.8,23.9,49.8z"/>
	<path class="st0" d="M15.3,51.5c-0.9,0.4-1.8,0.5-2.6,0c-0.8-0.4-1.1-1.2-1-2.1c0.1-0.9,0.5-1.6,1.4-1.9c0.4-0.1,0.9-0.1,1.4-0.2
		c0-0.6,0-1.2,0-1.9c0.3,0,0.6,0,0.9,0C15.3,45.9,15.4,50.8,15.3,51.5z M14.4,48.4c-0.6-0.2-1.2-0.1-1.6,0.4c-0.4,0.5-0.4,1.3,0,1.8
		c0.3,0.5,0.9,0.6,1.6,0.4C14.4,50.1,14.4,49.2,14.4,48.4z"/>
	<path class="st0" d="M10.1,51.5c-0.4,0.1-0.7,0.3-1,0.3c-1,0.1-1.8-0.7-1.5-1.7c0.1-0.4,0.3-0.6,0.7-0.8c0.3-0.1,0.6-0.2,0.9-0.2
		c0.3,0,0.5,0,0.8-0.1c0-0.6-0.2-0.9-0.8-0.8c-0.3,0-0.7,0.2-1.1,0.2c-0.1-0.1-0.2-0.3-0.3-0.5c0.8-0.5,1.6-0.6,2.4-0.3
		c0.5,0.2,0.7,0.6,0.7,1.1c0,0.6,0,1.2,0,1.7c0,0.4,0,0.8,0,1.3C10.6,51.7,10.3,51.9,10.1,51.5z M10,49.8c-0.4,0-0.8,0-1.1,0.1
		c-0.5,0.1-0.6,0.6-0.3,1c0.3,0.3,0.6,0.2,1,0.1c0.4-0.1,0.4-0.2,0.4-0.6C10,50.2,10,50,10,49.8z"/>
	<path class="st0" d="M6.9,49.9c-0.9,0-1.7,0-2.6,0c0,1.1,0.8,1.4,2.2,0.9c0.1,0.2,0.1,0.4,0.2,0.5c-1.1,1-2.8,0.5-3.3-0.8
		c-0.3-0.7-0.2-1.4,0.1-2.1c0.4-0.7,1-1,1.7-0.9c0.7,0.1,1.2,0.5,1.4,1.2C6.9,49,7,49.4,6.9,49.9z M5.9,49.1c0-0.6-0.3-0.9-0.8-0.9
		c-0.5,0-0.8,0.3-0.8,0.9C4.9,49.1,5.4,49.1,5.9,49.1z"/>
	<path class="st0" d="M21.5,51.7c-0.3,0-0.5,0-0.8,0c0-0.1,0-0.3,0-0.4c0-0.6,0-1.3,0-1.9c0-0.2,0-0.4-0.1-0.6
		c-0.1-0.4-0.4-0.6-0.8-0.5c-0.1,0-0.3,0.1-0.4,0.1c-0.3,0.1-0.5,0.4-0.5,0.8c0,0.8,0,1.6,0,2.4c-0.3,0-0.6,0-0.9,0
		c0-1.4,0-2.7,0-4.1c0.2,0,0.5,0,0.7,0c0,0.1,0.1,0.2,0.1,0.3c0.1-0.1,0.3-0.1,0.4-0.2c0.2-0.1,0.4-0.2,0.5-0.2
		c1-0.3,1.8,0.3,1.8,1.3c0,0.9,0,1.7,0,2.6C21.5,51.5,21.5,51.6,21.5,51.7z"/>
	<path class="st0" d="M86.9,51.4c0.1-0.2,0.2-0.4,0.3-0.6c0.1,0.1,0.2,0.1,0.4,0.1c0.3,0.1,0.6,0.1,0.9,0.1c0.3,0,0.5-0.2,0.6-0.4
		c0-0.3-0.1-0.4-0.3-0.5c-0.3-0.1-0.6-0.3-0.8-0.4c-0.3-0.2-0.5-0.4-0.6-0.7c-0.2-0.7,0.2-1.4,1-1.5c0.4-0.1,0.9,0,1.3,0
		c0.4,0.1,0.4,0.1,0.4,0.5c0,0.1,0,0.2,0,0.2c0,0,0,0.1-0.1,0.1c-0.3-0.1-0.6-0.1-0.9-0.2c-0.2,0-0.4,0-0.6,0
		c-0.3,0.1-0.3,0.4-0.1,0.6c0.1,0.1,0.3,0.2,0.5,0.3c0.3,0.1,0.5,0.2,0.8,0.4c0.4,0.3,0.6,0.7,0.5,1.2c-0.1,0.5-0.3,0.7-0.7,0.9
		C88.6,51.9,87.6,51.9,86.9,51.4z"/>
	<path class="st0" d="M0.9,50.9c0.7,0,1.4,0,2.1,0c0,0.3,0,0.5,0,0.7c-0.3,0.1-2.2,0.1-2.9,0C0,51.3,0,46.6,0.1,46
		c0.3,0,0.5,0,0.9,0C0.9,47.6,0.9,49.2,0.9,50.9z"/>
	<path class="st0" d="M84.9,45.5c0.3,0,0.6,0,0.9,0c0,0.2,0,0.4,0,0.5c0,1.4,0,2.8,0,4.1c0,0.1,0,0.2,0,0.3c0,0.3,0,0.3,0.4,0.4
		c0,0,0.1,0,0.1,0c0,0,0,0,0.1,0.1c0,0.2,0.1,0.4,0.1,0.6c-0.3,0.2-0.6,0.3-0.9,0.2c-0.4-0.1-0.6-0.3-0.7-0.7c0-0.1,0-0.2,0-0.3
		c0-1.6,0-3.2,0-4.8C84.9,45.8,84.9,45.7,84.9,45.5z"/>
	<path class="st0" d="M16.2,51.7c0-1.4,0-2.7,0-4.1c0.3,0,0.6,0,0.9,0c0,1.4,0,2.7,0,4.1C16.7,51.7,16.5,51.7,16.2,51.7z"/>
	<path class="st0" d="M16.6,45.7c0.3,0,0.6,0.3,0.6,0.6c0,0.3-0.3,0.6-0.6,0.6c-0.3,0-0.6-0.2-0.6-0.6C16,46,16.3,45.7,16.6,45.7z"
		/>
	<path class="st0" d="M14.4,48.4c0,0.9,0,1.7,0,2.5c-0.7,0.2-1.3,0-1.6-0.4c-0.4-0.5-0.3-1.3,0-1.8C13.2,48.3,13.8,48.1,14.4,48.4z"
		/>
	<path class="st0" d="M10,49.8c0,0.2,0,0.4,0,0.5c0,0.4,0,0.5-0.4,0.6c-0.3,0.1-0.7,0.2-1-0.1c-0.3-0.3-0.2-0.8,0.3-1
		C9.2,49.8,9.6,49.8,10,49.8z"/>
	<path class="st0" d="M5.9,49.1c-0.5,0-1.1,0-1.6,0c0.1-0.6,0.4-0.9,0.8-0.9C5.6,48.2,5.9,48.5,5.9,49.1z"/>
	<path class="st0" d="M0,40.9C0,27.2,0,13.6,0,0c30,0,60,0,90,0c0,13.6,0,27.2,0,40.8C89.7,40.9,0.6,41,0,40.9z M58.9,14.9
		c-0.1-0.1-0.2-0.2-0.3-0.3c-0.7-0.6-1.6-1-2.5-1.2c-1.8-0.6-3.7-0.7-5.6-0.5c-1.4,0.1-2.7,0.5-3.8,1.3c-1.1,0.7-2,1.7-2.4,3
		C44,17.9,44,18.7,44,19.6c0.2,1.8,1,3.2,2.6,4.1c0.6,0.3,1.3,0.6,2,0.8c1.1,0.2,2.1,0.4,3.2,0.7c0.6,0.1,1.1,0.3,1.7,0.5
		c0.6,0.2,0.8,0.7,0.8,1.4c0,0.8-0.4,1.3-1.1,1.6C52.7,28.9,52,29,51.4,29c-1.9,0-3.5-0.6-5.1-1.6c-0.1-0.1-0.2-0.2-0.4-0.3
		c-0.9,1.1-1.9,2.3-2.8,3.4c0.1,0.1,0.2,0.2,0.3,0.2c1.1,0.9,2.3,1.5,3.6,1.9c1.9,0.6,3.9,0.7,5.8,0.5c1.1-0.1,2.2-0.4,3.2-0.9
		c1.5-0.8,2.5-1.9,2.9-3.6c0.2-0.9,0.3-1.8,0.2-2.7c-0.2-1.8-1-3.1-2.6-3.9c-0.9-0.4-1.8-0.7-2.7-0.9c-1.1-0.3-2.2-0.5-3.4-0.8
		c-0.5-0.1-0.9-0.3-1.2-0.6c-0.7-0.6-0.7-1.6,0.1-2.2c0.4-0.3,0.8-0.5,1.3-0.6c1.8-0.3,3.5,0,5,0.9c0.1,0.1,0.3,0.2,0.4,0.3
		C57,17.1,57.9,16,58.9,14.9z M77,15.4c-0.1-0.1-0.1-0.2-0.2-0.2c-0.8-0.8-1.7-1.4-2.8-1.8c-2-0.8-4-0.8-6-0.4
		c-3,0.6-5.1,2.3-6.2,5.2c-0.5,1.2-0.7,2.4-0.8,3.7c-0.1,1.8,0,3.6,0.6,5.3c0.7,2.2,2,3.9,4,5c1.2,0.6,2.5,0.9,3.8,1
		c2.4,0.2,4.5-0.4,6.4-1.8c0.5-0.4,0.9-0.8,1.4-1.3C76.1,29,75.1,28,74,27c-0.3,0.3-0.5,0.5-0.8,0.7c-0.9,0.7-1.9,1.1-3,1
		c-1.8-0.1-3.1-1-3.7-2.6c-0.1-0.2-0.2-0.5-0.2-0.7c-0.3-1.1-0.3-2.3-0.2-3.4c0.1-0.8,0.2-1.7,0.6-2.4c0.4-0.9,1.1-1.7,2.1-2
		c1.8-0.6,3.5-0.4,5,0.9c0.1,0.1,0.2,0.2,0.3,0.3C75,17.6,76,16.5,77,15.4z M12.9,12.8c0,1.9,0,3.7,0,5.5c3.1,1.2,6.1,2.4,9.2,3.6
		c0,0,0,0.1,0,0.1c-3.1,1.2-6.1,2.4-9.2,3.6c0,1.9,0,3.7,0,5.5c5.4-2.5,10.7-4.9,16.1-7.3c0-1.2,0-2.5,0-3.7
		C23.6,17.7,18.3,15.2,12.9,12.8z M32.6,7.7c0,0.2,0,0.3,0,0.5c0,6.2,0,12.5,0,18.7c0,0.8,0,1.5,0.2,2.3c0.4,1.5,1.2,2.7,2.7,3.4
		c0.6,0.2,1.1,0.4,1.7,0.5c1.1,0.1,2.2,0.1,3.3,0.1c0.1,0,0.2,0,0.3,0c0.1-0.6,0.1-3.9,0-4.2c-0.1,0-0.3,0-0.5,0c-0.4,0-0.8,0-1.2,0
		c-0.9-0.1-1.4-0.5-1.5-1.4c-0.1-0.3-0.1-0.6-0.1-0.9c0-6.1,0-12.1,0-18.2c0-0.2,0-0.4,0-0.6C35.9,7.7,34.2,7.7,32.6,7.7z"/>
	<path class="st0" d="M52.6,51.5c-0.3-0.5-0.2-0.9,0.3-1.3c-0.4-0.4-0.6-0.8-0.6-1.3c0-0.7,0.5-1.3,1.2-1.5c0.4-0.1,0.8,0,1.2,0.1
		c0.4,0,0.7-0.3,1.1-0.3c0.1,0,0.1,0,0.2,0c-0.1,0.2-0.1,0.4-0.2,0.6c-0.2,0-0.3,0-0.5,0.1c0.1,0.1,0.1,0.2,0.2,0.3
		c0.5,1-0.1,2-1.1,2.2c-0.2,0-0.5,0-0.7,0c-0.2,0-0.3,0-0.3,0.2c0,0.2,0.1,0.3,0.2,0.3c0.3,0.1,0.5,0.1,0.8,0.2
		c0.4,0.1,0.7,0.1,1.1,0.2c1,0.4,0.8,1.4,0.3,1.8c-0.2,0.2-0.5,0.3-0.7,0.4c-0.6,0.2-1.3,0.2-1.9,0c-0.3-0.1-0.5-0.2-0.7-0.4
		c-0.5-0.4-0.5-1.1,0-1.5C52.4,51.7,52.5,51.6,52.6,51.5z M54,53.1c0.3-0.1,0.6-0.1,0.8-0.2c0.1-0.1,0.3-0.3,0.3-0.4
		c0-0.1-0.2-0.3-0.3-0.3c-0.1-0.1-0.3-0.1-0.4-0.1c-0.3-0.1-0.6-0.1-0.9-0.1c-0.3-0.1-0.5,0-0.6,0.3c-0.1,0.3,0,0.5,0.2,0.7
		C53.4,53,53.7,53.1,54,53.1z M53.9,48.2c-0.4,0-0.7,0.4-0.7,0.8c0,0.5,0.4,0.8,0.8,0.8c0.5,0,0.8-0.4,0.8-0.8
		C54.7,48.5,54.3,48.2,53.9,48.2z"/>
	<path class="st0" d="M69.6,47.4c0-0.6,0-1.2,0-1.9c0.3,0,0.6,0,0.9,0c0,0.2,0,0.3,0,0.5c0,1.7,0,3.4,0,5c0,0.5,0,0.5-0.5,0.6
		c-0.5,0.1-1,0.2-1.6,0.1c-1.1-0.2-1.7-0.9-1.7-1.9c-0.1-1.1,0.5-2,1.5-2.3C68.7,47.5,69.2,47.5,69.6,47.4z M69.6,48.3
		c-0.7-0.1-1.3,0-1.6,0.6c-0.3,0.5-0.2,1.2,0.1,1.7c0.3,0.4,0.9,0.6,1.5,0.4C69.6,50.1,69.6,49.2,69.6,48.3z"/>
	<path class="st0" d="M80.4,51.7c-0.1,0-0.1,0.1-0.2,0.1c-0.9,0-0.9,0-1.4-0.6c-0.3-0.4-0.6-0.8-0.9-1.2c0,0-0.1,0-0.1,0
		c0,0.6,0,1.2,0,1.8c-0.3,0-0.6,0-0.9,0c-0.1-0.4-0.1-5.6,0-6.2c0.3,0,0.5,0,0.9,0c0,1.1,0,2.2,0,3.3c0,0,0.1,0,0.1,0
		c0.3-0.3,0.6-0.6,0.9-0.9c0.2-0.3,0.5-0.4,0.9-0.4c0.2,0,0.3,0,0.5,0c0,0,0,0.1,0,0.1c-0.5,0.5-1.1,1.1-1.6,1.7
		C79.1,50.1,79.8,50.9,80.4,51.7z"/>
	<path class="st0" d="M36.9,49.1c-0.1-0.7-0.3-0.9-0.9-0.8c-0.3,0-0.6,0.2-1,0.3c-0.1-0.1-0.2-0.3-0.3-0.5c0.6-0.5,1.8-0.7,2.5-0.3
		c0.3,0.2,0.5,0.4,0.6,0.7c0,0.1,0.1,0.2,0.1,0.3c0,1,0,2,0,3c-0.3,0-0.7,0.2-0.8-0.3c-0.3,0.1-0.6,0.3-0.9,0.3
		c-1,0.2-1.7-0.5-1.6-1.5c0-0.5,0.3-0.8,0.7-1c0.3-0.1,0.6-0.2,0.9-0.2C36.3,49.1,36.6,49.1,36.9,49.1z M36.9,49.8
		c-0.4,0-0.7,0.1-1.1,0.1c-0.2,0-0.4,0.2-0.4,0.4c0,0.2,0,0.4,0.2,0.6c0.3,0.2,0.6,0.2,1,0c0.3-0.1,0.3-0.4,0.3-0.6
		C36.9,50.1,36.9,50,36.9,49.8z"/>
	<path class="st0" d="M61,51.5c-0.4,0.1-0.7,0.3-1,0.3C59,52,58.2,51,58.6,50c0.2-0.6,0.7-0.8,1.2-0.9c0.4-0.1,0.7-0.1,1.1-0.1
		c0-0.6-0.2-0.9-0.8-0.8c-0.3,0-0.7,0.2-1.1,0.2c-0.1-0.1-0.2-0.3-0.3-0.5c0.8-0.5,1.6-0.6,2.4-0.3c0.5,0.2,0.7,0.6,0.7,1.1
		c0,0.4,0,0.8,0,1.2c0,0.6,0,1.1,0,1.7C61.3,51.8,61.3,51.8,61,51.5z M60.9,49.8c-0.4,0-0.7,0-1,0.1c-0.2,0-0.4,0.2-0.5,0.5
		c0,0.2,0,0.4,0.2,0.6c0.3,0.2,0.6,0.2,1,0c0.3-0.1,0.3-0.4,0.3-0.6C60.9,50.1,60.9,50,60.9,49.8z"/>
	<path class="st0" d="M33.9,49.9c-0.9,0-1.7,0-2.6,0c0,1.1,0.8,1.4,2.2,0.9c0,0.1,0.1,0.1,0.1,0.2c0,0.1,0.1,0.2,0.1,0.3
		c-1.1,1-2.9,0.5-3.3-0.8c-0.2-0.6-0.2-1.3,0.1-1.9c0.3-0.8,1-1.1,1.8-1.1c0.7,0,1.3,0.5,1.5,1.3c0,0.2,0.1,0.3,0.1,0.5
		C33.9,49.4,33.9,49.6,33.9,49.9z M32.9,49.1c0-0.6-0.3-0.9-0.8-0.9c-0.5,0-0.8,0.3-0.8,0.9C31.8,49.1,32.4,49.1,32.9,49.1z"/>
	<path class="st0" d="M48.6,47.6c0.1,0.1,0.1,0.2,0.2,0.4c0.1-0.1,0.2-0.1,0.3-0.1c0.4-0.2,0.8-0.4,1.2-0.3c0.6,0,1,0.3,1.1,0.9
		c0,0.2,0.1,0.3,0.1,0.5c0,0.9,0,1.8,0,2.7c0,0,0,0.1,0,0.2c-0.3,0-0.5,0-0.9,0c0-0.1,0-0.2,0-0.4c0-0.7,0-1.4,0-2.1
		c0-0.9-0.5-1.1-1.2-0.8c-0.4,0.2-0.6,0.4-0.5,0.8c0,0.8,0,1.6,0,2.4c-0.3,0-0.6,0-0.9,0c0-1.4,0-2.7,0-4.1
		C48.2,47.6,48.4,47.6,48.6,47.6z"/>
	<path class="st0" d="M62.6,47.6c0.2,0,0.4,0,0.7,0c0.1,0.1,0.1,0.2,0.2,0.4c0.5-0.3,0.9-0.5,1.4-0.5c0.6,0,1.1,0.4,1.2,1
		c0,0.2,0.1,0.4,0.1,0.5c0,0.8,0,1.6,0,2.5c0,0.1,0,0.2,0,0.3c-0.3,0-0.6,0-0.9,0c0-0.1,0-0.2,0-0.4c0-0.7,0-1.3,0-2
		c0-0.1,0-0.3,0-0.4c-0.1-0.5-0.4-0.7-0.9-0.6c-0.1,0-0.2,0.1-0.4,0.1c-0.3,0.1-0.5,0.4-0.5,0.8c0,0.6,0,1.3,0,1.9
		c0,0.2,0,0.3,0,0.5c-0.3,0-0.6,0-0.9,0C62.6,51.4,62.5,48.4,62.6,47.6z"/>
	<path class="st0" d="M42.7,51.7c-0.3,0-0.6,0-0.9,0c0-1.4,0-2.7,0-4.1c0.3,0,0.5,0,0.7,0c0,0.1,0.1,0.2,0.2,0.3
		c0.5-0.3,0.9-0.5,1.4-0.5c0.6,0,1.1,0.4,1.2,1c0,0.2,0.1,0.4,0.1,0.6c0,0.7,0,1.4,0,2.1c0,0.2,0,0.3,0,0.5c-0.3,0-0.6,0-0.9,0
		c0-0.1,0-0.3,0-0.5c0-0.7,0-1.3,0-2c0-0.9-0.5-1.2-1.3-0.8c-0.3,0.2-0.5,0.4-0.4,0.7C42.7,50,42.7,50.8,42.7,51.7z"/>
	<path class="st0" d="M76,47.7c0,0.2,0,0.5,0,0.7c-0.3-0.1-0.6-0.1-0.9-0.2c-0.2,0-0.4,0-0.6,0c-0.3,0.1-0.4,0.4-0.1,0.6
		c0.1,0.1,0.3,0.2,0.5,0.3c0.2,0.1,0.5,0.2,0.7,0.4c0.4,0.3,0.6,0.7,0.5,1.1c-0.1,0.5-0.3,0.8-0.7,1c-0.7,0.3-1.7,0.2-2.3-0.2
		c0.1-0.2,0.2-0.4,0.3-0.6c0.3,0.1,0.6,0.2,1,0.3c0.2,0,0.4,0,0.6-0.1c0.3-0.1,0.4-0.5,0.1-0.7c-0.1-0.1-0.3-0.2-0.4-0.2
		c-0.2-0.1-0.4-0.2-0.6-0.3c-0.5-0.3-0.7-0.7-0.7-1.3c0.1-0.5,0.4-0.8,0.9-0.9C74.9,47.4,75.5,47.4,76,47.7z"/>
	<path class="st0" d="M30,51c0,0.2,0.1,0.4,0.1,0.6c-0.3,0.2-0.6,0.3-0.9,0.2c-0.4,0-0.7-0.3-0.7-0.7c0-0.1,0-0.2,0-0.3
		c0-1.6,0-3.2,0-4.8c0-0.1,0-0.3,0-0.4c0.3,0,0.6,0,0.9,0c0,0.2,0,0.3,0,0.5c0,1.4,0,2.8,0,4.1c0,0.1,0,0.2,0,0.3
		c0,0.3,0,0.4,0.4,0.4C29.8,50.9,29.9,51,30,51z"/>
	<path class="st0" d="M82.7,45.5c0.3,0,0.6,0,0.9,0c0,0.2,0,0.4,0,0.5c0,1.3,0,2.7,0,4c0,0.1,0,0.2,0,0.3c0,0.5,0,0.5,0.6,0.6
		c0,0.2,0.1,0.4,0.1,0.6c-0.3,0.2-0.5,0.2-0.8,0.2c-0.5,0-0.8-0.3-0.8-0.8c0-0.2,0-0.3,0-0.5c0-1.5,0-3,0-4.4
		C82.7,45.9,82.7,45.7,82.7,45.5z"/>
	<path class="st0" d="M39.6,51.7c-0.3,0-0.6,0-0.9,0c-0.1-0.4-0.1-3.5,0-4.1c0.6-0.1,0.7-0.1,0.9,0.3c0.5-0.3,1-0.7,1.6-0.3
		c-0.1,0.3-0.2,0.5-0.3,0.7c-0.4,0.1-0.7,0.1-1,0.2c-0.2,0.1-0.4,0.3-0.4,0.6c0,0.7,0,1.4,0,2.1C39.6,51.3,39.6,51.5,39.6,51.7z"/>
	<path class="st0" d="M46.2,47.6c0.3,0,0.6,0,0.9,0c0,1.4,0,2.7,0,4.1c-0.3,0-0.6,0-0.8,0C46.1,51.3,46.1,48.2,46.2,47.6z"/>
	<path class="st0" d="M81.9,51.7c-0.3,0-0.6,0-0.8,0c-0.1-0.3-0.1-3-0.1-4.1c0.3,0,0.6,0,0.9,0C81.9,49,81.9,50.3,81.9,51.7z"/>
	<path class="st0" d="M47.2,46.3c0,0.3-0.3,0.6-0.6,0.6c-0.3,0-0.6-0.3-0.6-0.6c0-0.3,0.3-0.6,0.6-0.6C46.9,45.7,47.2,46,47.2,46.3z
		"/>
	<path class="st0" d="M80.9,46.3c0-0.3,0.3-0.6,0.6-0.6c0.3,0,0.6,0.3,0.6,0.6c0,0.3-0.3,0.6-0.6,0.6C81.1,46.9,80.9,46.6,80.9,46.3
		z"/>
</g>
</svg>
