<?xml version="1.0" encoding="utf-8"?>
<!-- Generator: Adobe Illustrator 22.0.1, SVG Export Plug-In . SVG Version: 6.00 Build 0)  -->
<svg version="1.1" id="Layer_1" xmlns="http://www.w3.org/2000/svg" xmlns:xlink="http://www.w3.org/1999/xlink" x="0px" y="0px"
	 width="62px" height="89.7px" viewBox="0 0 62 89.7" style="enable-background:new 0 0 62 89.7;" xml:space="preserve">
<style type="text/css">
	.st0{fill:#FFFFFF;}
</style>
<g>
	<circle class="st0" cx="31" cy="6.9" r="1.9"/>
	<circle class="st0" cx="18.4" cy="20.2" r="1"/>
	<circle class="st0" cx="16.2" cy="16.6" r="1"/>
	<circle class="st0" cx="15.5" cy="14.5" r="1"/>
	<circle class="st0" cx="15.2" cy="12.2" r="1"/>
	<circle class="st0" cx="15.8" cy="10.1" r="1"/>
	<circle class="st0" cx="17.3" cy="8.2" r="1"/>
	<circle class="st0" cx="19.3" cy="7.2" r="1"/>
	<circle class="st0" cx="21.4" cy="6.7" r="1"/>
	<circle class="st0" cx="23.7" cy="6.9" r="1"/>
	<circle class="st0" cx="25.9" cy="7.7" r="1"/>
	<circle class="st0" cx="27.9" cy="8.2" r="1"/>
	<circle class="st0" cx="31" cy="14" r="1"/>
	<circle class="st0" cx="31" cy="12" r="1"/>
	<circle class="st0" cx="31" cy="10" r="1"/>
	<circle class="st0" cx="31.1" cy="18.1" r="1"/>
	<circle class="st0" cx="31" cy="2.4" r="1"/>
	<circle class="st0" cx="43.8" cy="20.2" r="1"/>
	<circle class="st0" cx="45.9" cy="16.6" r="1"/>
	<circle class="st0" cx="46.6" cy="14.5" r="1"/>
	<circle class="st0" cx="46.9" cy="12.2" r="1"/>
	<circle class="st0" cx="46.3" cy="10.1" r="1"/>
	<circle class="st0" cx="44.9" cy="8.2" r="1"/>
	<circle class="st0" cx="42.8" cy="7.2" r="1"/>
	<circle class="st0" cx="40.7" cy="6.7" r="1"/>
	<circle class="st0" cx="38.4" cy="6.9" r="1"/>
	<circle class="st0" cx="36.3" cy="7.7" r="1"/>
	<circle class="st0" cx="34.2" cy="8.2" r="1"/>
	<path class="st0" d="M35.1,19.4L35.1,19.4L35.1,19.4"/>
	<path class="st0" d="M31,26.3c-3.8,0-7.5,0.7-11.1,2.1c-0.1,0-0.1,0.1-0.2,0.1l0,0c-0.1,0-0.1,0.1-0.2,0.1
		c-0.5,0.3-0.7,0.9-0.5,1.5c0.2,0.5,0.7,0.7,1.1,0.7c0.2,0,0.3,0,0.5-0.1c3.3-1.3,6.8-2,10.3-2c3.6,0,7.1,0.7,10.3,2
		c0.1,0.1,0.3,0.1,0.5,0.1c0.5,0,0.9-0.3,1.2-0.7c0.2-0.5,0-1.2-0.5-1.5c-0.1-0.1-0.1-0.1-0.2-0.1l0,0c-0.1,0-0.1-0.1-0.2-0.1
		C38.6,26.9,34.9,26.3,31,26.3"/>
	<path class="st0" d="M31,30.2c14.2,0,25.7,11.5,25.7,25.7c0,14.2-11.5,25.7-25.7,25.7C16.9,81.7,5.3,70.2,5.3,56
		c0-1.9,0.2-3.8,0.6-5.6c0-0.1,0.1-0.1,0.1-0.2v-0.1C6,50.1,6,50,6,49.9C8.7,38.6,18.9,30.2,31,30.2 M6.7,45.7
		C5.3,48.9,4.6,52.4,4.6,56c0,3.5,0.7,7,2.1,10.3c1.3,3.2,3.2,6,5.7,8.4s5.3,4.3,8.4,5.7c3.2,1.4,6.7,2.1,10.3,2.1s7-0.7,10.3-2.1
		c3.2-1.3,6-3.2,8.4-5.7c2.4-2.4,4.3-5.3,5.7-8.4c1.4-3.2,2.1-6.7,2.1-10.3c0-3.5-0.7-7-2.1-10.3c-1.3-3.2-3.2-6-5.7-8.4
		c-2.4-2.4-5.3-4.3-8.4-5.7c-3.2-1.4-6.7-2.1-10.3-2.1s-7.1,0.7-10.4,2.1c-3.2,1.3-6,3.2-8.4,5.7C9.9,39.7,7.9,42.5,6.7,45.7"/>
	<path class="st0" d="M29.7,86.5c0,1.7,1.3,3.2,1.3,3.2s1.3-1.4,1.3-3.2c0-1.7-1.3-3.2-1.3-3.2S29.7,84.7,29.7,86.5"/>
	<path class="st0" d="M26.6,83.7c-1.5,0.9-2.1,2.7-2.1,2.7s1.9,0.5,3.4-0.4c1.5-0.9,2.1-2.7,2.1-2.7S28.2,82.8,26.6,83.7"/>
	<path class="st0" d="M26.1,82.9c0,0-1.8-0.7-3.4-0.1c-1.6,0.6-2.5,2.3-2.5,2.3s1.8,0.7,3.4,0.1C25.2,84.6,26.1,82.9,26.1,82.9"/>
	<path class="st0" d="M22.2,81.9c0,0-1.6-1-3.4-0.6c-1.7,0.4-2.8,2-2.8,2s1.6,1,3.4,0.6C21.1,83.4,22.2,81.9,22.2,81.9"/>
	<path class="st0" d="M18.6,80.3c0,0-1.5-1.2-3.2-1.1c-1.7,0.1-3.1,1.5-3.1,1.5s1.5,1.2,3.2,1.1C17.2,81.7,18.6,80.3,18.6,80.3"/>
	<path class="st0" d="M12.1,76.7c-1.7-0.1-3.2,1-3.2,1s1.3,1.4,3.1,1.6c1.7,0.1,3.2-1,3.2-1S13.9,76.8,12.1,76.7"/>
	<path class="st0" d="M12.1,75.7c0,0-1.1-1.6-2.7-2C7.6,73.3,6,74.2,6,74.2s1.1,1.6,2.7,2S12.1,75.7,12.1,75.7"/>
	<path class="st0" d="M9.4,72.8c0,0-0.9-1.7-2.4-2.4c-1.6-0.6-3.4,0.1-3.4,0.1s0.9,1.7,2.4,2.4C7.6,73.5,9.4,72.8,9.4,72.8"/>
	<path class="st0" d="M7.2,69.5c0,0-0.5-1.8-2.1-2.7c-1.5-0.9-3.4-0.4-3.4-0.4s0.5,1.8,2.1,2.7C5.3,69.9,7.2,69.5,7.2,69.5"/>
	<path class="st0" d="M2.2,64.9c1.3,1.1,3.3,0.9,3.3,0.9s-0.3-1.9-1.6-3s-3.3-0.9-3.3-0.9S0.9,63.9,2.2,64.9"/>
	<path class="st0" d="M4.3,62.1c0,0,0-2-1.2-3.2C1.9,57.6,0,57.5,0,57.5s0,2,1.2,3.2C2.4,61.9,4.3,62.1,4.3,62.1"/>
	<path class="st0" d="M3.7,58.1c0,0,0.2-1.9-0.7-3.4c-1-1.4-2.9-1.8-2.9-1.8s-0.2,1.9,0.7,3.4C1.8,57.7,3.7,58.1,3.7,58.1"/>
	<path class="st0" d="M3.7,54.1c0,0,0.5-1.8-0.2-3.4c-0.8-1.5-2.6-2.2-2.6-2.2s-0.5,1.8,0.2,3.4C1.9,53.4,3.7,54.1,3.7,54.1"/>
	<path class="st0" d="M4.3,50.2c0,0,0.8-1.8,0.2-3.4c-0.5-1.6-2.3-2.6-2.3-2.6S1.5,46,2,47.6S4.3,50.2,4.3,50.2"/>
	<path class="st0" d="M5.4,46.4c0,0,1-1.6,0.7-3.4c-0.3-1.7-1.8-2.9-1.8-2.9s-1,1.6-0.7,3.4C3.8,45.2,5.4,46.4,5.4,46.4"/>
	<path class="st0" d="M7.1,42.8c0,0,1.3-1.5,1.2-3.2s-1.4-3.1-1.4-3.1s-1.3,1.5-1.2,3.2C5.7,41.4,7.1,42.8,7.1,42.8"/>
	<path class="st0" d="M10.9,36.5c0.2-1.7-1-3.3-1-3.3s-1.5,1.3-1.6,3c-0.2,1.7,0.9,3.3,0.9,3.3S10.7,38.2,10.9,36.5"/>
	<path class="st0" d="M13.9,33.7c0.4-1.7-0.5-3.4-0.5-3.4s-1.6,1-2.1,2.7c-0.4,1.7,0.5,3.4,0.5,3.4S13.5,35.4,13.9,33.7"/>
	<path class="st0" d="M17.3,31.5c0.7-1.6,0-3.4,0-3.4s-1.8,0.8-2.4,2.4c-0.7,1.6-0.1,3.4-0.1,3.4S16.7,33.1,17.3,31.5"/>
	<path class="st0" d="M35.4,83.7c-1.5-0.9-3.4-0.4-3.4-0.4s0.6,1.8,2.1,2.7s3.4,0.4,3.4,0.4S37,84.5,35.4,83.7"/>
	<path class="st0" d="M39.4,82.7c-1.6-0.6-3.4,0.1-3.4,0.1s0.9,1.7,2.5,2.3c1.6,0.6,3.4-0.1,3.4-0.1S41,83.3,39.4,82.7"/>
	<path class="st0" d="M43.2,81.2c-1.7-0.4-3.4,0.6-3.4,0.6s1.1,1.6,2.8,2c1.7,0.4,3.4-0.6,3.4-0.6S44.9,81.6,43.2,81.2"/>
	<path class="st0" d="M46.7,79.2c-1.7-0.1-3.2,1.1-3.2,1.1s1.3,1.4,3.1,1.5c1.7,0.1,3.2-1.1,3.2-1.1S48.4,79.3,46.7,79.2"/>
	<path class="st0" d="M49.9,76.7c-1.7,0.1-3.1,1.6-3.1,1.6s1.5,1.2,3.2,1c1.7-0.1,3.1-1.6,3.1-1.6S51.7,76.5,49.9,76.7"/>
	<path class="st0" d="M52.7,73.7c-1.7,0.4-2.7,2-2.7,2s1.6,1,3.4,0.5c1.7-0.4,2.7-2,2.7-2S54.4,73.3,52.7,73.7"/>
	<path class="st0" d="M55,70.4c-1.6,0.6-2.4,2.4-2.4,2.4s1.8,0.7,3.4,0.1c1.6-0.6,2.4-2.4,2.4-2.4S56.7,69.8,55,70.4"/>
	<path class="st0" d="M56.9,66.8c-1.5,0.9-2.1,2.7-2.1,2.7s1.9,0.4,3.4-0.4c1.5-0.9,2.1-2.7,2.1-2.7S58.4,65.8,56.9,66.8"/>
	<path class="st0" d="M58.2,62.9c-1.3,1.1-1.6,3-1.6,3s1.9,0.2,3.3-0.9c1.3-1.1,1.6-3,1.6-3S59.6,61.8,58.2,62.9"/>
	<path class="st0" d="M58.9,58.9c-1.2,1.3-1.2,3.2-1.2,3.2s1.9-0.1,3.1-1.4c1.2-1.3,1.2-3.2,1.2-3.2S60.1,57.6,58.9,58.9"/>
	<path class="st0" d="M59,54.8c-1,1.4-0.7,3.4-0.7,3.4s1.9-0.4,2.9-1.8c1-1.4,0.7-3.4,0.7-3.4S60,53.4,59,54.8"/>
	<path class="st0" d="M58.6,50.7c-0.8,1.5-0.2,3.4-0.2,3.4s1.8-0.7,2.6-2.2c0.8-1.5,0.2-3.4,0.2-3.4S59.4,49.2,58.6,50.7"/>
	<path class="st0" d="M57.7,50.2c0,0,1.7-0.9,2.3-2.6c0.5-1.6-0.2-3.4-0.2-3.4s-1.7,0.9-2.3,2.6C56.9,48.4,57.7,50.2,57.7,50.2"/>
	<path class="st0" d="M56.6,46.4c0,0,1.5-1.2,1.8-2.9c0.3-1.7-0.7-3.4-0.7-3.4s-1.5,1.2-1.8,2.9C55.6,44.8,56.6,46.4,56.6,46.4"/>
	<path class="st0" d="M55,42.8c0,0,1.3-1.3,1.4-3.1c0.1-1.7-1.2-3.2-1.2-3.2s-1.3,1.3-1.4,3.1C53.7,41.3,55,42.8,55,42.8"/>
	<path class="st0" d="M52.8,39.4c0,0,1.2-1.5,0.9-3.3c-0.2-1.7-1.6-3-1.6-3s-1.2,1.5-1,3.3C51.3,38.2,52.8,39.4,52.8,39.4"/>
	<path class="st0" d="M50.1,36.5c0,0,0.9-1.7,0.5-3.4c-0.4-1.7-2.1-2.7-2.1-2.7s-0.9,1.7-0.5,3.4C48.6,35.4,50.1,36.5,50.1,36.5"/>
	<path class="st0" d="M44.7,28.1c0,0-0.7,1.8,0.1,3.4c0.7,1.6,2.4,2.4,2.4,2.4s0.7-1.8-0.1-3.4C46.4,28.8,44.7,28.1,44.7,28.1"/>
	<path class="st0" d="M41.3,69.3L41.3,69.3L41.3,69.3C41.3,69.3,41.4,69.3,41.3,69.3L41.3,69.3 M41.2,69.3L41.2,69.3
		C41.2,69.3,41.2,69.3,41.2,69.3C41.2,69.3,41.2,69.3,41.2,69.3L41.2,69.3 M39.8,68.8L39.8,68.8L39.8,68.8
		C39.8,68.8,39.8,68.8,39.8,68.8L39.8,68.8 M22.2,68.8L22.2,68.8L22.2,68.8L22.2,68.8L22.2,68.8 M20.8,69.3L20.8,69.3L20.8,69.3
		L20.8,69.3 M20.7,69.3L20.7,69.3L20.7,69.3C20.8,69.3,20.8,69.3,20.7,69.3C20.8,69.3,20.7,69.3,20.7,69.3 M43,65.1
		c-0.3-0.8-0.6-1.6-0.6-1.6c-1.4,0.9-3,1.7-4.2,3c-0.7,0.9-1.3,2.1-1.3,2.1c0.7,0,1.4,0,2.1,0.1l0.4,0.1l0,0l0,0l0,0
		c0,0-0.2,2-2,3.9c-0.4,0.4-1.2,1-1.6,1.3c-0.3,0.2-0.6,0.4-1,0.5c-1.4,0-2.9-0.7-2.9-2.3v-8.6c-0.7,0-1.5,0.1-2.2,0v8.6
		c0,1.6-1.5,2.3-2.9,2.3c-0.3-0.2-0.7-0.3-1-0.5c-0.6-0.4-1.1-0.9-1.6-1.4c-1.7-2-2-3.9-2-3.9l0,0l0,0c0.1,0,1.8-0.2,2.5-0.2
		c-0.6-1.3-1.3-2.3-2.4-3.2c-1-0.7-2-1.3-3-2c-0.9,2.4-2.1,4.6-1.5,7.2c0,0,0.8-0.5,2-1.1l0.4-0.1c0,0,0,0,0.1,0
		c0.1,0.3,0.6,3.2,2,4.9l0,0l0.1,0.1c0.1,0.1,0.2,0.3,0.4,0.4c0.5,0.4,1.3,1.1,2.3,1.8c1.1,0.8,2.4,1.6,3.4,2.3
		c1.4,1,2.1,1.8,2.1,1.8s0.7-0.8,2.1-1.8c1-0.7,2.3-1.6,3.5-2.3c1-0.7,1.8-1.3,2.3-1.8c0.1-0.1,0.1-0.1,0.2-0.1l0,0
		c0.1-0.1,0.2-0.2,0.3-0.3l0,0c0.1-0.1,0.1-0.1,0.1-0.2c0.1-0.1,0.2-0.3,0.3-0.5c0.1-0.1,0.1-0.2,0.2-0.3c0.2-0.3,0.4-0.7,0.5-1
		c0,0,0,0,0-0.1c0.2-0.4,0.3-0.9,0.4-1.2l0,0c0.1-0.4,0.2-0.7,0.2-1c0.1-0.4,0.1-0.6,0.1-0.7l0,0l0,0l2.4,1.2
		C43.3,68.8,43.7,66.8,43,65.1"/>
	<path class="st0" d="M29.4,36.9c-0.4-0.4-0.7-1-0.7-1.6c0-0.6,0.2-1.2,0.7-1.6c0.4-0.4,1-0.7,1.6-0.7c0.6,0,1.2,0.2,1.6,0.7
		s0.7,1,0.7,1.6c0,0.6-0.2,1.2-0.7,1.6c-0.1,0.1-0.3,0.3-0.5,0.4l0,0c0-0.6-0.5-1.1-1.1-1.1s-1.1,0.5-1.1,1.1v0.1
		C29.7,37.2,29.6,37.1,29.4,36.9 M29.9,42.6v4.8c0.4,0.2,0.7,0.4,1.1,0.5c0.4-0.2,0.7-0.4,1.1-0.5v-4.8h3.1l8.1-1.3v-1.9H32.1v-0.6
		c1.5-0.5,2.6-1.9,2.6-3.6c0-2.1-1.7-3.7-3.7-3.7c-2.1,0-3.7,1.6-3.7,3.7c0,1.7,1.1,3.1,2.6,3.6v0.6H18.8v1.9l8.1,1.3H29.9z"/>
	<path class="st0" d="M31.9,48.4c0.1,0.1,0.2,0.1,0.2,0.1c0.9,0.5,1.8,0.9,2.7,1.4c0.7-0.4,1.6-0.8,2.6-1.1c4.1-2.3,7.3-4,7.6-4.2
		c0.8-0.4,1.9-1.2,2.6-1.8c0.4-0.3,0.8-0.7,1.2-1.1c0.4-0.4,0.7-0.7,0.7-0.7l0.4-0.5l-0.6,0.1c0,0-0.5,0.1-1,0.1
		c-0.5,0.1-1.2,0.2-1.5,0.4c-0.9,0.3-2.1,0.8-2.9,1.2c-0.4,0.2-5.6,2.9-11.6,5.9C32.1,48.4,31.9,48.4,31.9,48.4"/>
	<path class="st0" d="M19.1,62.4c0.2,0,0.4-0.1,0.6-0.1c0.6-0.4,0.8-1.1,0.5-1.7c-0.2-0.3-1-1-1.4-0.6l-0.2-0.5l-0.1-0.1
		c0.7-0.4,2.6-1.5,5.1-2.8c-0.9-0.1-1.6-0.2-2.4-0.5c-0.8-0.2-1.5-0.5-2.1-0.9l-2,1c-0.1,0.1-0.2,0.1-0.2,0.1l-0.3-0.5
		c0.2-0.1,0.3-0.4,0.4-0.5c0.1-0.3,0.1-0.7-0.1-1c-0.4-0.6-1-0.8-1.7-0.5c-0.6,0.4-0.8,1.1-0.5,1.7l1,1.8l0,0
		c-0.3,0-0.6,0.1-0.8,0.4c0,0-0.1,0.1-0.1,0.1c-0.1,0-0.1,0-0.1,0c-0.1,0-0.2,0.1-0.3,0.1c-0.1,0.1-0.2,0.1-0.3,0.2
		c0,0.1-0.1,0.1-0.1,0.1c-0.1,0-0.1,0-0.1,0c-0.3,0-0.5,0.2-0.7,0.4c0,0.1-0.1,0.1-0.1,0.1c-0.1,0-0.1,0-0.1,0
		c-0.1,0-0.2,0.1-0.3,0.1c-0.1,0.1-0.2,0.1-0.3,0.2l-0.1,0.1c-0.2,0-0.4,0-0.5,0.1c-0.1,0.1-0.2,0.1-0.3,0.2c0,0.1-0.1,0.1-0.1,0.1
		c-0.2,0-0.4,0-0.5,0.1c-0.1,0.1-0.2,0.1-0.3,0.2c0,0.1-0.1,0.1-0.1,0.1c-0.2,0-0.4,0-0.5,0.1C9.9,60,9.8,60,9.7,60.2l-0.1,0.1
		c-0.1,0-0.1,0-0.2,0c-0.2,0.1-0.4,0.1-0.5,0.3c0,0-0.1,0-0.1,0H8.7c-1,0-1.6,0.9-1.6,1.8c0.1,1.6,2.3,2.2,3.1,0.8l0,0
		c0.1-0.1,0.2-0.1,0.2-0.2h0.1c0.2,0,0.4-0.1,0.5-0.1c0.1-0.1,0.2-0.1,0.2-0.2h0.1c0.2,0,0.4,0,0.5-0.2c0.1-0.1,0.2-0.1,0.2-0.2h0.1
		c0.2,0,0.4,0,0.5-0.2c0.1-0.1,0.2-0.1,0.2-0.2h0.1c0.2,0,0.4-0.1,0.5-0.1c0.1-0.1,0.2-0.1,0.2-0.2H14c0.2,0,0.4,0,0.5-0.2
		c0.1-0.1,0.2-0.1,0.2-0.2c0.2,0,0.4-0.1,0.6-0.1c0.1-0.1,0.2-0.2,0.2-0.2h0.1c0.2,0,0.4-0.1,0.5-0.1c0.1-0.1,0.2-0.1,0.2-0.2h0.1
		c0.1,0,0.4,0,0.4-0.1l0.4,0.8l0.5,0.9C18.1,62.1,18.6,62.4,19.1,62.4"/>
	<path class="st0" d="M13.3,41.8c0.4,0.4,0.9,0.8,1.2,1.1c0.7,0.5,1.8,1.3,2.6,1.8c0.2,0.1,2.9,1.6,6.4,3.5c1.7,0.3,3.2,0.8,4.5,1.4
		c0.1,0.1,0.3,0.1,0.4,0.2c0.1,0.1,0.2,0.1,0.4,0.2l0,0c0.4,0.2,0.8,0.5,1.1,0.7c0.3,0.2,0.5,0.5,0.7,0.7c0.2-0.1,0.4-0.1,0.6-0.1
		c0.3,0,0.6,0.1,0.8,0.1l0,0c0.4-0.2,1-0.7,1.9-1.1c-0.6-0.3-1.2-0.7-1.9-1c-0.4-0.2-0.7-0.4-1.1-0.5c-0.1-0.1-0.3-0.1-0.4-0.2
		c-0.1-0.1-0.3-0.1-0.4-0.2c-0.1-0.1-0.2-0.1-0.2-0.1c-5.9-3.1-11.2-5.7-11.6-6c-0.8-0.4-2-0.9-2.9-1.2c-0.4-0.1-1-0.3-1.5-0.4
		c-0.5-0.1-1-0.1-1-0.1l-0.6-0.1l0.4,0.5C12.6,41.1,12.9,41.5,13.3,41.8"/>
	<path class="st0" d="M53.3,60.8L53.3,60.8c-0.1,0-0.1,0-0.2,0c-0.1-0.1-0.2-0.1-0.2-0.2c-0.1-0.1-0.3-0.1-0.5-0.1
		c0-0.1-0.1-0.1-0.1-0.1c-0.1-0.3-0.5-0.4-0.8-0.4L51.5,60c-0.1-0.3-0.5-0.4-0.8-0.4c0-0.1-0.1-0.1-0.1-0.1
		c-0.1-0.2-0.5-0.4-0.8-0.4c0-0.1-0.1-0.1-0.1-0.1c-0.1-0.2-0.5-0.4-0.8-0.4l-0.1-0.1c-0.1-0.2-0.5-0.4-0.8-0.4
		c0-0.1-0.1-0.1-0.1-0.1c-0.1-0.2-0.5-0.4-0.7-0.4c0-0.1-0.1-0.1-0.1-0.1c-0.1-0.3-0.5-0.4-0.8-0.4l0,0l1-1.8c0.2-0.3,0.2-0.6,0.1-1
		c-0.1-0.3-0.3-0.5-0.6-0.7c-0.5-0.4-1.5,0-1.7,0.5c-0.2,0.3-0.2,0.6-0.1,1c0.1,0.2,0.2,0.4,0.4,0.5l-0.3,0.5
		c-0.1-0.1-0.2-0.1-0.2-0.1L42.3,55c-0.6,0.4-1.3,0.8-2.4,1.1c0,0.5,0.1,0.8-0.3,1.3c2,1.1,3.5,1.9,4,2.2l-0.1,0.2l-0.2,0.4
		c-0.6,0-1.1,0-1.4,0.6c-0.2,0.3-0.2,0.6-0.1,1c0.1,0.3,0.3,0.5,0.6,0.7c0.5,0.4,1.5,0,1.7-0.5l0.4-0.9l0.4-0.8l0.1,0.1
		c0.1,0.1,0.2,0.1,0.4,0.1h0.1c0.1,0.1,0.3,0.3,0.4,0.3c0.1,0.1,0.2,0.1,0.4,0.1h0.1c0.1,0.1,0.2,0.2,0.2,0.2c0.1,0,0.1,0.1,0.2,0.1
		c0.1,0.1,0.3,0.1,0.4,0.1c0,0,0,0,0.1,0c0.1,0.1,0.3,0.3,0.4,0.3c0.1,0.1,0.3,0.1,0.4,0.1H48c0.1,0.1,0.3,0.3,0.4,0.3
		c0.1,0.1,0.3,0.1,0.4,0.1h0.1c0.1,0.1,0.1,0.2,0.2,0.2c0.1,0.1,0.1,0.1,0.2,0.1c0.1,0.1,0.3,0.1,0.4,0.1h0.1
		c0.1,0.1,0.1,0.2,0.2,0.2c0.1,0.1,0.1,0.1,0.2,0.1c0.1,0.1,0.3,0.1,0.4,0.1h0.1c0.1,0.1,0.1,0.2,0.2,0.2c0.1,0.1,0.1,0.1,0.2,0.1
		c0.1,0.1,0.3,0.1,0.4,0.1h0.1c0.1,0.1,0.2,0.2,0.2,0.2l0,0c0.3,0.4,0.8,0.7,1.3,0.8H53c0.9,0,1.6-0.7,1.6-1.6
		c0-0.4-0.1-0.9-0.4-1.2C54.2,61,53.8,60.8,53.3,60.8"/>
	<path class="st0" d="M19.1,54.2c0.9,0.4,1.7,0.9,2.7,1.2c1.1,0.3,2.2,0.4,3.3,0.4c0.4,0,0.9,0,1.3,0c0.2,0,0.6-0.1,0.7,0
		c0.1,0.1,0.1,0.5,0.1,0.7c0.1,0.3,0.2,0.6,0.2,0.8c0,0.3-0.1,0.3-0.3,0.6c-0.3,0.4-0.7,0.9-1,1.3s-0.7,0.9-1,1.3
		c-0.1,0.1-0.3,0.3-0.3,0.4c0,0.2,0.3,0.4,0.4,0.5c0.4,0.3,0.8,0.6,1.2,0.8c1.6,0.8,3.7,1,5.5,0.8c1.5-0.1,3.1-0.4,4.3-1.3
		c0.3-0.2,0.8-0.6,0.7-0.9c-0.1-0.1-0.4-0.3-0.5-0.4c-0.2-0.2-0.5-0.4-0.7-0.6c-0.5-0.4-1-0.9-1.5-1.3c-0.2-0.2-0.5-0.3-0.5-0.6
		c0-0.2,0.2-0.6,0.3-0.8c0.1-0.2,0.2-0.4,0.2-0.6c-0.6-0.1-1.2,0.2-1.8,0c0.3,0,0.8-0.4,1-0.5c0.3-0.1,0.6-0.2,0.9-0.1
		c0.7,0.1,1.2,0.5,1.9,0.5c0.5,0,2.1-0.4,2.1,0.5c0.3-0.3,0.7-0.6,0.5-1c-0.1-0.3-0.5-0.7-0.8-0.7c0.3-0.8-2.1-1.1-2.6-1.2
		c-0.7-0.2-1.3-0.5-2-0.8c-0.2-0.1-1.8-0.6-1.8-0.8c-0.3-0.1-0.5-0.2-0.8-0.2c-0.3,0-0.8,0.3-1,0.2c-0.1,0-0.2-0.3-0.3-0.4
		c-0.2-0.2-0.3-0.4-0.5-0.5c-0.7-0.6-1.6-1-2.4-1.3c-2-0.9-4.4-1.3-6.6-1.5c-4-0.3-8.2-0.3-12.2,0.8c-0.6,0.2-1.3,0.4-1.9,0.7
		c2,0.3,4,0.7,6,1.2c1.4,0.3,2.7,0.7,3.9,1.3C17.3,53.1,18.1,53.7,19.1,54.2"/>
	<path class="st0" d="M42.9,48.4c-1.8,0.1-3.6,0.6-5.2,1.2c-0.7,0.2-1.4,0.5-2,0.9c-0.1,0.1-0.3,0.1-0.4,0.2s-0.3,0.1-0.4,0.2
		c-1.1,0.6-2,1.1-2.3,1.3l0.2,0.1c0,0,0,0,0.1,0c0.3,0.1,2.4,0.8,3.2,1c0.1,0,0.2,0.1,0.4,0.1c1.3,0.2,2.3,0.5,2.7,1.2
		c0.1,0.1,0.1,0.1,0.1,0.2c0.1,0.1,0.3,0.2,0.4,0.4c0.9-0.2,1.5-0.5,2-0.8c0.1-0.1,0.2-0.2,0.4-0.2c0.1-0.1,0.2-0.2,0.4-0.2
		c0.7-0.5,1.4-1.2,2.7-1.7c4-1.6,10.6-2.4,10.6-2.4s-5.9-1.3-11.1-1.3C43.9,48.3,43.4,48.3,42.9,48.4"/>
	<path class="st0" d="M32.3,2.4c0,0.2-0.1,0.4-0.2,0.6c0.5,0.2,1,0.5,1.3,0.9v-3c-0.4,0.3-0.9,0.7-1.3,0.9C32.3,2,32.3,2.2,32.3,2.4
		"/>
	<path class="st0" d="M31,1.2c0.2,0,0.4,0.1,0.6,0.2c0.2-0.5,0.6-1,0.9-1.4h-3c0.3,0.4,0.7,0.9,0.9,1.3C30.6,1.3,30.8,1.2,31,1.2"/>
	<path class="st0" d="M29.8,2.4c0-0.2,0.1-0.4,0.2-0.6c-0.5-0.2-1-0.5-1.3-0.9v3C29,3.6,29.5,3.3,30,3.1C29.9,2.9,29.8,2.7,29.8,2.4
		"/>
	<path class="st0" d="M32.6,4.9c-0.3-0.4-0.7-0.9-0.9-1.3c-0.2,0.1-0.4,0.2-0.6,0.2c-0.2,0-0.4-0.1-0.6-0.2c-0.2,0.5-0.5,1-0.9,1.3
		H32.6z"/>
	<path class="st0" d="M17.8,16.8c-0.5-1.5-2.4-5,0.4-7.5c0.9-0.8,2.3-1.3,3.4-1.3c0.8,0,1.9,0.2,2.9,0.6c1.8,0.6,3,1,5.1,1v1
		c-2.3,0-3.5-0.4-5.4-1C23.3,9.3,22.4,9,21.7,9c-1.1,0-2.1,0.4-2.8,1c-1.8,1.5-1.2,3.6-0.4,5.7c0.1,0.2,0.2,0.5,0.2,0.7L17.8,16.8z"
		/>
	<path class="st0" d="M28,20c0.5-0.4,1.4-1,2-1.2c-0.1-0.1-0.1-0.2-0.2-0.4c-0.1-0.4,0-0.7,0.2-0.9c-0.5-0.2-1.5-0.9-2-1.3V20z"/>
	<path class="st0" d="M34.1,20v-3.8c-0.5,0.4-1.4,1-2,1.3c0.1,0.1,0.1,0.2,0.2,0.4c0.1,0.3,0,0.7-0.2,0.9C32.7,19,33.7,19.5,34.1,20
		"/>
	<path class="st0" d="M30.4,17c0.1-0.1,0.2-0.1,0.4-0.2c0.1,0,0.2,0,0.2,0c0.2,0,0.5,0.1,0.7,0.2c0.2-0.5,0.8-1.5,1.2-2h-3.8
		C29.6,15.5,30.2,16.4,30.4,17"/>
	<path class="st0" d="M18.1,19c0.1,0,0.2,0,0.2,0c0.2,0,0.3,0.1,0.5,0.1c0.2-0.7,0.7-2,1-2.6l-2.4,0.9L18.1,19z"/>
	<path class="st0" d="M21.4,21.5l-0.8-3.7c-0.2,0.5-0.9,1.3-1.4,1.6c0.1,0.2,0.2,0.4,0.3,0.6c0.1,0.2,0.1,0.5-0.1,0.7
		C20.1,20.8,21.1,21.2,21.4,21.5"/>
	<path class="st0" d="M44.2,16.8c0.5-1.5,2.4-5-0.4-7.5c-0.9-0.8-2.3-1.3-3.4-1.3c-0.8,0-1.9,0.2-2.9,0.6c-1.8,0.6-3,1-5.1,1v1
		c2.3,0,3.5-0.4,5.4-1C38.7,9.3,39.7,9,40.4,9c0.9,0,2,0.4,2.7,1c1.8,1.5,1.2,3.6,0.4,5.7c-0.1,0.2-0.2,0.5-0.2,0.7L44.2,16.8z"/>
	<path class="st0" d="M44,19c-0.1,0-0.2,0-0.2,0c-0.2,0-0.3,0.1-0.5,0.1c-0.2-0.7-0.7-2-1-2.6l2.4,0.9L44,19z"/>
	<path class="st0" d="M40.6,21.5l0.8-3.7c0.2,0.5,0.9,1.3,1.4,1.6c-0.1,0.2-0.2,0.4-0.3,0.6c-0.1,0.2-0.1,0.5,0.1,0.7
		C42,20.8,41,21.2,40.6,21.5"/>
	<path class="st0" d="M42.3,27.6c0.3-1.7,0.7-3.5,1-5.2c0-0.2,0.2-0.6,0.2-0.8c0,0-0.5-0.4-0.6-0.4c-0.2,0-0.2,0.1-0.4,0.2
		c-0.2,0.2-0.3,0.3-0.5,0.4c-0.6,0.5-1.3,0.9-2,0.9c-0.2,0-0.4,0-0.6-0.1c-0.3-0.1-0.2-0.1-0.2-0.3c0-0.4,0.2-0.6-0.2-0.9
		c0,0.2-0.1,0.4-0.3,0.4c-0.4,0-0.4-0.5-0.4-0.8c0.6,0.2,0.7-0.6,0.1-0.6c0-0.4,0.5-0.8,0.8-0.6c0.4,0.3,0,0.9,0.5,0.8
		c1.1-0.3,0.7-2.3-0.4-2.3c-0.6,0-1,0.6-1.2,1.1c-0.1,0.2-0.2,1-0.4,1c0-1.3,1.3-2.2,1-3.6c-0.2-0.7-0.5-1.3-0.7-2
		c-0.4,0.6-1.1,1.2-1.3,1.9c-0.2,0.7,0.2,1.6,0.3,2.3c0,0.3,0,0.5,0,0.8c0,0.3,0,0.4-0.1,0.1c-0.1-0.5,0-1-0.1-1.5
		c-0.2-0.5-0.6-1.1-1.2-1.1c-1.1,0.1-1.3,2.3-0.1,2.3c0-1.1,1-0.4,1,0.4c-0.1,0-0.2,0-0.2-0.1c-0.5,0-0.3,0.6,0.1,0.7
		c0,0.3-0.2,0.7-0.5,0.6c-0.3-0.1-0.2-0.4-0.2-0.6c-0.5,0-0.4,0.6-0.2,0.9c-1.7,0.4-3.3-0.8-3.9-2.3c-0.1,0.1-0.5,0.1-0.7,0
		c-0.3-0.1-0.3-0.1-0.4,0.2c-0.2,0.4-0.5,0.8-0.8,1.1c-0.4,0.4-0.8,0.7-1.3,0.9c-0.6,0.2-1.1,0.1-1.7,0.1c0.2-0.3,0.2-0.9-0.2-0.9
		l0,0c0,0.2,0,0.4-0.1,0.5c-0.2,0.2-0.5,0-0.5-0.3c-0.1-0.3,0-0.1,0.1-0.3c0.1-0.2,0.2-0.1,0.2-0.4c0-0.1-0.1-0.2-0.2-0.2
		c-0.1,0-0.2,0-0.3,0.1c0-0.7,1-1.5,1-0.4c0.4,0,0.7-0.6,0.7-0.9c0.1-0.6-0.3-1.3-0.9-1.3c-0.7-0.1-1,0.6-1.2,1.1
		C25.1,19,25.1,19.6,25,20c-0.1,0.3-0.2,0-0.2-0.2c0-0.3,0-0.7,0.1-1c0.1-0.7,0.4-1.4,0.2-2.1c-0.2-0.7-0.8-1.3-1.2-1.9
		c-0.2,0.6-0.5,1.3-0.6,1.9c-0.1,0.7,0,1.2,0.3,1.8c0.3,0.5,0.7,1.2,0.7,1.8c-0.2,0-0.3-0.8-0.4-1c-0.2-0.5-0.6-1.1-1.2-1.1
		c-1.1,0-1.5,2-0.4,2.3c0.5,0.1,0.1-0.5,0.4-0.7c0.4-0.3,0.9,0.2,0.9,0.6c-0.6,0.1-0.5,0.8,0.1,0.6c0,0.3,0,0.7-0.4,0.8
		c-0.3,0-0.4-0.2-0.4-0.4c-0.4,0-0.2,0.9-0.1,1c-0.8,0.4-1.5,0.2-2.2-0.2c-0.4-0.2-0.7-0.5-1-0.8c-0.1-0.1-0.3-0.4-0.4-0.4
		c-0.2,0-0.4,0.4-0.7,0.4c0.4,2,0.8,4,1.2,6C27,24.7,35,24.7,42.3,27.6"/>
</g>
</svg>
