<?xml version="1.0" encoding="utf-8"?>
<!-- Generator: Adobe Illustrator 22.0.1, SVG Export Plug-In . SVG Version: 6.00 Build 0)  -->
<svg version="1.1" id="Layer_1" xmlns="http://www.w3.org/2000/svg" xmlns:xlink="http://www.w3.org/1999/xlink" x="0px" y="0px"
	 width="58px" height="86.9px" viewBox="0 0 58 86.9" style="enable-background:new 0 0 58 86.9;" xml:space="preserve">
<style type="text/css">
	.st0{fill:#FFFFFF;}
</style>
<g>
	<path class="st0" d="M40.1,20.5c0.6-1,1.3-2,2.1-2.8c1.3-1.3,2.9-2,4-2c1.1,0,1.5,0.4,1.7,0.4c0.2,0,0.3-0.3,0.6-0.3
		c0.1,0,0.1-0.1,0.2-0.1c0.1,0,0.4,0.2,0.4,0.3c0,0.1,0,0.1-0.1,0.2c-0.1,0.3-0.3,0.4-0.3,0.6c0,0.2,0.6,0.5,0.6,1.9
		c0,1.3-0.8,3.3-2,4.7c-0.7,0.9-1.3,1.2-1.6,1.5c-0.1,0.1-0.2,0.4-0.4,0.5c-0.2,0.2-0.3,0-0.3,0.1c-0.1,0.1-0.2,0.2-0.4,0.1
		c-0.1,0,0,0.1-0.1,0.1c-0.1,0.1-0.1,0-0.3,0.1c-0.1,0-0.1,0.1-0.4,0.2c0.1,0.1,0.7,0,0.9,0c0.1,0,0.6-0.1,0.7-0.1
		c0.1,0,0.1,0,0.3,0c0.1,0,0.1,0,0.2,0c0.1,0,0.3-0.1,0.5,0c0.1-0.1,0.3,0,0.4,0c0.1,0,0.1,0.1,0.2,0.1c0.1,0,0.3,0,0.4,0
		c0,0,0.1,0,0.2,0.1c0.3,0,0.5,0.1,0.6,0.2c0.1,0.1,0.2,0,0.3,0.1c0.1,0.1,0.3,0.1,0.3,0.2c0,0.1,0,0.1,0,0.1c0,0,0.2,0,0.2,0.1
		c0,0,0.1,0.1,0.1,0.1c0,0.1,0.2,0.1,0.1,0.3c0.2,0,0.4,0.3,0.4,0.4v0.1c0,0,0.1,0.1,0.1,0.1c0.1,0,0.2,0.3,0.2,0.5
		c0,0.1,0,0.1,0,0.2c0,1.2-2.3,2.2-5.5,2.2c-1.2,0-1.7-0.5-1.7-0.7c0-0.1,0-0.1,0-0.2c0-0.1-0.2-0.2-0.1-0.4c0,0-0.1-0.1-0.1-0.2
		c0-0.3,0.1-0.3,0.1-0.4c0-0.1,0-0.1,0-0.2c0-0.1,0.1-0.2,0.1-0.4c0-0.2,0.1,0,0.1-0.2c0.1-0.1,0.1,0,0.1-0.2s0-0.2,0.2-0.3
		c0,0,0-0.3,0.2-0.3c0.1,0,0-0.1,0.1-0.2c0-0.1,0.2,0,0.2-0.1c0-0.1,0.2-0.2,0.4-0.3c-0.8,0-1.2,0.2-1.6,0.2c-0.2,0-0.3-0.1-1.3,0.2
		c-1.3,0.3-3.6,1.5-4.7,2.2c-1.4,0.9-5.1,3.5-6.3,5.7c-0.2,0.3-0.6,2.5-1.1,4.4c-0.6,2.2-1.3,4.3-1.3,4.7c0.3-0.4,0.7-0.8,1-0.8
		c0.6,0,0.5,0.8,0.6,0.8c0.1,0.1,0.1-0.2,0.1-0.4c0-0.2,0-0.7,0.3-1.1c0.3-0.5,0.9-1.1,1.7-1.7c0.7-0.6,1.2-2,1.6-3.1
		c0.4-1.1,1.1-2.3,2-2.3c0.7,0,1.1,0.6,1.2,0.8c0.2,0.3,0.4,0.9,0.6,0.9c0.6-0.1,1.9-3.1,3.1-4.3c0.5-0.6,1.1-1.2,2.2-1.2
		c1.8,0,1.5,2.5,2.3,2.5c0.5,0,0.8-0.7,1-1c0.5-0.7,1.9-1.8,2.8-1.8c0.8,0,1,0.7,1,1.3c0,0.5-0.1,0.9,0.4,0.9c0.3,0,1.2-1.6,2.3-1.6
		c0.4,0,0.9,0.3,0.9,0.8c0,0.5-0.1,0.8-0.1,1c0,0.2,0.1,0.3,0.3,0.3c0.2,0,0.5-0.1,0.7-0.1c0.5,0,0.9,0.3,0.9,0.9
		c0,0.7-0.4,1.3-0.9,1.8c-0.2,0.2-0.3,0.4-0.1,0.7c0.3,0.4,0.7,0.5,0.7,0.9c0,0.9-0.6,1.2-1.1,1.3c-0.5,0.1-1.5,0.2-1.5,0.8
		c0,0.6,0.8,1,0.8,2c0,0.4-0.2,0.8-0.8,1.1c-0.7,0.4-2,0.4-2.2,0.4c-0.6,0-1.4-0.1-1.9-0.1c-0.5,0-0.9,0-0.9,0.3
		c0,0.5,1.1,0.9,1.1,2.1c0,1.2-1.8,1.4-2.8,1.4c-1.2,0-2.2-0.2-3.2-0.6c-0.5-0.2-1.6-0.7-2.4-0.7c-0.5,0-0.7,0.2-0.7,0.4
		c0,0.3,0.8,1,0.8,1.8c0,0.7-0.6,1-1.2,1c-2,0-3.4-2.4-6.3-2.4c-0.7,0-1,0.3-1.9,0.3c-1.1,0-1.5-0.4-1.4-1c-0.7,0.3-1.6,1-1.6,2
		c0,0.8,0.1,1.2,0.4,1.5c0.3,0.3,0.6,0.4,0.7,0.7c0.2,0.2-0.1,0.7,0,1.7c0.1,0.7,0.3,1.7,0.4,2c0.1,0.2-0.7,0.3-0.9,0.3
		c-0.4,0-1.6,0-1.7-0.3c-0.1-1-0.9-4.5-1.2-5.3c-0.4-1.1-0.6-1-1.2-1.5c-0.6-0.5-3.3-2.3-4.7-2.3c-0.4,0-0.2-0.1-0.5-0.1
		c-0.2,0,0,0-0.2,0c-0.1,0-0.1,0.1-0.3,0.1c-0.1,0,0,0.3-0.1,0.3c-0.1,0-0.1,0.1-0.1,0.3c0,0.1-0.1,0.2-0.2,0.3c0,0.1-0.2,0-0.2,0.1
		c0,0.1,0.1,0.1,0,0.2c-0.1,0.2-0.1,0.2-0.2,0.2c-0.1,0-0.1,0-0.1,0.1c0,0.2,0.1,0.2,0,0.3c-0.1,0.1-0.3,0.1-0.3,0.3
		c0,0.1,0,0.1-0.1,0.2c-0.1,0-0.2,0.1-0.2,0.1c0,0.1,0,0-0.1,0.1c-0.1,0.1-0.1,0.1-0.2,0.1c-0.3,0-0.2,0.1-0.6,0.1
		c-1.3,0-3-2.3-3-4.2c0-1.3,0.2-1.3,0.2-1.5c0-0.3,0.2-0.5,0.4-0.5c0.2,0,0.1-0.1,0.3-0.1c0-0.1,0.1-0.1,0.2-0.2
		c0.1-0.1,0.2-0.1,0.4,0c0.1,0,0.1-0.1,0.2-0.1c0.1,0,0.2,0.1,0.2,0.1c0.1,0,0.1,0,0.2,0c0.1,0,0.2,0,0.3,0.1c0.1,0,0.1-0.1,0.2,0
		c0.1,0,0.2,0.1,0.2,0.1c0.1,0,0.2,0,0.3,0.1c0.1,0,0.1,0.1,0.1,0.2c0.1,0,0.1-0.1,0.2,0c0.2,0.1,0.2,0.1,0.3,0.3
		c0.1,0.1,0.1,0,0.2,0.1c0.2,0.1,0.1,0.2,0.2,0.3c0.1,0,0.1,0,0.2,0.1c0.1,0.1,0,0.1,0.1,0.2c0,0,0.1,0,0.1,0.1
		c0,0.1,0.2,0.2,0.3,0.3c0.1,0.1,0.3,0.3,0.3,0.3c0.1,0,0.1-0.1-0.1-0.2c-0.2-0.2-0.2-0.1-0.3-0.4c0-0.1-0.1-0.1-0.1-0.2
		c0-0.1-0.2-0.3-0.2-0.4c0-0.1,0-0.1-0.1-0.2c-0.1,0-0.1-0.1-0.1-0.1c-0.1-0.2,0-0.2,0-0.3c0-0.1-0.1,0-0.1-0.1c0-0.1,0-0.2,0-0.3
		c0-0.1-0.1,0-0.1-0.2c0-0.1,0-0.1,0-0.2c0-0.1-0.1-0.1-0.1-0.2c0-0.1,0-0.1,0-0.2c0-0.1,0,0,0-0.1c0-0.1,0.1-0.1,0.1-0.3
		c0-0.1,0-0.1,0.1-0.2c0-0.1-0.1-0.1,0-0.2c0.2-0.3,0.5-0.8,2.2-0.8c2,0,3.9,0.5,4.7,1.5c0.1,0.1,0.1,0.1,0.2,0.3
		C24,41,24,41,24,41.3c0,0.1-0.1,0.2-0.1,0.4c0,0.2,0,0.5-0.1,0.5c-0.1,0,0,0.4-0.2,0.4c-0.1,0,0,0.1-0.2,0.1c-0.1,0,0,0.4-0.2,0.5
		c-0.1,0-0.2,0-0.2,0.2c0,0.1-0.1,0.3-0.2,0.3c-0.2,0-0.1,0-0.2,0.1c-0.3,0.2-0.1,0.3-0.2,0.4c-0.2,0.2-0.2-0.2-0.4-0.1
		c-0.1,0.1-0.1,0.1-0.1,0.2c0,0.2,0,0.1-0.2,0.1c-0.2-0.1-0.3,0.1-0.2,0.2c0.1,0.1,0,0.1-0.1,0c0,0-0.1,0-0.2,0
		c-0.1,0-0.2,0-0.2,0.1c0,0.2,0,0.2,0,0.2c-0.1,0,0-0.2-0.1-0.2c-0.1,0-0.2,0-0.2,0c0,0.1,1.6,0.9,1.9,1c0.9,0.5,1.6,1,2,1
		c0.6,0,2.2-4.1,2.1-5.9c0-0.6-0.1-0.7,0-0.8c0-0.2-0.4-0.2-0.4-1c0-0.2,0-0.6,0.2-0.7c0.1-0.1,0.3-0.2,0.4-0.2
		c0.1,0,0.5,0.3,0.5,0.4c0.2-0.2,0.6-2.2,0.6-2.9c0-0.2-0.1-0.5-0.2-0.6c-0.1-0.1-0.8-0.2-1.4-1c0-0.1-0.1-0.1-0.2-0.1
		c0,0,0,0.1,0,0.2c0,0.2-0.3,0.7-0.9,0.7c-0.9,0-1.1-0.4-2.1-0.4c-0.5,0-0.8,0.2-1.1,0.4c-0.5,0.4-1.3,0.8-1.7,0.8
		c-0.9,0-0.5-1.3-1-1.3c-0.4,0-0.4,0.7-0.6,1.1c-0.3,0.7-1.9,2.7-2.8,2.7c-0.9,0-0.6-1.6-1.1-1.6c-0.3,0-0.5,0.5-0.6,0.8
		c-0.4,1.3-0.9,2.3-1.5,2.9c-0.5,0.6-1.3,1.7-2.1,1.7c-0.8,0-0.6-1.3-1-1.6c-0.2-0.1-0.5-0.3-0.7,0.1C8.6,41.4,8.1,43,7,43
		C6.2,43,6.1,42.4,6,42c0-0.4,0-0.5-0.1-0.7c-0.1-0.2-0.1-0.4-0.4-0.4c-0.2,0-0.3,0.1-0.5,0.5c-0.2,0.4-0.7,1.3-1.7,1.3
		c-0.9,0-1.2-0.4-1.2-0.6c0-0.4,0.1-0.9-0.6-0.7c-0.8,0.2-1.2-1-1.2-1.4c0-0.8,0.6-1.4,0.6-1.7c0-0.4-0.8-0.6-0.8-1.4
		c0-2,2.1-1.5,2.1-2.4c0-0.8-1.5-1.2-1.5-2.1c0-1.8,2.3-2.1,2.8-2.1c0.4,0,0.9,0.1,1.2,0.1c0.2,0,0.9-0.1,0.9-0.4
		c0-0.3-0.3-0.7-0.5-1c-0.2-0.3-0.6-0.6-0.6-1c0-1.2,1.3-1.7,2.2-1.7c1.8,0,3.1,0.4,3.5,0.6c0.5,0.2,0.9,0.6,1.4,0.6
		c0.2,0,0.4-0.1,0.4-0.3c0-0.4-0.7-0.9-0.7-1.7c0-0.6,0.6-1.3,1.5-1.3c1,0,2.3,0.6,3.1,1c0.7,0.4,2,1.6,2.5,1.6
		c0.6,0-0.1-1.9,1.3-1.9c1.2,0,2.7,1.3,3.7,3.1c0.2,0.3,0.7,1.1,1.1,1.3c0.7,0.4,1.6,1.7,1.7,2.7c0,0.3,0.2,0.5,0.3,0.5
		c-0.1-0.3-0.1-0.9,0.3-1c0.4-0.1,1,0.4,1.2,0.6c0.1-0.2-0.2-1.1-0.3-1.3c-0.1-0.2-0.6-2.1-0.8-2.4c-0.1-0.3-0.8-1.8-1-2.2
		c-0.3-0.7-1-0.9-1.4-1.1c-0.5-0.3-1-0.9-1.2-1.1c-0.1-0.1-0.1-0.1-0.2-0.1c-0.1,0-0.2,0.5-0.9,0.5c-0.7,0-1.5-1.1-2.4-1.5
		c-1.2-0.7-2.8-0.9-3.4-0.9c-0.4-0.1-1.8-0.4-2.5-0.8c-0.4-0.3-0.6-0.7-0.6-1c0-0.7,0.8-1.1,1-1.2c0.2-0.1,0.4-0.2,0.4-0.3
		c0-0.2-0.4-0.4-0.6-0.5c-0.3-0.2-0.9-0.3-1.6-0.3c-0.7,0-1.8-0.2-2.5-0.5c-0.6-0.3-2-1.3-2-2.1c0-0.6,0.3-1,0.8-1.2
		c0.5-0.2,1.3-0.5,1.3-0.9c0-0.3-0.3-0.3-0.5-0.5c-0.2-0.2-1.4-0.4-1.8-0.5c-0.6-0.1-3.1-0.6-3.1-2.1C4.9,8.5,7,8.4,7,8.1
		c0-0.3-0.6-0.5-1.3-0.9C4.9,6.7,4,6,4,5.3C4,3.9,6,4.3,6,3.8c0-0.1-0.1-0.3-0.2-0.4L5.2,2.9C5,2.7,4.8,2.2,4.8,2.1
		c0-0.6,0.6-0.5,0.6-0.8c0-0.2-0.1-0.2-0.1-0.4c0-0.4,0.4-0.8,1.2-0.6c0.3,0.1,0.4,0.1,0.7,0C7.4,0.3,7.5,0,8,0c0.7,0,1,0.7,1.1,0.9
		c0.1,0.2,0.2,0.3,0.3,0.3c0.2,0,0.2-0.5,0.4-0.8C10.1,0.3,10.5,0,10.8,0c1.1,0,2,0.9,2.4,1.9c0.1,0.2,0.2,0.5,0.4,0.5
		c0.4,0,0.8-1.8,2.1-1.8c0.8,0,1.2,0.3,1.5,0.5c0.5,0.4,0.6,1.4,0.8,2C18.1,3.7,18,5.3,18,5.7c0,0.3,0.1,1.3,0.4,1.3
		c0.5,0,1-1.3,2.2-1.3c0.5,0,1.4,0.7,1.4,2.5c0,1.9-0.8,2.5-0.8,3.8c0,0.3,0,0.5,0.3,0.5c0.2,0,0.4-0.4,0.5-0.6
		c0.2-0.2,0.6-0.4,1.2-0.4c0.7,0,1,0.6,1,1.4c0,0.6-0.3,2.9-0.3,4c0,1.2,0.4,1.8,0.4,3.2c0,1.1-0.5,1.8-0.5,2.2
		c0,0.2,0.3,0.6,0.5,0.5c-0.2-0.3,0-1,0.2-1.1c0.1-0.1,0.4,0,0.5,0c-0.1-0.9,0.2-1.8,0.5-1.8c0.5-0.1,1.3,0.8,1.4,0.9
		c0.1-0.1,0.2-0.2,0.4-0.2c0.3,0,0.5,0.2,0.8,0.5C28,21,28,20.9,28,20.7c0-0.2-0.4-1.4-0.4-2.3c0-1.2,0.5-2.2,0.5-3.2
		c0-1.7-0.5-2.8-0.5-3.6c0-1.7,0.5-2.6,1.3-2.6c0.8,0,1.2,0.8,1.7,0.8c0.4,0,0.6-0.7,0.6-1.1c0.3-2,0.4-6.2,2.6-7.2
		c0.5-0.2,1-0.1,1.4,0.3c0.8,0.8,0.9,1.7,1.5,1.7c0.4,0,0.9-1,1.1-1.4c0.3-0.7,1.4-1.8,2.4-1.8c1.8,0,1.2,2,2.1,2
		c0.9,0,1.7-1.7,3.2-1.7c0.4,0,0.9,0.5,0.9,1c0,0.4,0,0.6,0,0.8c0,0.2,0,0.4,0.2,0.4c0.2,0,0.8-0.6,1.2-0.6c0.8,0,0.6,0.8,1,1
		c0.2,0.1,1,0.2,1,1c0,1-1,1-1,1.5c0,0.3,0.8,0.6,0.8,1.1c0,0.6-0.6,1.3-1.1,1.3c-0.4,0-1.7,0-1.7,0.6c0,0.1,0.3,0.3,0.6,0.5
		c0.3,0.3,0.7,0.6,0.7,1.2c0,0.7-0.8,1.4-3.3,1.4c-0.4,0-0.5,0-0.9,0c-0.2,0-0.5,0-0.8,0.1c-0.4,0.1-0.9,0.3-0.9,0.5
		c0,0.7,1.4,0.7,1.4,1.6c0,0.7-0.5,1.1-1.1,1.4c-0.4,0.2-2,0.8-2.9,0.8c-1.9,0-2.1-0.2-2.6-0.2c-0.5,0-0.8,0.2-0.8,0.4
		c0,0.3,0.3,0.4,0.7,0.7c0.3,0.1,1.3,0.5,1.3,1.4c0,0.9-1.5,1.4-2.2,1.5c-1.7,0.3-2.7,0.8-3.8,1.9c-0.6,0.6-1.9,2.1-3.1,1.5
		c-0.5,0.8-1.3,1.6-1.4,2.2c-0.2,1.1,1.5,6.5,2.3,6.5c0.5,0,1.1-0.6,2.1-1.2c0.6-0.4,1.3-0.9,2.1-1.4c3.3-2.3,6.1-3.4,6.1-3.9
		c0-0.3-0.3-0.6-0.4-0.8c-0.1-0.2-0.2-0.2-0.3-0.4c-0.1-0.1-0.1-0.2-0.1-0.3c-0.1-0.1-0.1-0.2-0.2-0.4c0-0.1,0-0.2,0-0.3
		c-0.1,0-0.1-0.1-0.1-0.3c0-0.1,0-0.1,0-0.2c0-0.1-0.1,0-0.1-0.2c0-0.2,0.1-0.2,0.1-0.4c0,0-0.1-0.1-0.1-0.2c0-0.2,0.1-0.2,0.1-0.3
		c0-0.1-0.1-0.1-0.1-0.2c0-0.4,0.1-0.3,0.2-0.4c0-0.1,0-0.3,0.2-0.4c0.1-0.1,0.3-0.3,0.4-0.3C39.8,20.6,39.9,20.5,40.1,20.5"/>
	<polygon class="st0" points="3.9,86.7 3.9,76.5 0,76.5 0,75.3 10,75.3 10,76.5 6.1,76.5 6.1,86.7 	"/>
	<path class="st0" d="M20,85.2c-0.2,0.8-0.8,1.7-2.1,1.7c-1.5,0-2.3-1.2-2.3-2.7v-4.8l2.1-0.2v5.3c0,1,0.4,1.5,1.1,1.5
		C19.4,85.9,19.8,85.6,20,85.2"/>
	<path class="st0" d="M22.4,85.2c0,0.8,0.1,1.2,0.6,1.2c-0.3,0.2-0.8,0.3-1.2,0.3c-0.9,0-1.5-0.4-1.5-1.6v-5.9l2.1-0.2V85.2z"/>
	<path class="st0" d="M30,79.9c1-0.5,2.1-1.6,2.7-2.6h0.3v1.9h1.8v0.8h-1.8v4.7c0,0.7,0.4,1.3,1.3,1.3c0.4,0,0.8-0.2,1.1-0.6
		c-0.2,0.6-0.8,1.4-2.1,1.4c-1.5,0-2.4-1.2-2.4-2.7v-4.1H30V79.9z"/>
	<path class="st0" d="M11.6,80.8c0.3-1,1-1.8,2.1-1.8c0.2,0,0.5,0.1,0.7,0.1l-0.2,1.5c-1-0.7-2.2,0-2.4,1.2v4.9H9.7v-7.4l1.9-0.2
		L11.6,80.8z"/>
	<path class="st0" d="M26.3,86.2c-0.9,0-1.6-0.6-2-1.3l-0.2,1.4c0.6,0.3,1.4,0.7,2.3,0.7c1.8,0,2.9-1.1,2.9-2.3c0-1.4-1-2-1.9-2.5
		c-0.8-0.5-1.7-0.7-1.7-1.5c0-0.4,0.3-0.9,1.1-0.9c0.6,0,1.1,0.4,1.6,1l0.2-1.3c-0.4-0.2-1.1-0.5-1.9-0.5c-1.7,0-2.6,1.1-2.6,2.3
		c0,1.2,0.8,1.9,1.7,2.4c0.9,0.5,1.8,0.8,1.8,1.5C27.5,85.7,27,86.2,26.3,86.2"/>
	<polygon class="st0" points="55.9,72 55.9,60.5 58,60.3 58,72 	"/>
	<path class="st0" d="M20.2,65.1c1-0.5,2.1-1.6,2.7-2.6h0.3v1.9h1.8v0.8h-1.8V70c0,0.7,0.4,1.3,1.3,1.3c0.4,0,0.8-0.2,1.1-0.6
		c-0.2,0.6-0.8,1.4-2.1,1.4c-1.5,0-2.4-1.2-2.4-2.7v-4.1h-0.8V65.1z"/>
	<path class="st0" d="M26.9,61.2c0,0.5,0.4,0.8,0.8,0.8c0.5,0,0.8-0.4,0.8-0.8c0-0.5-0.4-0.8-0.8-0.8C27.3,60.3,26.9,60.7,26.9,61.2
		"/>
	<polygon class="st0" points="28.8,72 28.8,64.4 26.7,64.6 26.7,72 	"/>
	<path class="st0" d="M46.4,70.6c0,0.8,0.1,1.2,0.6,1.2c-0.3,0.2-0.8,0.3-1.2,0.3c-0.9,0-1.5-0.4-1.5-1.6v-4c0-0.8-0.5-1.3-1.1-1.3
		c-0.4,0-0.9,0.2-1.1,0.6c0.2-0.7,0.9-1.5,2.2-1.5c1.4,0,2.2,1,2.2,2.4V70.6z"/>
	<polygon class="st0" points="41.8,72 39.7,72 39.7,64.6 41.8,64.4 	"/>
	<path class="st0" d="M34.3,71.5c-1,0-1.7-1-1.7-3.2c0-2.2,0.6-3.2,1.7-3.2c1,0,1.7,1,1.7,3.2C35.9,70.5,35.3,71.5,34.3,71.5
		 M34.3,64.3c-2,0-3.9,1.5-3.9,3.9c0,2.4,1.9,3.9,3.9,3.9c2,0,3.9-1.5,3.9-3.9C38.1,65.9,36.2,64.3,34.3,64.3"/>
	<path class="st0" d="M53.9,70.6c0,0.8,0.1,1.2,0.6,1.2c-0.3,0.2-0.7,0.3-1.1,0.3c-0.8,0-1.4-0.4-1.4-1.6v-2.6
		c-1.4,0.7-1.9,1.3-1.9,2.3c0,1.2,1.2,1.4,1.7,0.7c-0.2,0.7-0.9,1.2-1.7,1.2c-1.1,0-2-0.7-2-1.8c0-1.8,2.2-2.3,3.9-3.1v-0.8
		c0-0.8-0.4-1.2-1.3-1.2c-0.5,0-1.2,0.2-1.7,0.3v-0.9c0.4-0.1,1.2-0.3,2-0.3c1.4,0,2.9,0.5,2.9,2.7V70.6z"/>
	<path class="st0" d="M18.9,70.6c0,0.8,0.1,1.2,0.6,1.2c-0.3,0.2-0.7,0.3-1.1,0.3c-0.8,0-1.4-0.4-1.4-1.6v-2.6
		c-1.4,0.7-1.9,1.3-1.9,2.3c0,1.2,1.2,1.4,1.7,0.7c-0.2,0.7-0.9,1.2-1.7,1.2c-1.1,0-2-0.7-2-1.8c0-1.8,2.2-2.3,3.9-3.1v-0.8
		c0-0.8-0.4-1.2-1.3-1.2c-0.5,0-1.2,0.2-1.7,0.3v-0.9c0.3-0.1,1.2-0.3,2-0.3c1.4,0,2.9,0.5,2.9,2.7V70.6z"/>
	<polygon class="st0" points="2.6,64.1 2.6,72 1.2,72 1.2,60.4 1.8,60.4 10.2,68.4 10.2,60.5 11.5,60.5 11.5,72.1 11,72.1 	"/>
</g>
</svg>
