<?xml version="1.0" encoding="utf-8"?>
<!-- Generator: Adobe Illustrator 22.0.1, SVG Export Plug-In . SVG Version: 6.00 Build 0)  -->
<svg version="1.1" id="Layer_1" xmlns="http://www.w3.org/2000/svg" xmlns:xlink="http://www.w3.org/1999/xlink" x="0px" y="0px"
	 width="65.3px" height="97.9px" viewBox="0 0 65.3 97.9" style="enable-background:new 0 0 65.3 97.9;" xml:space="preserve">
<g>
	<path d="M45.1,23.1c0.6-1.1,1.5-2.2,2.4-3.1c1.5-1.4,3.3-2.2,4.5-2.2c1.2,0,1.7,0.4,2,0.4c0.2,0,0.4-0.3,0.7-0.4
		c0.1,0,0.1-0.1,0.2-0.1c0.1,0,0.4,0.2,0.4,0.4c0,0.1,0,0.1-0.1,0.2c-0.1,0.3-0.3,0.5-0.3,0.7c0,0.2,0.6,0.6,0.6,2.1
		c0,1.5-0.9,3.7-2.3,5.3c-0.8,1-1.5,1.4-1.8,1.7c-0.2,0.2-0.2,0.5-0.4,0.6c-0.2,0.2-0.3,0-0.4,0.2C50.6,29,50.4,29,50.3,29
		c-0.1,0,0,0.1-0.2,0.1c-0.1,0.1-0.2,0-0.3,0.1c-0.2,0-0.1,0.1-0.5,0.2c0.1,0.1,0.8,0,1,0c0.2,0,0.6-0.1,0.8-0.1c0.2,0,0.2,0,0.3,0
		c0.2,0,0.1,0,0.2,0c0.1,0,0.4-0.1,0.6,0c0.1-0.1,0.4,0,0.5,0c0.1,0,0.1,0.1,0.2,0.1c0.1,0,0.3,0,0.5,0c0,0,0.1,0,0.2,0.1
		c0.3,0,0.6,0.2,0.7,0.2c0.1,0.2,0.2,0,0.3,0.1c0.1,0.1,0.3,0.1,0.3,0.3c0,0.1,0,0.1,0,0.2c0,0,0.2,0,0.3,0.1c0,0,0.1,0.1,0.1,0.1
		c0,0.1,0.2,0.1,0.2,0.3c0.2,0,0.5,0.3,0.5,0.5v0.2c0,0,0.1,0.1,0.2,0.1c0.1,0,0.2,0.4,0.2,0.5c0,0.1,0,0.1,0,0.2
		c0,1.4-2.6,2.5-6.2,2.5c-1.4,0-1.9-0.5-2-0.7c0-0.1,0-0.2,0-0.2c0-0.1-0.2-0.3-0.1-0.5c0,0-0.1-0.1-0.1-0.3c0-0.3,0.1-0.3,0.1-0.4
		c0-0.1,0-0.1,0-0.2c0-0.2,0.1-0.2,0.1-0.4c0-0.2,0.1,0,0.2-0.2c0.1-0.2,0.1,0,0.1-0.2c0-0.2,0.1-0.2,0.2-0.3c0,0,0.1-0.3,0.3-0.3
		c0.1,0,0-0.1,0.1-0.2c0-0.1,0.2,0,0.2-0.1c0-0.1,0.3-0.3,0.5-0.3c-0.9,0-1.4,0.2-1.8,0.2c-0.3,0-0.4-0.1-1.5,0.2
		c-1.4,0.3-4,1.6-5.3,2.4c-1.6,1-5.8,3.9-7.1,6.4c-0.2,0.4-0.7,2.8-1.3,4.9c-0.7,2.5-1.4,4.8-1.5,5.3c0.4-0.5,0.7-0.9,1.2-0.9
		c0.7,0,0.5,0.9,0.6,0.9c0.1,0.1,0.1-0.2,0.1-0.4c0-0.2,0-0.7,0.4-1.3c0.4-0.6,1.1-1.2,1.9-1.9c0.8-0.6,1.4-2.3,1.8-3.5
		c0.4-1.2,1.2-2.6,2.3-2.6c0.8,0,1.2,0.7,1.4,0.9c0.2,0.3,0.4,1.1,0.7,1c0.6-0.1,2.1-3.5,3.4-4.8c0.6-0.6,1.3-1.4,2.4-1.4
		c2,0,1.7,2.8,2.5,2.8c0.5,0,0.9-0.8,1.2-1.1c0.5-0.8,2.2-2.1,3.1-2.1c0.9,0,1.1,0.8,1.1,1.4c0,0.5-0.1,1,0.4,1
		c0.3,0,1.3-1.8,2.6-1.8c0.5,0,1,0.3,1,0.9c0,0.6-0.1,0.9-0.1,1.1c0,0.2,0.2,0.3,0.4,0.3c0.3,0,0.5-0.1,0.8-0.1c0.5,0,1,0.3,1,1.1
		c0,0.8-0.4,1.4-1,2.1c-0.2,0.2-0.3,0.4-0.1,0.7c0.3,0.5,0.8,0.6,0.8,1c0,1-0.7,1.3-1.2,1.5c-0.6,0.1-1.7,0.2-1.7,0.9
		c0,0.7,0.9,1.1,0.9,2.3c0,0.5-0.2,0.9-0.9,1.3c-0.7,0.4-2.2,0.5-2.4,0.5c-0.7,0-1.6-0.1-2.1-0.1c-0.5,0-1,0-1,0.3
		c0,0.6,1.2,1.1,1.2,2.3c0,1.3-2,1.5-3.2,1.5c-1.4,0-2.5-0.2-3.7-0.7c-0.6-0.2-1.8-0.8-2.7-0.8c-0.5,0-0.8,0.2-0.8,0.4
		c0,0.4,0.9,1.1,0.9,2c0,0.8-0.7,1.1-1.3,1.1c-2.3,0-3.8-2.7-7.1-2.7c-0.8,0-1.2,0.3-2.2,0.3c-1.3,0-1.6-0.4-1.6-1.2
		c-0.8,0.4-1.8,1.2-1.8,2.3c0,0.9,0.1,1.3,0.4,1.6c0.3,0.3,0.7,0.5,0.8,0.7c0.2,0.2-0.1,0.8,0.1,1.9c0.1,0.8,0.4,1.9,0.5,2.2
		c0.1,0.3-0.8,0.4-1.1,0.4c-0.4,0-1.8,0-1.9-0.4c-0.1-1.1-1.1-5.1-1.4-6c-0.5-1.2-0.7-1.1-1.4-1.7c-0.6-0.5-3.7-2.6-5.3-2.6
		c-0.4,0-0.2-0.1-0.5-0.1c-0.2,0,0,0-0.2,0c-0.1,0-0.1,0.1-0.3,0.1c-0.1,0,0,0.4-0.1,0.4c-0.1,0-0.1,0.1-0.1,0.3
		c0,0.2-0.2,0.3-0.2,0.4c0,0.1-0.2,0-0.2,0.2c0,0.2,0.1,0.2,0,0.3c-0.1,0.2-0.1,0.3-0.2,0.3c-0.1,0-0.1,0-0.1,0.1
		c0,0.2,0.1,0.2,0,0.3c-0.1,0.1-0.3,0.1-0.3,0.3c0,0.1,0,0.1-0.1,0.2c-0.1,0-0.2,0.1-0.2,0.2c0,0.1,0,0-0.1,0.1
		c-0.1,0.2-0.1,0.1-0.2,0.1c-0.3,0-0.2,0.2-0.7,0.2c-1.5,0-3.3-2.6-3.3-4.7c0-1.4,0.2-1.4,0.3-1.7c0-0.3,0.3-0.6,0.4-0.6
		c0.2,0,0.1-0.1,0.3-0.1c0-0.1,0.2-0.1,0.2-0.2c0.1-0.1,0.2-0.1,0.4,0c0.1,0,0.1-0.1,0.3-0.1c0.1,0,0.2,0.1,0.3,0.1
		c0.2,0,0.1,0,0.3,0c0.1,0,0.2,0,0.4,0.1c0.1,0,0.1-0.1,0.2,0c0.1,0,0.2,0.1,0.2,0.2c0.1,0,0.2,0,0.4,0.1c0.1,0,0.1,0.1,0.2,0.2
		c0.1,0,0.1-0.1,0.3,0c0.2,0.1,0.2,0.1,0.3,0.3c0.1,0.2,0.1,0,0.3,0.1C19,47.9,18.9,48,19,48c0.1,0,0.1,0,0.2,0.1
		c0.1,0.1,0,0.2,0.1,0.2c0.1,0,0.1,0,0.1,0.2c0,0.1,0.2,0.2,0.3,0.4c0.1,0.1,0.3,0.3,0.4,0.3c0.1,0,0.1-0.1-0.1-0.3
		c-0.2-0.2-0.2-0.1-0.3-0.5c0-0.1-0.2-0.1-0.2-0.2c0-0.1-0.2-0.3-0.2-0.4c0-0.1,0-0.2-0.1-0.2c-0.1,0-0.1-0.1-0.1-0.1
		c-0.1-0.2,0-0.2,0-0.3c0-0.1-0.1,0-0.1-0.1c0-0.1,0-0.2,0-0.3c0-0.1-0.1,0-0.1-0.2c0-0.1,0-0.1,0-0.2s-0.1-0.1-0.1-0.2
		c0-0.1,0-0.1,0-0.3c0-0.2,0,0,0-0.2c0-0.2,0.1-0.1,0.1-0.3c0-0.1,0-0.2,0.1-0.2c0-0.1-0.1-0.1,0-0.2c0.2-0.3,0.6-0.9,2.5-0.9
		c2.3,0,4.4,0.6,5.3,1.7c0.1,0.1,0.2,0.1,0.2,0.3c0,0.2,0.1,0.2,0.1,0.4c0,0.1-0.1,0.3-0.1,0.4c0,0.3,0,0.6-0.1,0.6
		c-0.1,0,0,0.5-0.2,0.5c-0.1,0,0,0.2-0.2,0.2c-0.2,0,0,0.5-0.2,0.5c-0.1,0-0.2,0-0.3,0.2c0,0.1-0.1,0.3-0.3,0.3
		c-0.2,0-0.1,0-0.2,0.1c-0.3,0.3-0.1,0.3-0.2,0.4c-0.2,0.2-0.3-0.2-0.4-0.1c-0.1,0.1-0.1,0.1-0.1,0.2c0,0.2,0,0.1-0.2,0.1
		c-0.2-0.1-0.3,0.2-0.3,0.2c0.1,0.1,0,0.1-0.1,0c0,0-0.1,0-0.2,0c-0.1,0-0.2,0-0.2,0.1c0,0.2,0,0.2,0,0.2c-0.1,0,0-0.2-0.2-0.2
		c-0.1,0-0.2,0-0.2,0c0,0.1,1.8,1,2.2,1.2c1,0.6,1.8,1.2,2.3,1.2c0.7,0,2.5-4.6,2.4-6.7c0-0.7-0.1-0.8,0-0.9c0-0.2-0.4-0.2-0.4-1.1
		c0-0.2,0-0.6,0.2-0.8c0.1-0.1,0.3-0.2,0.5-0.2c0.2,0,0.6,0.3,0.6,0.5c0.2-0.3,0.7-2.5,0.7-3.2c0-0.2-0.1-0.6-0.2-0.7
		c-0.1-0.1-0.9-0.2-1.6-1.2c0-0.1-0.1-0.1-0.2-0.1c0,0,0,0.1,0,0.2c0,0.2-0.4,0.8-1,0.8c-1,0-1.3-0.5-2.4-0.5
		c-0.5,0-0.9,0.2-1.2,0.5c-0.5,0.4-1.5,0.9-1.9,0.9c-1,0-0.5-1.4-1.2-1.4c-0.5,0-0.5,0.8-0.7,1.3c-0.3,0.8-2.2,3-3.2,3
		c-1,0-0.6-1.8-1.2-1.8c-0.4,0-0.6,0.5-0.7,0.9c-0.5,1.5-1.1,2.6-1.7,3.3c-0.6,0.7-1.4,2-2.4,2c-0.9,0-0.7-1.4-1.1-1.8
		c-0.2-0.2-0.6-0.3-0.8,0.1c-0.5,0.9-1,2.7-2.3,2.7c-0.8,0-1-0.6-1-1c0-0.4,0-0.5-0.1-0.8c-0.1-0.2-0.1-0.5-0.4-0.5
		c-0.2,0-0.4,0.1-0.6,0.6c-0.2,0.5-0.8,1.4-2,1.4c-1,0-1.4-0.4-1.4-0.7c0-0.4,0.1-1-0.7-0.8c-0.9,0.2-1.4-1.1-1.4-1.6
		c0-1,0.7-1.6,0.7-2c0-0.4-0.9-0.6-0.9-1.6c0-2.2,2.4-1.6,2.4-2.7c0-0.9-1.7-1.4-1.7-2.4c0-2,2.6-2.4,3.1-2.4c0.5,0,1.1,0.2,1.3,0.2
		c0.3,0,1-0.1,1-0.5c0-0.3-0.3-0.8-0.6-1.1C5.3,32.1,5,31.8,5,31.4c0-1.4,1.5-1.9,2.5-1.9c2,0,3.4,0.4,4,0.7
		c0.6,0.2,1.1,0.7,1.6,0.7c0.2,0,0.4-0.1,0.4-0.3c0-0.5-0.8-1.1-0.8-2c0-0.7,0.6-1.4,1.7-1.4c1.1,0,2.6,0.6,3.5,1.1
		c0.8,0.5,2.2,1.9,2.9,1.9c0.7,0-0.1-2.1,1.5-2.1c1.3,0,3,1.4,4.1,3.5c0.2,0.4,0.8,1.2,1.3,1.5c0.8,0.4,1.8,1.9,1.9,3.1
		c0,0.3,0.3,0.5,0.3,0.5c-0.1-0.3-0.1-1,0.3-1.1c0.4-0.1,1.1,0.5,1.3,0.7c0.1-0.3-0.2-1.2-0.3-1.5c-0.1-0.2-0.7-2.4-0.9-2.7
		c-0.2-0.4-0.9-2.1-1.1-2.5c-0.4-0.7-1.2-1-1.6-1.2c-0.6-0.3-1.2-1.1-1.3-1.2c-0.2-0.1-0.2-0.1-0.2-0.1c-0.1,0-0.2,0.5-1,0.5
		c-0.8,0-1.7-1.2-2.7-1.7c-1.4-0.7-3.1-1-3.8-1.1c-0.5-0.1-2.1-0.4-2.8-0.9c-0.5-0.3-0.7-0.8-0.7-1.1c0-0.8,1-1.2,1.2-1.3
		c0.2-0.1,0.5-0.2,0.5-0.4c0-0.2-0.4-0.4-0.7-0.6c-0.4-0.2-1-0.3-1.8-0.3c-0.8,0-2.1-0.2-2.8-0.5C10.8,19,9.2,17.9,9.2,17
		c0-0.7,0.3-1.1,0.9-1.4c0.5-0.3,1.4-0.5,1.4-1c0-0.3-0.3-0.4-0.5-0.5c-0.3-0.2-1.6-0.4-2.1-0.5c-0.7-0.1-3.5-0.7-3.5-2.4
		c0-1.6,2.4-1.7,2.4-2c0-0.4-0.7-0.6-1.5-1.1C5.5,7.5,4.5,6.7,4.5,6c0-1.5,2.2-1.1,2.2-1.6c0-0.1-0.1-0.3-0.2-0.4L5.8,3.2
		C5.6,3,5.4,2.5,5.4,2.3C5.4,1.7,6,1.7,6,1.4C6,1.2,5.9,1.2,5.9,1c0-0.4,0.5-0.9,1.3-0.6c0.3,0.1,0.5,0.1,0.7,0C8.3,0.4,8.4,0,9,0
		c0.8,0,1.1,0.8,1.3,1c0.2,0.2,0.2,0.4,0.4,0.4c0.2,0,0.3-0.6,0.5-0.9c0.2-0.2,0.6-0.5,1-0.5c1.2,0,2.2,1,2.7,2.1
		c0.1,0.2,0.3,0.5,0.4,0.5c0.5,0,0.9-2,2.4-2c0.9,0,1.3,0.3,1.6,0.6c0.5,0.5,0.6,1.5,0.9,2.3c0.2,0.7,0.1,2.5,0.1,2.9
		c0,0.4,0.1,1.4,0.4,1.4c0.6,0,1.1-1.5,2.5-1.5c0.6,0,1.5,0.8,1.5,2.8c0,2.1-0.9,2.8-0.9,4.3c0,0.3,0,0.6,0.3,0.6
		c0.3,0,0.4-0.5,0.6-0.7c0.2-0.3,0.7-0.5,1.3-0.5c0.7,0,1.1,0.7,1.1,1.6c0,0.7-0.4,3.2-0.4,4.5c0,1.3,0.5,2,0.5,3.6
		c0,1.2-0.6,2-0.6,2.5c0,0.2,0.3,0.6,0.5,0.5c-0.2-0.3,0-1.1,0.2-1.2c0.2-0.1,0.4,0,0.6,0c-0.2-1,0.2-2,0.6-2.1
		c0.5-0.1,1.5,0.9,1.6,1c0.1-0.1,0.3-0.3,0.5-0.3c0.3,0,0.6,0.2,0.9,0.5c0.1-0.1,0.1-0.2,0.1-0.4c0-0.2-0.5-1.5-0.5-2.6
		c0-1.3,0.6-2.5,0.6-3.5c0-1.9-0.6-3.1-0.6-4c0-1.9,0.6-3,1.5-3c0.9,0,1.4,0.9,1.9,0.9c0.4,0,0.7-0.8,0.7-1.3c0.3-2.2,0.5-7,2.9-8.1
		c0.5-0.3,1.1-0.1,1.6,0.4c0.9,0.9,1,1.9,1.7,1.9c0.5,0,1.1-1.1,1.3-1.6c0.3-0.8,1.5-2,2.8-2c2.1,0,1.3,2.3,2.3,2.3
		c1.1,0,1.9-1.9,3.6-1.9c0.5,0,1.1,0.5,1.1,1.2c0,0.4,0,0.7,0,0.9c0,0.2,0,0.5,0.2,0.5c0.2,0,0.9-0.7,1.4-0.7c0.9,0,0.7,0.9,1.1,1.1
		c0.2,0.2,1.1,0.2,1.1,1.1c0,1.2-1.1,1.1-1.1,1.7C55.1,6.7,56,7,56,7.6c0,0.7-0.7,1.4-1.2,1.5c-0.4,0-1.9,0-1.9,0.6
		c0,0.1,0.4,0.3,0.7,0.6c0.4,0.3,0.8,0.7,0.8,1.3c0,0.8-0.9,1.6-3.7,1.6c-0.5,0-0.6,0-1.1,0c-0.2,0-0.6,0-0.9,0.1
		c-0.5,0.1-1,0.3-1,0.6c0,0.8,1.6,0.8,1.6,1.8c0,0.7-0.5,1.2-1.2,1.6c-0.5,0.3-2.2,1-3.3,1c-2.1,0-2.4-0.2-3-0.2
		c-0.5,0-0.9,0.2-0.9,0.5c0,0.3,0.3,0.5,0.8,0.8c0.3,0.2,1.5,0.6,1.5,1.6c0,1-1.7,1.6-2.5,1.7c-1.9,0.4-3,0.9-4.3,2.2
		c-0.7,0.7-2.1,2.4-3.5,1.7c-0.6,0.9-1.5,1.8-1.6,2.5c-0.2,1.3,1.7,7.3,2.6,7.3c0.5,0,1.3-0.7,2.4-1.4c0.7-0.5,1.5-1,2.3-1.6
		c3.8-2.6,6.8-3.9,6.8-4.4c0-0.4-0.3-0.7-0.4-0.9c-0.1-0.2-0.2-0.2-0.3-0.4c-0.1-0.2-0.1-0.2-0.1-0.3c-0.1-0.1-0.2-0.2-0.2-0.4
		c0-0.2,0-0.2,0-0.3c-0.1,0-0.1-0.2-0.1-0.3c0-0.1,0-0.1,0-0.3c0-0.1-0.1,0-0.1-0.3c0-0.3,0.1-0.3,0.1-0.4c0,0-0.2-0.1-0.2-0.2
		c0-0.2,0.2-0.2,0.2-0.4c0-0.1-0.1-0.1-0.1-0.2c0-0.5,0.1-0.4,0.2-0.5c0-0.1,0-0.4,0.2-0.5c0.2-0.1,0.3-0.3,0.5-0.3
		C44.9,23.2,44.9,23,45.1,23.1"/>
	<polygon points="4.4,97.6 4.4,86.1 0,86.1 0,84.8 11.3,84.8 11.3,86.1 6.8,86.1 6.8,97.6 	"/>
	<path d="M22.5,95.9c-0.2,0.9-0.9,1.9-2.4,1.9c-1.7,0-2.5-1.3-2.5-3v-5.5l2.4-0.2v6c0,1.1,0.5,1.7,1.3,1.7
		C21.9,96.8,22.3,96.3,22.5,95.9"/>
	<path d="M25.2,96c0,0.8,0.1,1.3,0.7,1.3c-0.3,0.2-0.9,0.4-1.4,0.4c-1,0-1.7-0.5-1.7-1.8v-6.6l2.4-0.2V96z"/>
	<path d="M33.8,89.9c1.2-0.6,2.4-1.8,3-2.9h0.3v2.2h2.1v0.9h-2.1v5.3c0,0.8,0.5,1.5,1.4,1.5c0.5,0,1-0.2,1.2-0.7
		c-0.2,0.7-0.9,1.5-2.4,1.5c-1.7,0-2.7-1.3-2.7-3v-4.6h-0.9V89.9z"/>
	<path d="M13.1,91c0.4-1.1,1.2-2,2.4-2c0.3,0,0.5,0.1,0.7,0.1L16,90.7c-1.1-0.8-2.4,0-2.8,1.4v5.5h-2.3v-8.3l2.2-0.2L13.1,91z"/>
	<path d="M29.6,97c-1,0-1.8-0.7-2.3-1.5l-0.2,1.5c0.6,0.4,1.6,0.8,2.6,0.8c2.1,0,3.3-1.3,3.3-2.6c0-1.6-1.2-2.2-2.2-2.8
		c-0.9-0.5-1.9-0.8-1.9-1.7c0-0.4,0.4-1,1.2-1c0.7,0,1.3,0.5,1.8,1.1l0.3-1.4C31.7,89.3,31,89,30.1,89c-2,0-3,1.2-3,2.5
		c0,1.3,1,2.1,1.9,2.7c1,0.5,2,0.9,2,1.7C31,96.5,30.4,97,29.6,97"/>
	<polygon points="62.9,81.1 62.9,68.1 65.3,68 65.3,81.1 	"/>
	<path d="M22.7,73.3c1.2-0.6,2.4-1.8,3-2.9H26v2.2h2.1v0.9H26v5.3c0,0.8,0.5,1.5,1.4,1.5c0.5,0,1-0.2,1.2-0.7
		c-0.2,0.7-0.9,1.5-2.4,1.5c-1.7,0-2.6-1.3-2.6-3v-4.6h-0.9V73.3z"/>
	<path d="M30.3,68.9c0,0.5,0.4,0.9,0.9,0.9c0.5,0,0.9-0.4,0.9-0.9c0-0.5-0.4-0.9-0.9-0.9C30.8,67.9,30.3,68.4,30.3,68.9"/>
	<polygon points="32.5,81.1 32.5,72.6 30.1,72.8 30.1,81.1 	"/>
	<path d="M52.3,79.5c0,0.8,0.1,1.3,0.7,1.3c-0.3,0.2-0.9,0.4-1.4,0.4c-1,0-1.7-0.5-1.7-1.8v-4.5c0-1-0.5-1.5-1.2-1.5
		c-0.5,0-1,0.2-1.3,0.6c0.3-0.8,1-1.7,2.4-1.7c1.6,0,2.5,1.2,2.5,2.7V79.5z"/>
	<polygon points="47.1,81.1 44.7,81.1 44.7,72.7 47.1,72.6 	"/>
	<path d="M38.6,80.5c-1.2,0-1.9-1.1-1.9-3.6c0-2.5,0.7-3.6,1.9-3.6c1.2,0,1.9,1.1,1.9,3.6C40.4,79.4,39.7,80.5,38.6,80.5 M38.6,72.4
		c-2.2,0-4.4,1.7-4.4,4.4c0,2.7,2.2,4.4,4.4,4.4c2.2,0,4.4-1.7,4.4-4.4C42.9,74.2,40.8,72.4,38.6,72.4"/>
	<path d="M60.7,79.5c0,0.8,0.1,1.3,0.7,1.3c-0.3,0.2-0.8,0.4-1.3,0.4c-0.9,0-1.6-0.5-1.6-1.8v-2.9c-1.6,0.8-2.2,1.5-2.2,2.6
		c0,1.4,1.4,1.5,1.9,0.8c-0.3,0.8-1,1.3-1.9,1.3c-1.2,0-2.2-0.8-2.2-2.1c0-2,2.5-2.6,4.4-3.5v-0.8c0-0.9-0.5-1.3-1.5-1.3
		c-0.6,0-1.4,0.2-1.9,0.4v-1c0.4-0.2,1.4-0.4,2.2-0.4c1.6,0,3.3,0.6,3.3,3.1V79.5z"/>
	<path d="M21.3,79.5c0,0.8,0.1,1.3,0.7,1.3c-0.3,0.2-0.8,0.4-1.3,0.4c-0.9,0-1.6-0.5-1.6-1.8v-2.9c-1.6,0.8-2.2,1.5-2.2,2.6
		c0,1.4,1.4,1.5,1.9,0.8c-0.3,0.8-1,1.3-1.9,1.3c-1.2,0-2.2-0.8-2.2-2.1c0-2,2.5-2.6,4.4-3.5v-0.8c0-0.9-0.5-1.3-1.5-1.3
		c-0.6,0-1.4,0.2-1.9,0.4v-1c0.4-0.2,1.4-0.4,2.2-0.4c1.6,0,3.3,0.6,3.3,3.1V79.5z"/>
	<polygon points="2.9,72.2 2.9,81.1 1.4,81.1 1.4,68 2,68 11.5,77.1 11.5,68.2 12.9,68.2 12.9,81.2 12.4,81.2 	"/>
</g>
</svg>
