<?xml version="1.0" encoding="utf-8"?>
<!-- Generator: Adobe Illustrator 22.0.1, SVG Export Plug-In . SVG Version: 6.00 Build 0)  -->
<svg version="1.1" id="Layer_1" xmlns="http://www.w3.org/2000/svg" xmlns:xlink="http://www.w3.org/1999/xlink" x="0px" y="0px"
	 width="143.8px" height="58.2px" viewBox="0 0 143.8 58.2" style="enable-background:new 0 0 143.8 58.2;" xml:space="preserve">
<path d="M0,0v58.2h143.8V0H0z M32.3,52.5L22.5,20h-0.1l-6.5,32.4H4.1l10-46.9h15.6l9.6,32.5h0.1L46,5.6h11.8l-9.9,46.9H32.3z
	 M80.1,52.5l4.2-20.1H69.4l-4.2,20.1H52.7l9.7-46.9H75l-3.7,17.9h14.8l3.7-17.9h12.6l-9.7,46.9H80.1z M135.4,16.2
	c-2.4-1.1-5.7-2.1-10.3-2.1c-5,0-9,0.7-9,4.5c0,6.6,18.2,4.2,18.2,18.4c0,13-12,16.3-22.9,16.3c-4.8,0-10.4-1.1-14.5-2.4l3-9.5
	c2.5,1.6,7.5,2.7,11.5,2.7c3.9,0,10-0.7,10-5.6c0-7.5-18.2-4.7-18.2-17.9c0-12.1,10.6-15.7,20.9-15.7c5.8,0,11.2,0.6,14.4,2.1
	L135.4,16.2z"/>
</svg>
