<?xml version="1.0" encoding="utf-8"?>
<!-- Generator: Adobe Illustrator 22.0.1, SVG Export Plug-In . SVG Version: 6.00 Build 0)  -->
<svg version="1.1" id="Layer_1" xmlns="http://www.w3.org/2000/svg" xmlns:xlink="http://www.w3.org/1999/xlink" x="0px" y="0px"
	 width="278.5px" height="73.2px" viewBox="0 0 278.5 73.2" style="enable-background:new 0 0 278.5 73.2;" xml:space="preserve">
<path id="path2223" d="M25.5,73.2c-5.7-0.4-10-1.4-13.6-3.2c-2.7-1.4-4-2.3-5.9-4.2c-3.7-3.7-5.6-8.3-5.8-14.6L0,48.6h3.4h3.4
	l0.1,2.3c0.5,10.7,8.4,16.6,22.3,16.6c1.9,0,3.6-0.1,4.7-0.3c7.5-1.4,12.9-5.5,14.3-10.9c0.4-1.5,0.4-4.5,0-5.9
	c-0.8-3.2-3.5-5.9-7.5-7.8c-2.5-1.2-4.1-1.6-14.6-4.2c-5.4-1.3-10.7-2.7-11.7-3.1c-8-2.8-11.9-7.9-11.9-15.5c0-8.9,5.4-16,14.2-18.7
	C20,0.2,21.5,0,26.5,0c4.1,0,4.9,0.1,6.8,0.5c8.3,1.7,14.2,5.7,17.2,11.7c1.2,2.4,2.1,5.9,2.1,8.3v1.2h-3.2h-3.2l-0.1-1.1
	c-0.3-3.1-1.6-6.3-3.4-8.4c-4.1-5-11.8-7.5-20-6.3C14.1,6.9,9.5,11.3,9,18.4c-0.1,1.1,0,2.4,0.1,3.1c0.7,3.5,3.2,6.3,7.1,7.8
	c1.7,0.6,3,1,14.6,3.9c8.4,2.1,10.8,2.8,13.7,4.2c2.7,1.3,4.1,2.2,5.7,3.7c2.3,2.2,3.6,4.6,4.4,7.8c0.5,2,0.5,6.2,0,8.3
	c-1.5,6.9-6.4,12-13.9,14.3C36.4,72.8,30.2,73.5,25.5,73.2z M131.7,73.2c-7-0.7-11.8-3.2-15.5-8.1c-4.1-5.4-6-14.5-5-23.1
	c0.8-6.8,3.1-12.2,6.9-16.2c4.2-4.4,9.8-6.5,16.6-6.2c3,0.1,4.7,0.4,7.1,1.3c4.7,1.7,9,5.8,11.3,10.9c0.9,1.9,2,5.5,2.4,7.7
	c0.3,1.7,0.7,6,0.7,7.6v0.9h-19.7H117l0.1,1.8c0.4,6,3,11.8,6.8,15c1.5,1.2,3.8,2.4,5.7,3c2.2,0.6,6.6,0.6,8.8,0
	c3.9-1.1,6.7-3.1,8.9-6.5c0.9-1.4,1.9-3.6,2.3-5.1l0.2-0.9h3h3l-0.1,0.6c-0.3,1.4-1.5,4.7-2.3,6.4c-3,6-7.7,9.4-14.5,10.6
	C137.2,73.1,133.1,73.3,131.7,73.2z M150.1,42.7c0.2-0.4-0.5-4.6-1.1-6.4c-2.5-7.5-8-11.8-15.2-11.8c-7.2,0-13,4.6-15.6,12.6
	c-0.7,2.1-1.3,5-1.1,5.4c0.1,0.3,1.9,0.3,16.5,0.3C144.6,42.9,150,42.8,150.1,42.7z M221.2,73.1c-3.8-0.4-7.9-1.9-10.7-3.9
	c-1.7-1.3-3.5-3.2-4.9-5.3c-5.9-9-6-24.8-0.3-34.2c1.9-3.2,5-6.2,8-7.8c6.2-3.2,15-3.3,21-0.2c1.9,1,3,1.8,4.7,3.5
	c4.5,4.4,7.1,11.3,7.5,19.7l0.1,2.9l-19.6,0.1l-19.6,0.1l0,1.5c0,0.8,0.1,2.1,0.3,2.8c2,11.3,9.7,17.4,19.7,15.7
	c5.2-0.9,8.8-3.6,11.2-8.5c0.4-0.8,0.9-2.1,1.2-2.9l0.4-1.3h3h3l-0.4,1.4c-1.3,4.7-3.2,8.1-5.9,10.8c-3.5,3.5-7.3,5.1-13.1,5.7
	C224.4,73.3,223.7,73.3,221.2,73.1z M240.2,41.3c-0.1-3.1-1.4-6.8-3.3-9.7c-2.4-3.6-5.5-5.8-9.6-6.8c-0.9-0.2-2-0.3-3.9-0.2
	c-2.2,0.1-2.8,0.2-4.3,0.7c-2.3,0.8-3.7,1.6-5.5,3.4c-3.2,3-5.4,7.6-6.3,12.7c-0.1,0.6-0.1,1.2-0.1,1.3c0.1,0.1,7.5,0.1,16.5,0.1
	l16.4-0.1L240.2,41.3z M190.4,72.1c-2.8-0.5-5-1.9-6-3.8c-1.2-2.4-1.1-1.4-1.2-22.8l-0.1-19.6h-4.4h-4.4l0-2.5l0-2.5h4.4h4.4
	l0.1-9.7l0.1-9.7h3.1h3.1v9.8V21l5.1-0.1l5.1-0.1l0,2.5l0,2.5h-5.1h-5.1v18.5c0,20.2,0,19.8,1.1,21.1c0.3,0.3,0.9,0.8,1.3,1
	c0.8,0.4,1.1,0.4,4.3,0.4h3.5l0,2.5l0,2.5l-1.6,0.1C195.7,72.3,191.6,72.3,190.4,72.1z M101.1,71.8l-3-0.1V54.7V37.8l-0.5-0.4
	c-0.3-0.2-3.1-2.8-6.3-5.7c-3.2-2.9-6.2-5.6-6.6-6l-0.7-0.6l-4.8,4.2c-2.6,2.3-6.1,5.4-7.8,6.8l-3,2.6l0,16.5l0,16.5h-3.1h-3.1V36.6
	V1.5h3.1h3.1v15c0,8.2,0,15,0.1,15c0.1,0,3.7-3.1,8-6.9l7.9-6.9l3.3,3c1.8,1.7,6.3,5.7,9.9,9l6.6,6l0,18.1c0,10,0,18.1,0,18.1
	C104.1,71.8,102.8,71.8,101.1,71.8z M166.2,71.8l-3-0.1V36.6V1.5h3.1h3.1v35.2c0,19.4,0,35.2,0,35.2
	C169.3,71.8,167.9,71.8,166.2,71.8z M256.5,71.7l-2.9-0.1V46.3V21h2.8h2.8v5.9c0,3.3,0.1,5.9,0.2,5.9c0.1,0,0.4-0.6,0.7-1.3
	c1.2-2.7,3.6-5.8,6.1-7.7c2.7-2,6.3-3.3,10.2-3.5l2.1-0.1l0.1,3.1l0.1,3.1l-1.4,0c-0.8,0-2.1,0.1-3,0.3c-7.4,1.4-12.6,6.6-14.1,14.1
	c-0.3,1.3-0.3,3.6-0.3,16.2c0,8.1-0.1,14.8-0.1,14.8S258.1,71.8,256.5,71.7z"/>
</svg>
