<?xml version="1.0" encoding="utf-8"?>
<!-- Generator: Adobe Illustrator 22.0.1, SVG Export Plug-In . SVG Version: 6.00 Build 0)  -->
<svg version="1.1" id="Layer_1" xmlns="http://www.w3.org/2000/svg" xmlns:xlink="http://www.w3.org/1999/xlink" x="0px" y="0px"
	 width="178.6px" height="97.6px" viewBox="0 0 178.6 97.6" style="enable-background:new 0 0 178.6 97.6;" xml:space="preserve">
<style type="text/css">
	.st0{fill:#1D1D22;}
</style>
<g>
	<path class="st0" d="M26,97.6h5.7l12.1-63.8L57,97.6h5l17-81c1.8-8.5,2.8-11.4,6.1-12.3l2.7-0.7V1.1H68.1v2.5l2.9,0.6
		c4.2,0.8,5.2,3.4,3.2,13.7L64.1,67.9l-10.3-53C52.6,9.5,51.9,5,56.5,4.2l3.1-0.6V1.1H32.7v2.5L34.5,4c2.8,0.7,3.2,2.4,4.3,7.7
		l2.6,12.7l-8.2,43.1L22.6,14.9C21.4,9.2,20.9,4.9,25.4,4l2.1-0.4V1.1H0v2.5l2.7,0.7c2.5,0.7,3.9,2,5.6,9.6L26,97.6L26,97.6z"/>
	<path class="st0" d="M130.7,71.8c0-28.6-31.4-36.2-31.4-57c0-4.5,1.7-11.2,8.7-11.2c10.1,0,13.8,13,15.5,28.8h2.7V0.6h-1.7
		c-0.7,3.1-2,4.5-3.8,4.5c-3.2,0-4.9-5-12.6-5c-11.9,0-20,9.9-20,22.9c0,23.6,31.4,33.5,31.4,55.3c0,9.9-4.6,15.5-10.9,15.5
		c-9.4,0-15.5-11-17.2-28.8h-2.7v31.8h1.7c1.4-4.6,3.2-5,4.7-5c2.7,0,5.4,5.6,13.5,5.6C121.2,97.3,130.7,86.6,130.7,71.8"/>
	<path class="st0" d="M171.8,9.5c0-3.9,1-5.2,3.8-5.9l3.1-0.8V0.3h-28.9v2.5l3.5,0.8c2.8,0.7,4.3,1.7,4.3,5.7v67.1
		c0,9.4-0.8,16.9-7.8,16.9c-4.5,0-7.8-3.5-7.7-6c0.4-4.3,7.7-4,8.2-11c0.4-5-2.8-7.1-5.7-7.5c-4.3-0.6-9.6,3.1-9.8,10.3
		c-0.1,9.4,6,17.9,16.5,17.9c11.6,0,20.5-7.8,20.5-22.8L171.8,9.5L171.8,9.5z"/>
</g>
</svg>
