<?xml version="1.0" encoding="utf-8"?>
<!-- Generator: Adobe Illustrator 22.0.1, SVG Export Plug-In . SVG Version: 6.00 Build 0)  -->
<svg version="1.1" id="Layer_1" xmlns="http://www.w3.org/2000/svg" xmlns:xlink="http://www.w3.org/1999/xlink" x="0px" y="0px"
	 width="78px" height="42.6px" viewBox="0 0 78 42.6" style="enable-background:new 0 0 78 42.6;" xml:space="preserve">
<style type="text/css">
	.st0{fill:#FFFFFF;}
</style>
<g>
	<path class="st0" d="M11.3,42.6h2.5l5.3-27.8l5.8,27.8h2.2l7.4-35.4c0.8-3.7,1.2-5,2.7-5.4l1.2-0.3V0.5h-8.6v1.1L31,1.8
		c1.8,0.4,2.3,1.5,1.4,6L28,29.7L23.5,6.5c-0.5-2.4-0.8-4.3,1.2-4.7L26,1.6V0.5H14.3v1.1l0.8,0.2c1.2,0.3,1.4,1,1.9,3.4l1.2,5.5
		l-3.6,18.8l-4.7-23C9.3,4,9.1,2.1,11.1,1.8L12,1.6V0.5H0v1.1l1.2,0.3c1.1,0.3,1.7,0.9,2.4,4.2L11.3,42.6L11.3,42.6z"/>
	<path class="st0" d="M57.1,31.3c0-12.5-13.7-15.8-13.7-24.9c0-2,0.7-4.9,3.8-4.9c4.4,0,6,5.7,6.8,12.6h1.2V0.2h-0.7
		c-0.3,1.3-0.9,2-1.6,2c-1.4,0-2.1-2.2-5.5-2.2c-5.2,0-8.7,4.3-8.7,10c0,10.3,13.7,14.6,13.7,24.1c0,4.3-2,6.8-4.8,6.8
		c-4.1,0-6.8-4.8-7.5-12.6h-1.2v13.9h0.7c0.6-2,1.4-2.2,2.1-2.2c1.2,0,2.4,2.4,5.9,2.4C52.9,42.5,57.1,37.8,57.1,31.3"/>
	<path class="st0" d="M75,4.1c0-1.7,0.4-2.3,1.6-2.6L78,1.2V0.1H65.4v1.1l1.5,0.4c1.2,0.3,1.9,0.7,1.9,2.5v29.3
		c0,4.1-0.4,7.4-3.4,7.4c-2,0-3.4-1.5-3.4-2.6c0.2-1.9,3.4-1.8,3.6-4.8c0.2-2.2-1.2-3.1-2.5-3.3c-1.9-0.2-4.2,1.3-4.3,4.5
		c-0.1,4.1,2.6,7.8,7.2,7.8c5.1,0,9-3.4,9-9.9L75,4.1L75,4.1z"/>
</g>
</svg>
